<?xml version="1.0" encoding="UTF-8"?>
<svg width="857px" height="785px" viewBox="0 0 857 785" version="1.1" xmlns="http://www.w3.org/2000/svg" xmlns:xlink="http://www.w3.org/1999/xlink">
    <!-- Generator: Sketch 63.1 (92452) - https://sketch.com -->
    <title>vacuum 2</title>
    <desc>Created with Sketch.</desc>
    <g id="Page-1" stroke="none" stroke-width="1" fill="none" fill-rule="evenodd">
        <g id="Group-2" transform="translate(-21.000000, -6.000000)">
            <path d="M670.889088,372.63412 C679.615556,373.217146 687.454013,376.441003 694.40446,382.30569 C701.354907,388.170378 748.553417,420.652332 835.999989,479.751553 C842.283423,486.235377 846.571181,493.645274 848.863263,501.981244 C851.155346,510.317214 867.901052,572.404984 899.100382,688.244554 C898.104277,721.715033 882.932105,742.489385 853.583867,750.567609 C838.30285,754.773772 822.035896,759.192487 804.783006,763.823752 C798.409878,765.534517 791.902217,767.274285 785.260022,769.043057 C779.27213,770.637591 770.324925,773.007697 758.418405,776.153373 L758.474187,776.359816 C721.88815,786.26861 688.848046,795.042909 659.353875,802.682714 C629.859703,810.322518 606.285927,799.907683 588.632545,771.438208 C557.570295,655.634509 540.941874,593.554265 538.747282,585.197477 C536.552691,576.84069 536.552691,568.290448 538.747282,559.546751 C584.908323,464.806616 609.530544,413.166346 612.613945,404.625941 C615.697346,396.085535 620.875286,389.387864 628.147763,384.532927 L628.147763,384.532927 L650.147338,378.16012 L650.047324,377.775547 L670.889088,372.63412 Z M835.583047,709.480379 L835.518106,709.490023 L658.749946,756.802939 C658.749258,756.803123 658.748572,756.80331 658.747886,756.803499 C658.59796,756.844848 658.509941,756.999907 658.55129,757.149833 C658.593046,757.301234 658.749111,757.390608 658.900824,757.350001 L658.900824,757.350001 L835.668984,710.037084 L835.668984,710.037084 C835.820971,709.995175 835.908989,709.840116 835.86764,709.69019 C835.825884,709.538789 835.66982,709.449416 835.518106,709.490023 Z M580.1891,601.846166 L580.123924,601.855378 L580.123924,601.855378 C579.971252,601.896323 579.88191,602.051166 579.92231,602.201775 L579.92231,602.201775 L615.139943,733.491545 C615.18074,733.643632 615.336579,733.734335 615.488969,733.694689 L615.488969,733.694689 C615.641641,733.653744 615.730984,733.498901 615.690584,733.348291 L615.690584,733.348291 L580.47295,602.058522 C580.432154,601.906435 580.276315,601.815732 580.123924,601.855378 Z M717.647228,555.777897 C677.561703,555.777897 645.065966,588.251664 645.065966,628.310086 C645.065966,668.368508 677.561703,700.842275 717.647228,700.842275 C757.732752,700.842275 790.228489,668.368508 790.228489,628.310086 C790.228489,588.251664 757.732752,555.777897 717.647228,555.777897 Z M823.588289,531.016454 L823.523113,531.025666 C823.522425,531.025845 823.521737,531.026027 823.52105,531.026211 C823.370441,531.066611 823.281099,531.221454 823.321499,531.372064 L823.321499,531.372064 L858.539133,662.661833 C858.579929,662.81392 858.735768,662.904623 858.888158,662.864977 L858.888158,662.864977 C859.04083,662.824032 859.130173,662.669189 859.089773,662.51858 L859.089773,662.51858 L823.872139,531.22881 C823.831343,531.076723 823.675504,530.98602 823.523113,531.025666 Z M776.69591,496.365319 L776.63097,496.374962 L599.862809,543.687879 C599.862122,543.688063 599.861435,543.688249 599.860749,543.688439 C599.710823,543.729788 599.622804,543.884847 599.664153,544.034773 C599.70591,544.186174 599.861974,544.275547 600.013687,544.23494 L600.013687,544.23494 L776.781848,496.922024 L776.781848,496.922024 C776.933834,496.880115 777.021853,496.725056 776.980504,496.57513 C776.938748,496.423729 776.782683,496.334355 776.63097,496.374962 Z M667.74761,413.433476 C652.214469,413.433476 639.622371,426.017061 639.622371,441.5397 C639.622371,457.062338 652.214469,469.645923 667.74761,469.645923 C683.280751,469.645923 695.872849,457.062338 695.872849,441.5397 C695.872849,426.017061 683.280751,413.433476 667.74761,413.433476 Z" id="Combined-Shape" stroke="#000000" stroke-width="21" stroke-linejoin="round" transform="translate(718.100860, 588.870708) rotate(15.000000) translate(-718.100860, -588.870708) "></path>
            <g id="vacuum-cleaner-(1)" transform="translate(175.000000, 212.000000)" fill="#000000" fill-rule="nonzero">
                <path d="M232.475676,0 C260.087611,0 280.907805,12.496875 280.907805,29.0625 L280.907805,29.0625 L280.907805,116.25 C286.262011,116.25 290.594595,120.583037 290.594595,125.937803 L290.594595,125.937803 L290.594595,271.250303 L336,271.25 L336,290.625 L290.594595,290.625 L290.594595,319.6875 C290.594595,346.394121 264.524627,368.124697 232.475676,368.124697 C200.426724,368.124697 174.356757,346.394121 174.356757,319.6875 L174.356757,319.6875 L174.356757,290.625 L67.8057081,290.625 C41.100973,290.625 19.3735784,312.355576 19.3735784,339.062197 L19.3735784,339.062197 L19.3735784,406.875 C19.3735784,417.555469 28.0668973,426.249697 38.7462486,426.249697 L38.7462486,426.249697 L336,426.249 L336,454.845 L333.588973,447.537979 L330.034638,458.341055 C328.720605,462.314443 325.011892,465.001816 320.830962,465.001816 C316.640951,465.001816 312.933146,462.314443 311.627286,458.341055 L311.627286,458.341055 L308.087481,447.565225 L304.533146,458.350137 C303.219114,462.314443 299.5104,465.001816 295.32947,465.001816 L295.32947,465.001816 C291.139459,465.001816 287.431654,462.304453 286.125795,458.331064 L286.125795,458.331064 L282.635027,447.676025 L279.144259,458.331064 C277.839308,462.314443 274.131503,465.001816 269.940584,465.001816 C265.750573,465.001816 262.042768,462.313535 260.736908,458.331064 L260.736908,458.331064 L257.22707,447.6179 L253.69907,458.340146 C252.385038,462.313535 248.676324,465.001816 244.495395,465.001816 C240.305384,465.001816 236.597578,462.312627 235.291719,458.330156 L235.291719,458.330156 L231.805,447.706 L228.338335,458.321074 C227.071916,462.213034 223.493277,464.878504 219.419647,464.997652 L219.134659,465.001816 C214.934659,465.001816 211.226854,462.303545 209.920995,458.311084 L209.920995,458.311084 L206.515589,447.854033 L203.110184,458.311084 C201.804324,462.303545 198.087438,465.001816 193.896519,465.001816 C189.7056,465.001816 185.988714,462.303545 184.682854,458.311084 L184.682854,458.311084 L181.276541,447.851309 L177.862962,458.320166 C176.558011,462.302637 172.850205,465.001816 168.659286,465.001816 L168.659286,465.001816 C164.460195,465.001816 160.752389,462.311719 159.44653,458.329248 L159.44653,458.329248 L155.948497,447.652412 L152.436843,458.339238 C151.131892,462.312627 147.414097,465.001816 143.233168,465.001816 C139.043157,465.001816 135.335351,462.302637 134.029492,458.329248 L134.029492,458.329248 L130.538724,447.676934 L127.057946,458.320166 C125.762076,462.302637 122.044281,465.001816 117.85427,465.001816 C113.664259,465.001816 109.946465,462.302637 108.650595,458.320166 L108.650595,458.320166 L105.178897,447.706904 L101.7072,458.320166 C100.41133,462.302637 96.6944432,465.001816 92.5035243,465.001816 C88.3135135,465.001816 84.5957189,462.302637 83.2998486,458.320166 L83.2998486,458.320166 L79.8236108,447.691465 L76.3373838,458.330156 C75.0324324,462.303545 71.324627,465.001816 67.1337081,465.001816 C62.9527784,465.001816 59.2358919,462.312627 57.9300324,458.330156 L57.9300324,458.330156 L54.4274595,447.654229 L50.929427,458.330156 C49.6244757,462.313535 45.9166703,465.001816 41.7257514,465.001816 C37.5348324,465.001816 33.8179459,462.303545 32.5220757,458.321074 L32.5220757,458.321074 L27.7980973,443.857031 C11.7827027,439.098047 0,424.417852 0,406.875 L0,406.875 L0,339.062197 C0,301.675107 30.4216216,271.250303 67.8057081,271.250303 L67.8057081,271.250303 L174.356757,271.250303 L174.356757,125.937803 C174.356757,120.583037 178.689341,116.25 184.043546,116.25 L184.043546,116.25 L184.043546,29.0625 C184.043546,12.496875 204.863741,0 232.475676,0 Z M271.221924,162.009814 C260.929427,169.692305 247.345946,174.375 232.475676,174.375 C217.605405,174.375 204.021924,169.692305 193.729427,162.009814 L193.729427,162.009814 L193.729427,319.6875 C193.729427,335.713652 211.106076,348.75 232.475676,348.75 C253.845276,348.75 271.221924,335.713652 271.221924,319.6875 L271.221924,319.6875 Z M261.535135,52.5113965 C253.530162,56.0216016 243.607265,58.125 232.475676,58.125 C221.344086,58.125 211.421189,56.0216016 203.416216,52.5113965 L203.416216,52.5113965 L203.416216,144.957393 C210.52307,151.058701 220.847351,154.999395 232.475676,154.999395 C244.104,154.999395 254.428281,151.059609 261.535135,144.957393 L261.535135,144.957393 Z M232.475676,19.3746973 C213.726876,19.3746973 203.416216,26.6503125 203.416216,29.0625 C203.416216,31.4746875 213.726876,38.7503027 232.475676,38.7503027 C251.224476,38.7503027 261.535135,31.4755957 261.535135,29.0625 C261.535135,26.6494043 251.224476,19.3746973 232.475676,19.3746973 Z" id="Combined-Shape"></path>
            </g>
            <g id="electric-toothbrush-(1)" transform="translate(207.633750, 208.054635) rotate(-315.000000) translate(-207.633750, -208.054635) translate(146.633750, -24.445365)" fill="#000000" fill-rule="nonzero">
                <path d="M9.22689293,326.230746 C5.43633652,326.230746 1.96241587,323.773718 0.68498566,320.215107 C-0.577928298,316.697296 0.510790631,312.67176 3.35779063,310.253718 C6.32999331,307.729598 10.698478,307.408643 14.0136272,309.46221 C17.1817992,311.424206 18.8538901,315.282918 18.1180975,318.932194 C17.2752476,323.115488 13.5073728,326.230746 9.22689293,326.230746 Z" id="Path"></path>
                <path d="M112.349443,0 L12.0847801,0 C7.07485851,0 3.01212237,4.05998927 3.01212237,9.06652361 L3.01212237,118.986336 C3.01212237,131.496325 8.52920554,143.260139 18.1507591,151.26588 L19.7974465,152.636738 L19.7974465,180.227983 C7.85692161,189.426878 0.151513384,203.85897 0.151513384,220.056314 L0.151513384,276.013085 C0.151513384,281.019619 4.21424952,285.079608 9.22417113,285.079608 C14.2340927,285.079608 18.2968289,281.019619 18.2968289,276.013085 L18.2968289,220.056314 C18.2968289,202.338514 32.7205402,187.924555 50.4494207,187.924555 C68.1792084,187.924555 82.6029197,202.338514 82.6029197,220.056314 L82.6029197,223.474394 L75.4826979,223.474394 C58.3762017,223.474394 44.4587447,237.382441 44.4587447,254.477371 C44.4587447,263.037076 47.9480889,270.79802 53.5803948,276.413825 C47.9480889,282.02963 44.4587447,289.790574 44.4587447,298.350279 C44.4587447,315.445209 58.3762017,329.353256 75.4826979,329.353256 L82.6029197,329.353256 L82.6029197,362.874008 L56.8293136,362.874008 C51.819392,362.874008 47.7566558,366.933997 47.7566558,371.940531 C47.7566558,376.947065 51.819392,381.007055 56.8293136,381.007055 L82.6029197,381.007055 L82.6029197,413.942108 C82.6029197,431.659002 68.1792084,446.072961 50.4494207,446.072961 C32.7205402,446.072961 18.2968289,431.659002 18.2968289,413.942108 L18.2968289,357.985338 C18.2968289,352.978804 14.2340927,348.918814 9.22417113,348.918814 C4.21424952,348.918814 0.151513384,352.978804 0.151513384,357.985338 L0.151513384,413.942108 C0.151513384,441.657564 22.7152132,464.206009 50.4494207,464.206009 C78.1845354,464.206009 100.748235,441.657564 100.748235,413.942108 L100.748235,220.055408 C100.748235,202.545231 91.7427151,187.098594 78.118305,178.096443 L78.118305,145.036271 C78.118305,134.996003 74.5627304,125.434447 68.1855593,117.912859 L112.349443,117.912859 C117.359364,117.912859 121.4221,113.85287 121.4221,108.846336 L121.4221,9.06652361 C121.4221,4.05998927 117.359364,0 112.349443,0 L112.349443,0 Z M62.6049675,254.476465 C62.6049675,247.380097 68.3824359,241.606534 75.4836052,241.606534 L82.603827,241.606534 L82.603827,267.347302 L75.4836052,267.347302 C68.3824359,267.346395 62.6049675,261.572833 62.6049675,254.476465 Z M75.4836052,311.220209 C68.3824359,311.220209 62.6049675,305.446647 62.6049675,298.350279 C62.6049675,291.253911 68.3824359,285.480349 75.4836052,285.480349 L82.603827,285.480349 L82.603827,311.221116 L75.4836052,311.221116 L75.4836052,311.220209 Z M50.4494207,169.789694 C46.1335574,169.789694 41.9428967,170.336406 37.942762,171.362736 L37.942762,148.386352 C37.942762,145.693594 36.7451711,143.140461 34.6738834,141.417822 L29.7592247,137.329726 C24.2929484,132.780145 21.1574379,126.09449 21.1574379,118.986336 L21.1574379,18.1330472 L43.1876654,18.1330472 L43.1876654,115.636255 C43.1876654,118.328106 44.3843489,120.880333 46.4547294,122.603879 L51.3702954,126.694694 C56.837479,131.243369 59.9729895,137.929024 59.9729895,145.036271 L59.9729895,170.694533 C56.8891931,170.100676 53.7046902,169.789694 50.4494207,169.789694 L50.4494207,169.789694 Z M61.3338881,99.7798122 L61.3338881,18.1330472 L103.276785,18.1330472 L103.276785,30.4598927 L91.6764847,30.4598927 C86.6665631,30.4598927 82.603827,34.519882 82.603827,39.5264163 C82.603827,44.5329506 86.6665631,48.5929399 91.6764847,48.5929399 L103.276785,48.5929399 L103.276785,65.8565075 L80.2966501,65.8565075 C75.2867285,65.8565075 71.2239924,69.9164968 71.2239924,74.9230311 C71.2239924,79.9295655 75.2867285,83.9895547 80.2966501,83.9895547 L103.276785,83.9895547 L103.276785,99.7798122 L61.3338881,99.7798122 Z" id="Shape"></path>
            </g>
        </g>
    </g>
</svg>