<?xml version="1.0" encoding="UTF-8"?>
<svg width="512px" height="472px" viewBox="0 0 512 472" version="1.1" xmlns="http://www.w3.org/2000/svg" xmlns:xlink="http://www.w3.org/1999/xlink">
    <!-- Generator: Sketch 58 (84663) - https://sketch.com -->
    <title>akcesoria_gamingowe_150x150</title>
    <desc>Created with Sketch.</desc>
    <g id="SG_iteracja_v02" stroke="none" stroke-width="1" fill="none" fill-rule="evenodd">
        <g id="akcesoria_gamingowe_150x150" fill="#000000" fill-rule="nonzero">
            <path d="M256,0 C323.51763,0 383.99546,30.2088529 424.712086,77.8765015 L425.670001,79.0090001 C425.708315,79.0543852 425.746609,79.0997842 425.784883,79.1451972 C425.931158,79.3157717 426.074071,79.4861404 426.216735,79.6567269 C426.680279,80.21255 427.142991,80.7704893 427.602777,81.330474 C427.804058,81.576022 428.006663,81.8242048 428.208742,82.072833 C434.076853,89.2822473 439.461106,96.8263513 444.343361,104.652782 C444.462933,104.851331 444.586196,105.049486 444.709154,105.247849 C446.217923,107.676892 447.674842,110.133769 449.082924,112.616064 C449.267995,112.942998 449.453066,113.270895 449.637328,113.599308 C449.92912,114.119765 450.219274,114.642318 450.507274,115.165963 C450.737357,115.582487 450.965647,116.000342 451.192637,116.41901 C452.016732,117.943123 452.823323,119.474789 453.611674,121.01518 C453.870954,121.513976 454.126199,122.016935 454.379588,122.520991 C454.528085,122.825557 454.679791,123.129357 454.830793,123.433486 C461.312966,136.467278 466.552327,150.228891 470.39885,164.56256 C470.480043,164.873699 470.56255,165.18316 470.644391,165.49281 C470.798039,166.068148 470.948082,166.646615 471.095859,167.225993 C475.379203,183.980949 477.715562,201.273306 477.975607,218.751706 L478,222.031 L478,227.188 C497.325896,233.173123 511.495584,251.000531 511.986818,272.150818 L512,273.287 L512,340.791 C512,367.04028 490.929326,388.460943 464.813476,389.027495 L463.752001,389.039002 L440,389.039002 L440,408.333001 C440,429.852754 422.761899,447.420959 401.36975,447.956425 L400.364001,447.969 L308.624,447.969 C304.437044,461.550196 291.95486,471.527352 277.119448,471.954722 L276.127,471.969 L236.127,471.969 C217.379,471.969 202.127,456.717001 202.127,437.968998 C202.127,419.538763 216.866364,404.487021 235.176782,403.982087 L236.127,403.969 L276.127,403.969 C291.064065,403.969 303.779946,413.650913 308.332646,427.068993 L308.624,427.969 L400.364001,427.969 C410.939208,427.969 419.589188,419.564957 419.985794,409.085013 L420,408.333001 L420,401.814999 C416.870001,402.925001 413.506,403.535002 410,403.535002 C393.753392,403.535002 380.481625,390.553351 380.012814,374.418169 L380,373.535 L380,350.5 L380,259 L380,240.535 C380,223.993 393.457999,210.535 410,210.535 C412.643,210.535 415.206001,210.882 417.649999,211.527 C412.217999,127.078 341.798001,60.0309999 256,60.0309999 C170.202,60.0309999 99.782,127.078 94.349,211.527 C96.7920002,210.882 99.3550001,210.535 101.999,210.535 C118.245607,210.535 131.517374,223.516648 131.986185,239.651831 L131.999,240.535 L131.999,373.535 C131.999,390.077 118.541,403.535002 101.999,403.535002 C91.4748064,403.535002 82.1990001,398.086301 76.8433944,389.86253 L76.3210001,389.031001 L48.2479998,389.031001 C21.99872,389.031001 0.57805511,367.960327 0.0115039194,341.844477 L0,340.783 L0,273.279 C0,252.012754 13.8306384,233.917257 32.9696653,227.511912 L34,227.18 L34,222.031 C34,198.924081 37.626339,176.12174 44.5860888,154.416412 C44.7371257,153.943906 44.8899546,153.472291 45.0443097,153.001371 C45.2160502,152.480088 45.3897769,151.957074 45.5654451,151.434723 C45.6477662,151.186358 45.7313157,150.939197 45.8152868,150.692232 C46.0205066,150.092924 46.2274826,149.49302 46.4370237,148.89402 C47.0664062,147.089112 47.7198428,145.295323 48.3954845,143.512495 L48.6975802,142.726065 L48.6975802,142.726065 L49.1593168,141.52585 L49.1593168,141.52585 C49.3659515,141.002117 49.5729101,140.477381 49.7818699,139.953425 C49.9784557,139.454641 50.1788283,138.957522 50.3809372,138.461297 C50.6641128,137.77152 50.9487582,137.08248 51.2368807,136.39485 C51.376044,136.057813 51.5174178,135.722828 51.6595855,135.388263 C51.894842,134.839092 52.1313324,134.288563 52.3700599,133.738969 C52.5261517,133.375788 52.6839921,133.015194 52.8427578,132.655102 C53.1093303,132.053705 53.3778807,131.451612 53.6491264,130.85068 C53.7557596,130.611979 53.8639391,130.373559 53.9725257,130.135364 C54.3832668,129.236104 54.7986917,128.340241 55.2201312,127.447065 C55.3176692,127.239814 55.4171672,127.029916 55.5169833,126.820199 C55.8362976,126.149186 56.1579578,125.4816 56.4829897,124.815562 C56.5588954,124.661099 56.6351664,124.505371 56.7116131,124.349745 C64.8395844,107.791474 75.0542903,92.1964759 87.2010001,77.9820001 C87.2703881,77.9008051 87.3398303,77.8196651 87.4093264,77.73858 C128.122794,30.1498168 188.548376,0 256,0 Z M276.127,423.969 L236.127,423.969 C228.407,423.969 222.127,430.249001 222.127,437.969 C222.127,445.45506 228.032161,451.587072 235.429283,451.951834 L236.127,451.969 L276.127,451.969 C283.847,451.969 290.127,445.688999 290.127,437.969 C290.127,430.249001 283.847,423.969 276.127,423.969 Z M102,230.535 C96.6829285,230.535 92.3217398,234.706293 92.0170083,239.948305 L92,240.535 L92,373.535 C92,379.049001 96.486,383.535 102,383.535 C107.317072,383.535 111.67826,379.363707 111.982992,374.121694 L112,373.535 L112,240.535 C112,235.021 107.514,230.535 102,230.535 Z M410,230.535 C404.682929,230.535 400.321741,234.706293 400.017009,239.948305 L400,240.535 L400,259 L400,354.999999 L400,373.535 C400,379.049001 404.486001,383.535 410,383.535 C415.317071,383.535 419.678259,379.363707 419.982991,374.121694 L420,373.535 L420,240.535 C420,235.021 415.513999,230.535 410,230.535 Z M463.752001,245.039 L440,245.039 L440,369.039 L463.752001,369.039 C479.039556,369.039 491.52967,356.831986 491.987026,341.653282 L492,340.791 L492,273.287 C492,257.711 479.328,245.039 463.752001,245.039 Z M72,245.031 L48.2480002,245.031 C32.9604445,245.031 20.4703292,257.238012 20.012975,272.416716 L20,273.279 L20,340.783 C20,356.070557 32.2070124,368.560671 47.3857164,369.018027 L48.2479998,369.031 L72,369.031 L72,245.031 Z M87.2010001,77.9820001 L85.9989333,79.3975467 L86.3796378,78.9466208 C86.5617811,78.7306516 86.7443275,78.5150351 86.9272764,78.2997722 L87.2010001,77.9820001 Z M356.901646,46.9412625 L357.791464,47.46004 C357.49647,47.2849043 357.199309,47.1127197 356.901646,46.9412625 Z M355.324587,46.0424533 L356.440747,46.6773333 L355.731743,46.2726011 L355.731743,46.2726011 L355.324587,46.0424533 Z M354.245973,45.4382933 L353.170818,44.8434903 L353.170818,44.8434903 L354.048,45.3290667 L354.245973,45.4382933 Z M352.82944,44.65664 L353.170818,44.8434903 C352.489714,44.4695327 351.806232,44.099384 351.120401,43.7330732 L351.444852,43.9099907 C333.264047,34.1769486 313.332503,27.1085222 292.117,23.264 C291.837675,23.2133772 291.563181,23.1516133 291.293893,23.0792494 C279.834243,21.0528642 268.0398,20 256,20 C244.83548,20 233.881939,20.9053447 223.208477,22.6467794 C222.945124,22.7213307 222.673836,22.7786052 222.398,22.825 C209.964008,24.9150657 197.964473,28.0991833 186.490573,32.2694866 C143.423487,48.040149 107.194796,78.0445607 83.472969,116.60105 C65.08409,146.750645 54.4583212,182.032099 54.0144855,219.5791 L54,222.031 L54,225.031 L74,225.031 L74,222.031 C74,121.676 155.645,40.0309999 256,40.0309999 C355.35145,40.0309999 436.36523,120.051265 437.975569,219.026026 L438,222.031 L438,225.039 L458,225.039 L458,222.031 C458,160.831308 430.657198,105.18256 386.622764,67.8468233 C377.646698,60.2511142 368.002772,53.4208894 357.791464,47.46004 L356.558855,46.7463127 L356.558855,46.7463127 L355.324587,46.0424533 L355.320794,46.0410324 L354.245973,45.4382933 L354.048,45.3290667 L353.005145,44.7541736 L353.005145,44.7541736 L352.474453,44.4654933 L352.82944,44.65664 Z" id="Combined-Shape"></path>
            <path d="M256.869,0.032 L256,0.031 C250.478,0.031 246,4.50799998 246,10.031 C246,15.554 250.478,20.031 256,20.031 L256.799,20.032 C256.811,20.032 256.822,20.032 256.835,20.032 C262.341,20.032 266.814,15.578 266.834134,10.067 C266.854,4.544 262.392,0.0509999998 256.869,0.032 Z" id="Path"></path>
            <path d="M397.069001,299.97 C395.210001,298.11 392.629999,297.04 390,297.04 C387.370001,297.04 384.789999,298.109 382.929999,299.97 C381.070001,301.831 380,304.41 380,307.04 C380,309.67 381.069001,312.25 382.929999,314.109 C384.789999,315.97 387.370001,317.04 390,317.04 C392.629999,317.04 395.210001,315.97 397.069001,314.109 C398.928998,312.25 400,309.67 400,307.04 C400,304.41 398.929999,301.83 397.069001,299.97 Z" id="Path"></path>
            <path d="M314.158,176.067 L197.842,176.067 C172.565,176.067 152,196.632 152,221.909 L152,280.41 C152,305.687 172.564,326.253 197.842,326.253 L225.532,326.253 L248.117,354.437001 C249.998,356.783998 252.836,358.160002 255.844,358.183001 C255.869,358.183001 255.896,358.183001 255.921,358.183001 C258.9,358.183001 261.726,356.853999 263.626,354.557 L287.039,326.253 L314.158,326.253 C339.435,326.253 360,305.688 360,280.41 L360,221.909 C360,196.632 339.436,176.067 314.158,176.067 Z M340,280.41 C340,294.66 328.407,306.253 314.158,306.253 L282.333,306.253 C279.353,306.253 276.527,307.582 274.628,309.879 L256.044,332.345 L238.137,309.999 C236.239,307.631 233.368,306.253 230.333,306.253 L197.842,306.253 C183.593,306.253 172,294.66 172,280.41 L172,221.909 C172,207.659 183.593,196.067 197.842,196.067 L314.158,196.067 C328.407,196.067 340,207.66 340,221.909 L340,280.41 Z" id="Shape"></path>
            <path d="M219.2,249.09 C217.33,247.229 214.76,246.16 212.13,246.16 C209.5,246.16 206.92,247.229 205.06,249.09 C203.19,250.95 202.13,253.53 202.13,256.16 C202.13,258.79 203.19,261.37 205.06,263.229 C206.92,265.089 209.5,266.16 212.13,266.16 C214.76,266.16 217.33,265.09 219.2,263.229 C221.059,261.37 222.13,258.79 222.13,256.16 C222.13,253.53 221.06,250.95 219.2,249.09 Z" id="Path"></path>
            <path d="M263.2,249.09 C261.34,247.23 258.76,246.16 256.13,246.16 C253.49,246.16 250.92,247.229 249.06,249.09 C247.19,250.95 246.13,253.53 246.13,256.16 C246.13,258.79 247.19,261.37 249.06,263.229 C250.92,265.09 253.49,266.16 256.13,266.16 C258.76,266.16 261.34,265.09 263.2,263.229 C265.059,261.37 266.13,258.79 266.13,256.16 C266.13,253.53 265.06,250.95 263.2,249.09 Z" id="Path"></path>
            <path d="M307.2,249.09 C305.33,247.23 302.76,246.16 300.13,246.16 C297.49,246.16 294.92,247.229 293.06,249.09 C291.19,250.95 290.13,253.53 290.13,256.16 C290.13,258.8 291.19,261.37 293.06,263.229 C294.92,265.09 297.49,266.16 300.13,266.16 C302.76,266.16 305.33,265.09 307.2,263.229 C309.059,261.37 310.13,258.79 310.13,256.16 C310.13,253.53 309.06,250.95 307.2,249.09 Z" id="Path"></path>
        </g>
    </g>
</svg>