<svg xmlns="http://www.w3.org/2000/svg" viewBox="0 0 512 512"><path d="M488.727 279.273c-6.982 0-11.636 4.655-11.636 11.636v151.273c0 6.982-4.655 11.636-11.636 11.636h-418.9c-6.982 0-11.636-4.655-11.636-11.636V290.9c0-6.982-4.655-11.636-11.636-11.636S11.647 283.93 11.647 290.9v151.273c0 19.782 15.127 34.9 34.9 34.9h418.9c19.782 0 34.9-15.127 34.9-34.9V290.9c0-6.982-4.655-11.636-11.637-11.636zM477.1 116.364H34.9c-19.783 0-34.9 15.126-34.9 34.91v74.473c0 16.3 11.636 30.254 26.764 33.745l182.7 40.727v37.236c0 6.982 4.655 11.636 11.636 11.636h69.818c6.982 0 11.636-4.655 11.636-11.636v-37.236l182.7-40.727C500.364 256 512 242.036 512 225.745v-74.473c0-19.78-15.127-34.908-34.9-34.908zM279.273 325.818h-46.545v-46.545h46.545v46.545zm209.454-100.073c0 5.818-3.5 10.473-9.3 11.636l-176.873 39.564v-9.3c0-6.982-4.655-11.636-11.636-11.636H221.1c-6.982 0-11.636 4.655-11.636 11.636v9.3L32.582 237.382c-5.818-1.164-9.3-5.818-9.3-11.636v-74.473c0-6.982 4.655-11.636 11.636-11.636H477.1c6.982 0 11.636 4.655 11.636 11.636v74.472zM314.182 34.9H197.818c-19.782 0-34.9 15.127-34.9 34.9v11.636c0 6.982 4.655 11.636 11.636 11.636s11.636-4.655 11.636-11.636V69.818c0-6.982 4.655-11.636 11.636-11.636H314.18c6.982 0 11.636 4.655 11.636 11.636v11.636c0 6.982 4.655 11.636 11.636 11.636s11.636-4.655 11.636-11.636V69.818c.002-19.782-15.125-34.9-34.907-34.9z"/></svg>