<svg xmlns="http://www.w3.org/2000/svg" viewBox="0 0 512 512"><path d="M462 276a9.97 9.97 0 0 0-9.99 9.99 9.97 9.97 0 0 0 19.99 0 9.97 9.97 0 0 0-9.99-9.99zm-206-40a9.97 9.97 0 0 0-9.99 9.99c0 5.143 3.87 9.43 9 9.938A9.97 9.97 0 0 0 265.99 246a9.97 9.97 0 0 0-9.99-9.99zm0-40c-71.683 0-130 58.318-130 130s58.317 130 130 130 130-58.318 130-130-58.317-130-130-130zm0 240c-60.654 0-110-49.346-110-110s49.346-110 110-110 110 49.346 110 110-49.346 110-110 110zm43.574-188.733a10 10 0 1 0-9.709 17.485C312.154 277.13 326 300.598 326 326c0 5.523 4.478 10 10 10s10-4.477 10-10c0-32.663-17.8-62.832-46.426-78.733zM482 176h-10v-30c0-5.523-4.478-10-10-10h-40c-5.522 0-10 4.477-10 10v30h-75.98A169.41 169.41 0 0 0 306 163.497V136h30c16.542 0 30-13.458 30-30V46c0-16.542-13.458-30-30-30H176c-16.542 0-30 13.458-30 30v60c0 16.542 13.458 30 30 30h30v27.497A169.61 169.61 0 0 0 175.98 176H100v-30c0-5.523-4.478-10-10-10H50c-5.522 0-10 4.477-10 10v30H30c-16.542 0-30 13.458-30 30v240c0 16.542 13.458 30 30 30h145.98c24.495 13.08 52.096 20 80.02 20s55.523-6.92 80.02-20H482c16.542 0 30-13.458 30-30V206c0-16.542-13.458-30-30-30zm-50-20h20v20h-20v-20zm-256-40c-5.514 0-10-4.486-10-10V46c0-5.514 4.486-10 10-10h160c5.514 0 10 4.486 10 10v60c0 5.514-4.486 10-10 10H176zm110 20v22.662A171.2 171.2 0 0 0 256 156c-10.094 0-20.137.906-30 2.66V136h60zM60 156h20v20H60v-20zm-40 50c0-5.514 4.486-10.1 10-10.1h116.47c-13.54 11.416-25.275 24.994-34.714 40.1H20v-30zm0 49.9h81.05C91.17 277.778 86 301.774 86 326s5.17 48.123 15.05 70H20V255.9zM30 456c-5.514 0-10-4.486-10-10v-30h91.757c9.44 15.107 21.175 28.585 34.714 40H30zm226 20c-82.904 0-150-67.223-150-150 0-82.465 66.8-150 150-150 82.847 0 150 67.172 150 150 0 83.086-67.398 150-150 150zm236-30c0 5.514-4.486 10-10 10H365.53c13.54-11.416 25.275-24.894 34.714-40H492v30zm0-50h-81.05a170.2 170.2 0 0 0 0-140H492v140zm0-160h-91.757c-9.44-15.107-21.174-28.585-34.714-40H482c5.514 0 10 4.486 10 10v30zM316 56c-5.522 0-10 4.477-10 10v20c0 5.523 4.478 10 10 10s10-4.477 10-10V66c0-5.523-4.478-10-10-10z"/></svg>