<svg xmlns="http://www.w3.org/2000/svg" viewBox="0 0 512 512"><path d="M469.333 149.333H42.667C19.146 149.333 0 168.47 0 192v128c0 23.53 19.146 42.667 42.667 42.667h426.667C492.854 362.667 512 343.53 512 320V192c0-23.53-19.146-42.667-42.667-42.667zM490.667 320c0 11.76-9.563 21.333-21.333 21.333H42.667c-11.77 0-21.333-9.573-21.333-21.333V192c0-11.76 9.563-21.333 21.333-21.333h426.667c11.77 0 21.333 9.573 21.333 21.333v128zm-32-128H160c-5.896 0-10.875 4.76-10.875 10.646 0 5.688 4.23 10.313 9.833 10.635a14.28 14.28 0 0 0 .729.052c5.375 1.396 21.646 18.823 21.646 42.667 0 24.03-16.52 41.542-21.333 42.667A10.66 10.66 0 1 0 160 320h298.667a10.66 10.66 0 0 0 10.667-10.667V202.667c-.001-5.896-4.77-10.667-10.667-10.667zM448 298.667h-64v-32a10.66 10.66 0 1 0-21.334 0v32h-21.333v-32a10.66 10.66 0 1 0-21.333 0v32h-21.333v-53.333a10.66 10.66 0 1 0-21.334 0v53.333H256v-32a10.66 10.66 0 1 0-21.334 0v32h-45.188c7.73-11.688 13.188-26.958 13.188-42.667s-5.458-30.98-13.188-42.667H448v85.334zm-352-96c-29.417 0-53.333 23.927-53.333 53.333S66.583 309.333 96 309.333s53.333-23.927 53.333-53.333S125.417 202.667 96 202.667zM96 288c-17.646 0-32-14.354-32-32s14.354-32 32-32 32 14.354 32 32-14.354 32-32 32z"/></svg>