<svg xmlns="http://www.w3.org/2000/svg" xmlns:xlink="http://www.w3.org/1999/xlink" viewBox="0 0 512.002 512.002"><path d="M461.38 67.22a8.11 8.11 0 0 0-11.225 2.325c-2.458 3.742-1.417 8.767 2.325 11.225 22.042 14.478 36.268 35.167 41.284 59.502a115.06 115.06 0 0 0-12.603-8.315c-23.977-13.6-49.16-15.726-72.827-6.153-33.217 13.438-49.64 6.06-59.104-.664-2.636-1.87-5.204-4.065-7.85-6.713-3.165-3.167-8.297-3.168-11.463-.002s-3.167 8.297-.002 11.462c1.44 1.44 2.873 2.765 4.3 4.017-8.538 11.88-28.514 17.122-40.296 18.803-4.482-8.776-13.102-29.128-6.14-44.797 15.248-34.31 62.288-46.483 97.935-46.483 16.92 0 33.87 3.412 49.017 9.867 4.123 1.755 8.88-.162 10.635-4.28a8.11 8.11 0 0 0-4.279-10.635c-17.14-7.304-36.288-11.164-55.373-11.164-64.743 0-100.693 28.984-112.75 56.1-10.82 24.347 3.354 53.25 8.147 61.844l-.656 6.79c-14.472 1.863-25.694 14.254-25.694 29.226 0 13.03 8.396 24.097 20.18 27.986-2.4 26.98 9.673 53.568 31.6 69.508l1.716 1.247c-24.47 11.32-40.967 36.113-40.967 64.065v96.692c0 4.477 3.628 8.106 8.106 8.106H484.27c4.478 0 8.106-3.63 8.106-8.106V362c0-13.9-4.033-27.333-11.667-38.877a8.11 8.11 0 0 0-11.232-2.291c-3.734 2.47-4.76 7.498-2.3 11.232 5.874 8.884 8.978 19.235 8.978 29.937v43.702h-24.252v-30.367c0-4.477-3.628-8.106-8.106-8.106s-8.106 3.63-8.106 8.106v75.25h-111.71v-75.25c0-4.477-3.628-8.106-8.106-8.106s-8.106 3.63-8.106 8.106v30.367h-24.253V361.99c0-21.283 12.408-40.19 30.887-49.044 1.21 7.267 3.61 14.31 7.13 20.776 1.47 2.702 4.254 4.232 7.128 4.232a8.07 8.07 0 0 0 3.868-.988 8.11 8.11 0 0 0 3.244-10.994 49.68 49.68 0 0 1-4.446-11.301l12.828 9.32c10.67 7.76 23.172 11.637 35.68 11.637s25.01-3.88 35.683-11.635l12.85-9.333c-5.608 21.558-25.236 37.52-48.524 37.52-11.484 0-22.286-3.776-31.24-10.92-3.5-2.792-8.6-2.218-11.39 1.28s-2.22 8.6 1.28 11.392a66.54 66.54 0 0 0 41.35 14.458c32.87 0 60.218-24.033 65.435-55.445a54.48 54.48 0 0 1 6.931 3.978 8.07 8.07 0 0 0 4.534 1.393 8.1 8.1 0 0 0 6.722-3.565 8.11 8.11 0 0 0-2.173-11.255 70.53 70.53 0 0 0-9.885-5.573l1.714-1.245c21.94-15.94 34-42.53 31.61-69.51a29.42 29.42 0 0 0 20.172-27.982c0-14.966-11.217-27.354-25.686-29.223l-.908-9.402a8.11 8.11 0 0 0-8.847-7.29c-4.456.43-7.72 4.39-7.29 8.847l6.375 66.027c2.077 21.5-7.486 42.725-24.955 55.418L406 310.878c-15.647 11.37-36.663 11.37-52.302-.001l-37.602-27.315c-17.47-12.694-27.034-33.93-24.957-55.42l5.747-59.516c12.414-1.874 38.24-7.808 50.737-25.562 18.252 9.274 40.208 8.52 66.793-2.236 19.04-7.704 38.664-6.028 58.32 4.983 15.28 8.558 24.863 19.788 24.947 19.888 1.57 1.874 3.862 2.9 6.214 2.9.926 0 1.863-.16 2.77-.488a8.11 8.11 0 0 0 5.336-7.617c-.001-38.7-17.978-71.837-50.62-93.275zM276.6 210.036c-3.405-2.404-5.612-6.37-5.612-10.852 0-5.376 3.22-10.004 7.828-12.086l-2.216 22.938zm175.314 211.867h24.252v28.673h-24.252v-28.673zm-144.134 0v28.673h-24.253v-28.673h24.253zM488.7 199.184a13.24 13.24 0 0 1-5.606 10.844l-2.213-22.925c4.603 2.085 7.82 6.7 7.82 12.08z"/><use xlink:href="#B"/><path d="M442.062 182.564c-5.727-5.727-13.34-8.88-21.44-8.88a30.12 30.12 0 0 0-21.439 8.88 8.11 8.11 0 0 0 .001 11.463c3.164 3.166 8.297 3.164 11.462 0 2.664-2.664 6.207-4.132 9.974-4.132a14.01 14.01 0 0 1 9.974 4.132c1.584 1.582 3.658 2.373 5.733 2.373a8.08 8.08 0 0 0 5.731-2.373c3.168-3.165 3.168-8.297.003-11.463zm-81.557 0c-5.727-5.727-13.34-8.88-21.44-8.88a30.12 30.12 0 0 0-21.439 8.88c-3.167 3.165-3.167 8.297-.001 11.462s8.298 3.165 11.462 0c2.665-2.665 6.208-4.133 9.976-4.133a14.01 14.01 0 0 1 9.974 4.132 8.08 8.08 0 0 0 11.464.002 8.1 8.1 0 0 0 .003-11.463z"/><use xlink:href="#B" x="81.556"/><path d="M403.388 269.357a8.11 8.11 0 0 0-11.464 0c-6.66 6.66-17.5 6.66-24.16 0a8.11 8.11 0 0 0-11.464 0c-3.165 3.166-3.165 8.298 0 11.462 6.5 6.5 15.017 9.736 23.543 9.736s17.052-3.245 23.544-9.736c3.167-3.165 3.167-8.298.001-11.462zm-16.673-61.687a8.11 8.11 0 0 0-8.106 8.106v19.375h-5.634a8.11 8.11 0 0 0-8.106 8.106c0 4.477 3.628 8.106 8.106 8.106h13.74a8.11 8.11 0 0 0 8.106-8.106v-27.48a8.11 8.11 0 0 0-8.106-8.107zm-200.27 24.973c-5.496-5.497-12.805-8.524-20.577-8.524a28.91 28.91 0 0 0-20.58 8.524c-3.166 3.165-3.166 8.298 0 11.462a8.11 8.11 0 0 0 11.462 0c2.435-2.435 5.673-3.776 9.116-3.776s6.68 1.34 9.116 3.776a8.08 8.08 0 0 0 5.731 2.374c2.074 0 4.15-.8 5.73-2.374 3.166-3.165 3.166-8.298.001-11.462zm-77.1 0a28.91 28.91 0 0 0-20.578-8.524 28.91 28.91 0 0 0-20.58 8.524c-3.166 3.165-3.166 8.298 0 11.462a8.11 8.11 0 0 0 11.462 0c2.435-2.435 5.673-3.776 9.116-3.776s6.68 1.34 9.116 3.776a8.08 8.08 0 0 0 11.463 0c3.167-3.165 3.167-8.298.001-11.462zm40.535 53.18a8.11 8.11 0 0 0-11.463 0c-6.124 6.125-16.087 6.124-22.2 0-3.166-3.165-8.298-3.165-11.462 0s-3.166 8.298 0 11.462c6.028 6.028 14.043 9.348 22.568 9.348s16.54-3.32 22.568-9.348a8.11 8.11 0 0 0-.001-11.462zM132.8 250.46h-10.967a8.11 8.11 0 0 0-8.106 8.106 8.11 8.11 0 0 0 8.106 8.106H132.8a8.11 8.11 0 0 0 8.106-8.106 8.11 8.11 0 0 0-8.106-8.106zm121.832-34.284c0-10.85-6.142-20.3-15.13-25.04L250.03 176.7c4.9-6.733 5.823-15.3 2.446-22.92s-10.34-12.693-18.627-13.576a8.11 8.11 0 0 0-8.918 7.201c-.474 4.452 2.748 8.444 7.2 8.918 3.543.378 5.044 2.943 5.525 4.028s1.374 3.92-.725 6.8l-17.558 24.085c-2.1 2.878-5.07 2.895-6.25 2.77s-4.08-.77-5.525-4.027l-12.386-27.935a26.54 26.54 0 0 0 6.54-8.962l8.262.88c.293.03.583.047.87.047a8.11 8.11 0 0 0 .85-16.166l-8.25-.88c-2.497-11.994-13.146-21.034-25.87-21.034a26.33 26.33 0 0 0-2.78.147L162.45 88.154a22.81 22.81 0 0 0-18.627-13.573 22.8 22.8 0 0 0-21.069 9.344l-17.556 24.1a22.81 22.81 0 0 0-2.442 22.92c3.378 7.618 10.342 12.692 18.628 13.575l30.36 3.235a26.25 26.25 0 0 0 2.026 5.993c-20.577 20.175-55.462 39.934-108.682 28.016 7.5-23.874 25.154-43.666 48.693-53.62 4.123-1.743 6.052-6.5 4.308-10.623s-6.5-6.053-10.623-4.308C55.96 126.536 33.332 154.695 26.83 187.9 11.906 188.678 0 201.064 0 216.177c0 12.902 8.57 23.805 20.443 27.206-1.65 27.645 10.93 54.513 33.474 70.9l6.405 4.653c-23.74 10.6-39.8 34.433-39.8 61.345v17.577a8.11 8.11 0 0 0 8.106 8.106 8.11 8.11 0 0 0 8.106-8.106V380.27c0-19.743 11.4-37.3 28.42-45.7 5.203 29.62 31.098 52.204 62.186 52.204a63.07 63.07 0 0 0 58.19-38.572 8.11 8.11 0 0 0-4.307-10.623c-4.12-1.744-8.88.183-10.623 4.307-7.37 17.42-24.35 28.676-43.26 28.676-22.15 0-40.75-15.42-45.664-36.122l9.184 6.673c10.9 7.926 23.693 11.9 36.477 11.9s25.568-3.963 36.477-11.9l14.465-10.5c23.067 5.203 39.66 25.85 39.66 49.675v70.305h-22.037v-57.7a8.11 8.11 0 0 0-8.106-8.106 8.11 8.11 0 0 0-8.106 8.106v57.7H74.97v-57.7a8.11 8.11 0 0 0-8.106-8.106 8.11 8.11 0 0 0-8.106 8.106v57.7H36.723v-23.08a8.11 8.11 0 0 0-8.106-8.106 8.11 8.11 0 0 0-8.106 8.106v31.186a8.11 8.11 0 0 0 8.106 8.106h197.415a8.11 8.11 0 0 0 8.106-8.106v-78.4c0-26.913-16.07-50.754-39.8-61.345l6.403-4.653c22.547-16.38 35.127-43.25 33.474-70.896a28.25 28.25 0 0 0 20.436-27.201zM22.18 226.623c-3.585-2.1-5.97-5.995-5.97-10.446 0-5.38 3.532-9.945 8.397-11.512l-2.427 21.958zm155.43-94.47c5.63 0 10.213 4.58 10.213 10.213s-4.58 10.213-10.213 10.213-10.213-4.58-10.213-10.213 4.58-10.213 10.213-10.213zm-24.14-.517l-30.374-3.236c-3.543-.377-5.044-2.942-5.526-4.027s-1.374-3.92.724-6.8l17.556-24.1c2.1-2.88 5.07-2.897 6.25-2.77s4.08.77 5.526 4.027l12.4 27.933a26.54 26.54 0 0 0-6.546 8.963zm37.73 169.522L154.27 328a45.73 45.73 0 0 1-53.898 0l-36.93-26.832c-18.953-13.77-29.127-36.8-26.553-60.074l4.752-43c.017-.158.042-.313.06-.47 12.48 2.794 24.092 4.058 34.852 4.058 30.553 0 54.315-9.983 72.162-22.624 4.677 5.702 12.485 13.665 23.638 20.078 4.215 2.424 9.6.7 11.537-3.77 1.654-3.804.147-8.214-3.446-10.284-9.02-5.196-15.374-11.7-19.095-16.205a137.33 137.33 0 0 0 3.553-3.354 26.26 26.26 0 0 0 12.707 3.265c.94 0 1.87-.052 2.785-.148l12.38 27.92c3.377 7.616 10.34 12.7 18.626 13.575a23.93 23.93 0 0 0 2.528.135c.14 0 .28-.01.42-.012l3.408 30.824c2.57 23.286-7.604 46.305-26.558 60.076zm41.265-74.543l-2.426-21.946c4.86 1.57 8.4 6.133 8.4 11.507a12.08 12.08 0 0 1-5.963 10.44z"/><defs ><path id="B" d="M339.067 206.754c-4.478 0-8.106 3.63-8.106 8.106v10.988c0 4.477 3.628 8.106 8.106 8.106s8.106-3.63 8.106-8.106V214.86a8.11 8.11 0 0 0-8.106-8.106z"/></defs></svg>