<svg xmlns="http://www.w3.org/2000/svg" height="661.333" viewBox="0 0 496 496" width="661.333"><path d="M64 128h128V80H64zm16-32h96v16H80zm128-16v48h128V80zm112 32h-96V96h96zm176 40c0-13.23-10.77-24-24-24h-32c-10.414 0-19.215 6.7-22.527 16H368V80h32v16h48V16h-48v16h-32.8C363.47 13.77 347.3 0 328 0H72C49.945 0 32 17.945 32 40v408.8C13.77 452.53 0 468.7 0 488v8h400v-8c0-19.312-13.77-35.473-32-39.2V192h48v32h16v80h48v-80h16zm-224-8H48V64h304v80zm15.078 160H288c17.648 0 32 14.352 32 32s-14.352 32-32 32h-19.922c2.328-11.297 5.37-17.785 8.348-24.137 4.512-9.633 8.832-18.887 10.652-39.863zM48 448v-16h304v16zm81.762-288l7.992 32H152v32h16v48h-56v8c0 39.168 5.625 51.168 11.574 63.863 4.762 10.16 9.684 20.648 11.594 50.625.52 8.07 3.457 15.45 8.023 21.504H48V160zM224.9 416h-49.832c-12.613 0-23.14-9.895-23.94-22.52-2.113-33-7.937-45.434-13.074-56.402-2.43-5.184-4.703-10.055-6.477-17.078h136.82c-1.773 7.016-4.047 11.895-6.477 17.078-5.137 10.97-10.96 23.402-13.074 56.402-.8 12.625-11.328 22.52-23.945 22.52zm46.113-112H128.977c-.44-4.594-.754-9.832-.887-16h143.832c-.145 6.168-.457 11.406-.898 16zM184 272v-48h32v48zm-16-64v-16h64v16zm-17.754-32l-4.008-16h107.516l-4.012 16zM416 32h16v48h-16zm-16 32h-32V48h32zM72 16h256c13.23 0 24 10.77 24 24v8H48v-8c0-13.23 10.77-24 24-24zm310.633 464H17.367c3.305-9.312 12.2-16 22.633-16h320c10.434 0 19.328 6.688 22.633 16zM352 416h-95.2c4.566-6.055 7.512-13.434 8.023-21.504.238-3.8.535-7.28.863-10.496H288c26.473 0 48-21.527 48-48s-21.527-48-48-48h-.098l.098-8v-8h-56v-48h16v-32h104zm-85.754-240l4-16H416v16zM464 288h-16v-64h16zm16-80h-48v-56a8.01 8.01 0 0 1 8-8h32a8.01 8.01 0 0 1 8 8zm0 0"/></svg>