<svg xmlns="http://www.w3.org/2000/svg" viewBox="0 0 475 475"><path d="M438.413 343.188C428.06 335.085 415.174 325 390.835 325s-37.224 10.085-47.577 18.188C334.496 350.045 328.165 355 314.17 355s-20.325-4.955-29.087-11.813C274.73 335.085 261.844 325 237.506 325s-37.224 10.085-47.578 18.188C181.166 350.045 174.834 355 160.84 355s-20.327-4.955-29.1-11.813C121.395 335.084 108.5 325 84.17 325s-37.225 10.084-47.58 18.188C27.828 350.045 21.496 355 7.5 355v30c24.34 0 37.225-10.084 47.58-18.188C63.842 359.955 70.174 355 84.17 355s20.327 4.955 29.1 11.813C123.615 374.916 136.5 385 160.84 385s37.224-10.084 47.578-18.188C217.18 359.955 223.5 355 237.506 355s20.325 4.955 29.087 11.813C276.947 374.915 289.833 385 314.17 385s37.224-10.085 47.577-18.188C370.5 359.955 376.84 355 390.835 355s20.325 4.955 29.088 11.813C430.277 374.915 443.162 385 467.5 385v-30c-13.994 0-20.325-4.955-29.087-11.812zM390.835 415c-24.338 0-37.224 10.085-47.577 18.188C334.496 440.045 328.165 445 314.17 445s-20.325-4.955-29.087-11.813C274.73 425.085 261.844 415 237.506 415s-37.224 10.085-47.578 18.188C181.166 440.045 174.834 445 160.84 445s-20.327-4.955-29.1-11.813C121.395 425.084 108.5 415 84.17 415s-37.225 10.084-47.58 18.188C27.828 440.045 21.496 445 7.5 445v30c24.34 0 37.225-10.084 47.58-18.188C63.842 449.955 70.174 445 84.17 445s20.327 4.955 29.1 11.813C123.615 464.916 136.5 475 160.84 475s37.224-10.084 47.578-18.188C217.18 449.955 223.5 445 237.506 445s20.325 4.955 29.087 11.813C276.947 464.915 289.833 475 314.17 475s37.224-10.085 47.577-18.188C370.5 449.955 376.84 445 390.835 445s20.325 4.955 29.088 11.813C430.277 464.915 443.162 475 467.5 475v-30c-13.994 0-20.325-4.955-29.087-11.813C428.06 425.085 415.174 415 390.835 415zM184.378 258.323l38.122-22v44.02h30v-44.02l38.122 22 15-25.98-38.122-22 38.122-22-15-25.98-38.122 22v-44.02h-30v44.02l-38.122-22-15 25.98 38.122 22-38.122 22zM24.095 118l38.12-22v44h30V95.98l38.122 22 15-25.98-38.122-22 38.122-22-15-25.98-38.122 22V0h-30v44.02l-38.12-22-15 25.98 38.122 22L9.095 92zm320.567 0l38.122-22v44h30V95.98l38.12 22 15-25.98-38.122-22 38.122-22-15-25.98-38.12 22V0h-30v44.02l-38.122-22-15 25.98 38.122 22-38.122 22z"/></svg>