<svg xmlns="http://www.w3.org/2000/svg" viewBox="0 0 512 512"><path d="M486.4 38.4H349.867c-14.132.015-25.585 11.468-25.6 25.6v51.2h-307.2A17.09 17.09 0 0 0 0 132.267v204.8c.015 14.132 11.468 25.585 25.6 25.6h110.933V396.8h-12.375c-9.07.048-17.383 5.06-21.658 13.058l-14.008 25.63a25.98 25.98 0 0 0 .558 25.892c4.4 7.556 12.462 12.2 21.2 12.22h172.033c8.738-.01 16.8-4.665 21.2-12.22 4.784-7.927 5-17.8.542-25.92L290.05 409.9c-4.273-8.012-12.595-13.037-21.675-13.088H256V362.67h68.267V448c.015 14.132 11.468 25.585 25.6 25.6H486.4c14.132-.015 25.585-11.468 25.6-25.6V64c-.015-14.132-11.468-25.585-25.6-25.6zM17.067 140.8c.005-4.7 3.822-8.53 8.533-8.533h341.333c4.7.005 8.53 3.822 8.533 8.533v170.667l-358.4.012V140.8zm251.308 273.067c2.83.035 5.405 1.645 6.675 4.175l13.975 25.57c1.55 2.83 1.474 6.274-.2 9.033-1.336 2.365-3.826 3.845-6.542 3.888H110.25a7.65 7.65 0 0 1-6.542-3.888 9.03 9.03 0 0 1-.217-9.004l14.008-25.63c1.272-2.516 3.84-4.114 6.658-4.146h12.375v8.533a17.09 17.09 0 0 0 17.067 17.067h85.333a17.09 17.09 0 0 0 17.067-17.067v-8.533h12.376zM153.6 422.4v-59.733h85.333V422.4H153.6zm-128-76.8c-4.7-.005-8.53-3.822-8.533-8.533v-8.533h358.4v8.533c-.005 4.7-3.822 8.53-8.533 8.533H25.6zM494.933 448c-.005 4.7-3.822 8.53-8.533 8.533H349.867c-4.7-.005-8.53-3.822-8.533-8.533v-85.333h25.6a25.56 25.56 0 0 0 24.028-17.067h78.372c4.713 0 8.533-3.82 8.533-8.533s-3.82-8.533-8.533-8.533h-76.8v-17.067h76.8c4.713 0 8.533-3.82 8.533-8.533s-3.82-8.533-8.533-8.533h-76.8v-17.067h76.8c4.713 0 8.533-3.82 8.533-8.533s-3.82-8.533-8.533-8.533h-76.8V243.2h76.8c4.713 0 8.533-3.82 8.533-8.533s-3.82-8.533-8.533-8.533h-76.8v-17.067h76.8c4.712.001 8.532-3.817 8.533-8.53v-42.67c.001-4.712-3.817-8.532-8.53-8.533h-76.804v-17.067h76.8c4.712.001 8.532-3.817 8.533-8.53v-42.67c.001-4.712-3.817-8.532-8.53-8.533H366.934c-4.712-.001-8.532 3.817-8.533 8.53V115.2h-17.067V64c.005-4.7 3.822-8.53 8.533-8.533H486.4c4.7.005 8.53 3.822 8.533 8.533v384zM375.467 115.2V89.6H460.8v25.6h-85.333zm17.066 51.2H460.8V192h-68.267v-25.6zM435.2 371.2c-18.85 0-34.133 15.282-34.133 34.133s15.282 34.133 34.133 34.133 34.133-15.282 34.133-34.133c-.02-18.843-15.3-34.113-34.133-34.133zm0 51.2a17.07 17.07 0 0 1-17.067-17.067 17.07 17.07 0 0 1 17.067-17.067 17.07 17.07 0 0 1 17.067 17.067A17.09 17.09 0 0 1 435.2 422.4zm-59.73-25.6c-4.716-.001-8.536 3.817-8.537 8.53v8.537c0 4.713 3.82 8.533 8.533 8.533s8.533-3.82 8.533-8.533v-8.533c.001-4.7-3.817-8.532-8.53-8.533zM65.658 151.834c-3.32-3.26-8.638-3.26-11.957 0L36.634 168.9c-3.332 3.333-3.33 8.736.002 12.068a8.53 8.53 0 0 0 6.031 2.498 8.5 8.5 0 0 0 6.033-2.5L65.766 163.9c3.302-3.362 3.254-8.764-.108-12.066zm51.232-.001c-3.323-3.282-8.668-3.282-12 0l-51.2 51.2c-3.332 3.33-3.333 8.732-.003 12.064s8.735 3.336 12.067.006l51.203-51.203c3.3-3.353 3.277-8.755-.076-12.067z"/></svg>