<svg xmlns="http://www.w3.org/2000/svg" viewBox="0 0 177.809 177.809"><path d="M132.534 152.942C126.145 143.152 32.616 20 18.596 3.107 16.65.76 14.33 1.495 13.463 2.35c-1.508 1.486-2.412 3.655.745 16.652C16.1 26.8 30.86 70.202 35.9 82.675c10.235 25.374 16.786 24.537 20.54 25.02 1.833.236 3.616-.194 5.157-1.247 4.197-2.864 5.597-3.7 7.218-4.667l1.936-1.17c4.537 7.434 10.138 18.967 15.576 30.164 7.317 15.067 14.884 30.648 20.93 38.7 3.845 5.125 8.003 6.633 10.815 6.994 5.382.692 10.948-2.192 14.183-7.348 3.283-5.233 3.394-11.438.3-16.2zm-6.006 12.602c-1.84 2.933-4.824 4.597-7.604 4.24-2.182-.28-4.353-1.785-6.275-4.35-5.658-7.543-13.08-22.827-20.26-37.6-6.558-13.503-12.752-26.258-17.82-33.75a3.37 3.37 0 0 0-2.366-1.457 3.36 3.36 0 0 0-2.26.513c-2.266 1.463-7.795 4.76-12.163 7.74-.2.137-.317.15-.5.13-2.315 1.198-2.462-.56-6.37-5.864-6.295-8.54-24.065-58.716-29.205-75.196-1.994-6.4.13-2.867 1.692-.857 16.886 21.724 97.265 128.04 103.472 137.55 1.97 3.014 1.108 6.58-.354 8.9zm50.33-129.887c-1.3-1.338-3.436-1.37-4.772-.07L148.98 58.643l-4.528 4.587-6.365-6.37 26.897-26.098c1.338-1.298 1.37-3.436.07-4.773s-3.434-1.37-4.772-.07l-26.97 26.167-5.992-5.997 27.058-26.254c1.338-1.3 1.37-3.436.072-4.772s-3.436-1.37-4.772-.072l-27.13 26.323-5.837-5.842 29.32-28.45a3.37 3.37 0 0 0 .07-4.77c-1.3-1.335-3.434-1.37-4.77-.072L107.6 34.918c-8.623 8.366-7.957 20.653 1.438 31.985l-19.2 18.9c-1.338 1.298-1.37 3.435-.072 4.77a3.37 3.37 0 0 0 4.773.073l19.203-18.914c3.78 3.148 8.25 5.23 12.947 6a24.3 24.3 0 0 0 1.826.236c6.13.57 11.745-1.144 15.412-4.702 2.342-2.27 5.657-5.635 9.856-9.894l23-22.95a3.38 3.38 0 0 0 .073-4.775zm-37.63 32.775c-2.217 2.15-5.987 3.206-10.087 2.824-4.737-.44-9.3-2.684-12.812-6.314-6.9-7.112-11.598-17.28-4.45-24.758L139.67 68l-.444.433zM74.6 116.55c-1.394-1.24-3.527-1.113-4.765.28-13.58 15.28-38.227 42.276-46.543 49.652-4.134 3.667-10.646 2.188-14.133-1.496-3.647-3.852-3.097-8.73 1.5-13.388 11.695-11.82 28.924-25.353 41.92-35.153 1.488-1.122 1.785-3.238.663-4.727s-3.238-1.785-4.727-.663c-13.162 9.926-30.65 23.663-42.653 35.795-8.742 8.837-6.332 17.792-1.612 22.776 2.667 2.815 6.444 4.84 10.456 5.507 4.464.74 9.22-.2 13.057-3.604 9.6-8.523 37.266-39.142 47.1-50.22a3.37 3.37 0 0 0-.281-4.761z"/></svg>