<svg xmlns="http://www.w3.org/2000/svg" viewBox="0 0 512 512"><circle cx="91" cy="285" r="15"/><circle cx="151" cy="285" r="15"/><circle cx="211" cy="285" r="15"/><path d="M451 30H301c-19.555 0-36.228 12.542-42.42 30H166V45c0-24.813-20.187-45-45-45S76 20.187 76 45v15H61c-24.813 0-45 20.187-45 45v240c0 24.813 20.187 45 45 45h135v33.5c-34.192 6.968-60 37.27-60 73.5 0 8.284 6.716 15 15 15h180c8.284 0 15-6.716 15-15 0-36.22-25.808-66.522-60-73.5V390h135c24.813 0 45-20.187 45-45v-77.58c17.46-6.192 30-22.865 30-42.42V75c0-24.813-20.187-45-45-45zM106 45a15.02 15.02 0 0 1 15-15 15.02 15.02 0 0 1 15 15v15h-30V45zm207.43 437H168.57c6.2-17.46 22.874-30 42.43-30h60c19.557 0 36.24 12.54 42.43 30zM226 422v-32h30v32h-30zm210-77a15.02 15.02 0 0 1-15 15H61a15.02 15.02 0 0 1-15-15V105a15.02 15.02 0 0 1 15-15h195v135c0 24.813 20.187 45 45 45h135v75zm30-120a15.02 15.02 0 0 1-15 15H301a15.02 15.02 0 0 1-15-15V75a15.02 15.02 0 0 1 15-15h150a15.02 15.02 0 0 1 15 15v150zM376 90c-33.084 0-60 26.916-60 60s26.916 60 60 60 60-26.916 60-60-26.916-60-60-60zm0 90c-16.542 0-30-13.458-30-30s13.458-30 30-30 30 13.458 30 30-13.458 30-30 30zm-165-60H91c-8.284 0-15 6.716-15 15v90c0 8.284 6.716 15 15 15h120c8.284 0 15-6.716 15-15v-90c0-8.284-6.716-15-15-15zm-15 90h-90v-60h90v60z"/></svg>