<svg xmlns="http://www.w3.org/2000/svg" viewBox="0 0 480.004 480.004"><path d="M456.064 280.004h-24v-16h24a8 8 0 1 0 0-16h-24v-8a8 8 0 0 0-8-8h-56a8 8 0 0 0-8 8v24.576c-29.016 3.8-48 28.288-48 63.424v116c0 6.627-5.373 12-12 12s-12-5.373-12-12v-152c0-15.464-12.536-28-28-28s-28 12.536-28 28v132c-.026 22.08-17.92 39.974-40 40h-8c-19-.024-35.373-13.4-39.2-32h47.2a8 8 0 0 0 8.007-7.993 8.22 8.22 0 0 0-.007-.351l-7.752-178.4c44.865-18.86 75.512-61.112 79.504-109.616l145.392-6.92c12.806-.6 22.87-11.18 22.856-24V31.556c.07-13.02-10.304-23.695-23.32-24L148.528.004c-57.64-.44-108.944 36.46-126.864 91.248-21.6 70.64 21.168 130.84 73.92 153.92l-6.96 80.072c-.354.878-.543 1.814-.56 2.76a6.94 6.94 0 0 0 .224 1.096l-8.224 94.208c-.384 4.402 2.872 8.28 7.274 8.666a8.01 8.01 0 0 0 .726.03h40.64c3.992 27.517 27.555 47.947 55.36 48h8c30.913-.035 55.965-25.087 56-56v-132c0-6.627 5.373-12 12-12s12 5.373 12 12v152c0 15.464 12.536 28 28 28s28-12.536 28-28v-116c0-20 8.6-42.96 32-47.2v23.2a8 8 0 0 0 8 8h56a8 8 0 0 0 8-8v-8h24a8 8 0 1 0 0-16zm-88-257.8l48.232 1.36c4.34.1 7.795 3.66 7.768 8v73.192a8 8 0 0 1-7.616 8l-48.384 2.288v-92.84zm-271.27 393.8l1.392-16h37.88a8 8 0 1 0 0-16h-36.49l1.384-16h35.104a8 8 0 1 0 0-16h-33.712l1.392-16h32.32a8 8 0 1 0 0-16h-30.928l1.392-16h29.536a8 8 0 1 0 0-16H107.92l1.392-16h26.752a8 8 0 1 0 0-16h-25.36l1.36-15.304a8 8 0 0 0-5.112-8.168c-48.512-18.56-89.52-72.736-69.96-136.592 15.814-48.035 60.854-80.347 111.424-79.936l203.648 5.752v94.048l-88.376 4.2a8 8 0 0 0-7.624 8c-1.084 46.92-30.784 88.393-74.856 104.528a8 8 0 0 0-5.136 7.816l7.64 175.656h-86.92zm319.27-120h-40v-48h40v48zm-272-240c-39.765 0-72 32.235-72 72s32.235 72 72 72 72-32.236 72-72c-.044-39.746-32.253-71.956-72-72zm0 128c-30.928 0-56-25.072-56-56s25.072-56 56-56 56 25.072 56 56c-.035 30.913-25.086 55.965-56 56z"/></svg>