<svg xmlns="http://www.w3.org/2000/svg" viewBox="0 0 470 470"><path d="M235 150c-20.678 0-37.5 16.822-37.5 37.5S214.322 225 235 225s37.5-16.822 37.5-37.5S255.678 150 235 150zm0 60c-12.407 0-22.5-10.093-22.5-22.5S222.593 165 235 165s22.5 10.093 22.5 22.5S247.407 210 235 210z"/><circle cx="385" cy="37.5" r="7.5"/><circle cx="85" cy="37.5" r="7.5"/><circle cx="385" cy="432.5" r="7.5"/><circle cx="85" cy="432.5" r="7.5"/><path d="M415 0H55a7.5 7.5 0 0 0-7.5 7.5v455A7.5 7.5 0 0 0 55 470h360a7.5 7.5 0 0 0 7.5-7.5V7.5A7.5 7.5 0 0 0 415 0zM222.5 455h-160V295h18.88c12.146 17.343 26.923 32.306 44.042 44.634l-3.3 2.7c-14.62 14.62-14.62 38.412 0 53.033 7.082 7.082 16.5 10.982 26.516 10.983s19.435-3.9 26.517-10.983c.214-.214.54-.543 19.864-24.677a188.16 188.16 0 0 0 27.481 3.877V455zm65.302-225.303c-3.304-3.304-7.696-5.124-12.368-5.124-3.953 0-7.827 1.355-10.912 3.817l-102.225 81.688C119.12 284.427 92.5 237.913 92.5 187.5 92.5 108.925 156.425 45 235 45s142.5 63.925 142.5 142.5S313.575 330 235 330c-2.413 0-4.837-.084-7.26-.208l61.373-76.817a17.48 17.48 0 0 0-1.309-23.278zM167.63 325.022c.022-.017.044-.035.065-.052l106.185-84.857c.558-.446 1.153-.54 1.553-.54.385 0 1.126.095 1.762.73a2.49 2.49 0 0 1 .192 3.313L164.332 384.984a22.34 22.34 0 0 1-15.691 6.376 22.32 22.32 0 0 1-15.913-6.6c-8.7-8.7-8.772-22.814-.213-31.604l35.116-28.144zM407.5 455h-170v-87.58a7.5 7.5 0 0 0-7.295-7.497c-8.248-.225-16.48-1.056-24.6-2.45l10.862-13.58c6.157.724 12.37 1.1 18.532 1.1 86.846 0 157.5-70.654 157.5-157.5S321.846 30 235 30 77.5 100.654 77.5 187.5c0 53.838 27.468 103.65 72.37 132.523l-12.275 9.832c-18.224-12.478-33.695-28.105-46.028-46.527A7.5 7.5 0 0 0 85.335 280H62.5V15h345v440zM355 425h-95a7.5 7.5 0 1 0 0 15h95a7.5 7.5 0 1 0 0-15z"/></svg>