<svg xmlns="http://www.w3.org/2000/svg" viewBox="0 0 512 512"><path d="M384.004 128h-10.656V0h-234.68v128h-10.664c-5.867 0-10.664 4.797-10.664 10.664V288c0 5.875 2.664 14.656 5.914 19.53l30.836 46.25c3.25 4.9 5.914 13.688 5.914 19.563v21.313c0 5.875 4.797 10.688 10.664 10.688h21.336V512h128V405.344h21.344c5.86 0 10.656-4.813 10.656-10.688v-21.313c0-5.875 2.656-14.672 5.906-19.563l30.844-46.25c3.25-4.875 5.906-13.656 5.906-19.53V138.664c0-5.867-4.78-10.664-10.656-10.664zM341.348 21.336h10.656V128h-10.656V21.336zm-149.344 0h128V128h-128V21.336zm-32 0h10.664V128h-10.664V21.336zm138.656 469.32h-85.32v-85.313h85.32v85.313zm32-117.312V384H181.34v-10.672c0-3.328-.438-6.984-1.2-10.672h151.75c-.78 3.688-1.22 7.344-1.22 10.688zm42.688-85.375c-.063 1.812-1.4 6.234-2.344 7.75l-30.406 45.625h-169.18L141.02 295.72c-.97-1.516-2.305-5.938-2.352-7.72V149.336h234.68V287.97zM234.668 64H213.34c-5.89 0-10.672 4.773-10.672 10.664a10.68 10.68 0 0 0 10.672 10.672h21.328a10.68 10.68 0 0 0 10.672-10.672c0-5.89-4.78-10.664-10.672-10.664zm63.992 0h-21.313c-5.898 0-10.68 4.773-10.68 10.664a10.68 10.68 0 0 0 10.68 10.672h21.313c5.906 0 10.688-4.78 10.688-10.672S304.566 64 298.66 64zm10.688 170.664h-106.68c-5.9 0-10.664 4.78-10.664 10.672S196.777 256 202.668 256h106.68a10.67 10.67 0 0 0 10.656-10.664c0-5.9-4.78-10.672-10.656-10.672zm0 42.68h-106.68A10.66 10.66 0 0 0 192.004 288a10.66 10.66 0 0 0 10.664 10.656h106.68c5.875 0 10.656-4.766 10.656-10.656a10.66 10.66 0 0 0-10.656-10.656z"/></svg>