<?xml version="1.0" encoding="UTF-8"?>
<svg width="43px" height="31px" viewBox="0 0 43 31" version="1.1" xmlns="http://www.w3.org/2000/svg" xmlns:xlink="http://www.w3.org/1999/xlink">
    <!-- Generator: Sketch 63.1 (92452) - https://sketch.com -->
    <title>ico cyfrowa tv</title>
    <desc>Created with Sketch.</desc>
    <g id="Page-1" stroke="none" stroke-width="1" fill="none" fill-rule="evenodd">
        <g id="telewizja-cyfrowa-ico" transform="translate(-1012.000000, -555.000000)" fill="#000000">
            <g id="ico-cyfrowa-tv" transform="translate(1011.000000, 555.000000)">
                <g id="technology" transform="translate(8.690476, 8.148936)" fill-rule="nonzero">
                    <path d="M1.6141637,0.85106383 C0.894786717,0.85106383 0.30952381,1.42570603 0.30952381,2.13197018 L0.30952381,17.576508 C0.30952381,18.2828305 1.03842268,18.9463019 1.75779967,18.9463019 L13.8267652,18.9463019 L13.8267652,20.8510638 L20.545353,20.8510638 C20.7916449,20.8510638 20.9912109,20.6550609 20.9912109,20.4132968 C20.9912109,20.1715326 20.8316778,19.8986829 20.5853859,19.8986829 L18.6543514,19.8986829 L18.1715928,18.9463019 L26.8612479,18.9463019 C27.5806249,18.9463019 28.3095238,18.2827722 28.3095238,17.576508 L28.3095238,0.85106383 L1.6141637,0.85106383 Z M16.7203486,19.8986829 L13.8267652,19.8986829 L13.8267652,18.9463019 L16.3176397,18.9463019 L16.7203486,19.8986829 Z M18.6543514,1.80344478 L18.6543514,0.85106383 L28.3095238,0.85106383 L28.3095238,9.4224924 L27.3440066,9.4224924 L27.3440066,17.5901677 C27.3440066,17.8128279 27.1598686,17.993921 26.9334647,17.993921 L13.8267652,17.993921 L13.8267652,18.9463019 L1.75779966,18.9463019 L1.75779966,18.9463019 C0.969500311,18.9463019 0.503005615,18.6288756 0.358315557,17.9940229 L0.309523812,17.993921 L0.309523812,15.1367781 L1.27504105,15.1367781 L1.27504105,2.20725617 C1.27504105,1.98459599 1.4592381,1.80344478 1.68564204,1.80344478 L18.6543514,1.80344478 Z" id="Shape"></path>
                    <path d="M26.0278337,2.85106383 L2.59121395,2.85106383 C2.43566465,2.85106383 2.30952381,2.97002714 2.30952381,3.11672554 L2.30952381,16.5854021 C2.30952381,16.7321005 2.43566465,16.8510638 2.59121395,16.8510638 L26.0278337,16.8510638 C26.1834393,16.8510638 26.3095238,16.7321005 26.3095238,16.5854021 L26.3095238,3.11672554 C26.3095238,2.96997401 26.1834393,2.85106383 26.0278337,2.85106383 Z M25.3495238,15.9177305 L3.26952381,15.9177305 L3.26952381,3.78439716 L25.3495238,3.78439716 L25.3495238,15.9177305 Z M2.30952381,15.9177305 L13.8295238,15.9177305 L13.8295238,16.8510638 L2.30952381,16.8510638 L2.30952381,15.9177305 Z M3.26952381,14.9843972 L3.26952381,15.9177305 L2.30952381,15.9177305 L2.30952381,14.9843972 L3.26952381,14.9843972 Z M19.5895238,3.78439716 L19.5895238,2.85106383 L26.3095238,2.85106383 L26.3095238,8.45106383 L25.3495238,8.45106383 L25.3495238,3.78439716 L19.5895238,3.78439716 Z" id="Shape"></path>
                </g>
                <g id="technology-(1)" transform="translate(0.021277, 23.884498)">
                    <path d="M20.5817105,0.11550152 L15.6558902,0.11550152 L11.9745596,0.11550152 L10.9826609,0.11550152 L7.30133033,0.11550152 L2.3757363,0.11550152 C1.60542628,0.11550152 0.978723404,0.710389104 0.978723404,1.44159346 L0.978723404,4.78945254 C0.978723404,5.5206569 1.60542628,6.11550152 2.3757363,6.11550152 L20.5817558,6.11550152 C21.3520658,6.11550152 21.9787234,5.52061394 21.9787234,4.78945254 L21.9787234,1.44159346 C21.9787234,0.710389104 21.3520205,0.11550152 20.5817105,0.11550152 Z M2.67336966,5.11550152 C2.29034451,5.11550152 1.9787234,4.85586027 1.9787234,4.53676197 L1.9787234,1.69424107 C1.9787234,1.37510629 2.29034451,1.11550152 2.67336966,1.11550152 L20.2841209,1.11550152 C20.6671461,1.11550152 20.9787234,1.37514277 20.9787234,1.69424107 L20.9787234,4.53676197 C20.9787234,4.85589674 20.6671461,5.11550152 20.2841209,5.11550152 L2.67336966,5.11550152 Z" id="Shape" fill-rule="nonzero"></path>
                    <circle id="Oval-Copy" cx="18.9787234" cy="3.11550152" r="1"></circle>
                    <rect id="Rectangle" x="2.9787234" y="2.11550152" width="8" height="1" rx="0.5"></rect>
                    <rect id="Rectangle-Copy-3" x="11.9787234" y="2.11550152" width="2" height="1" rx="0.5"></rect>
                    <path d="M18.9787234,7.11550152 L17.9787234,7.11550152 C17.4264387,7.11550152 16.9787234,6.66778627 16.9787234,6.11550152 C16.9787234,5.56321677 17.4264387,5.11550152 17.9787234,5.11550152 L17.9787234,6.11550152 L19.9787234,6.11550152 L19.9787234,6.11550152 C19.9787234,6.66778627 19.5310082,7.11550152 18.9787234,7.11550152 Z" id="Combined-Shape"></path>
                    <path d="M3.9787234,6.11550152 L4.9787234,6.11550152 L4.9787234,5.11550152 C5.53100815,5.11550152 5.9787234,5.56321677 5.9787234,6.11550152 C5.9787234,6.66778627 5.53100815,7.11550152 4.9787234,7.11550152 L3.9787234,7.11550152 C3.42643865,7.11550152 2.9787234,6.66778627 2.9787234,6.11550152 C2.9787234,5.56321677 3.42643865,5.11550152 3.9787234,5.11550152 L3.9787234,6.11550152 Z" id="Combined-Shape-Copy"></path>
                </g>
                <g id="antenna" transform="translate(39.425532, 4.574468) scale(-1, 1) translate(-39.425532, -4.574468) translate(34.851064, 0.000000)">
                    <path d="M9.03477288,8.48365865 L5.23972121,4.68863067 C5.08750348,4.53641389 4.84073491,4.53641389 4.68863138,4.68863067 C4.53641365,4.84084744 4.53641365,5.08761447 4.68863138,5.23971706 L8.48368305,9.03474504 C8.55984901,9.11091052 8.65942429,9.14893617 8.75922796,9.14893617 C8.85903163,9.14893617 8.9588353,9.11079633 9.03477288,9.03474504 C9.1869906,8.88252827 9.1869906,8.63587543 9.03477288,8.48365865 Z" id="Path" fill-rule="nonzero"></path>
                    <circle id="Oval" cx="4.57446809" cy="4.57446809" r="1"></circle>
                    <path d="M3.65005805,1.98803497 C3.61436136,1.87055363 3.48806527,1.80420205 3.36859063,1.83906916 C2.62823197,2.05698857 2.04172009,2.64693221 1.83787145,3.3789463 C1.80489009,3.49720824 1.87581988,3.61930816 1.99608926,3.65170335 C2.01595754,3.6570375 2.03609074,3.65957447 2.0558928,3.65957447 C2.15523425,3.65957447 2.24623101,3.59471905 2.2737817,3.49603733 C2.43690035,2.91064723 2.90618933,2.43877038 3.49833055,2.2644999 C3.61793765,2.22930754 3.68575474,2.1055163 3.65005805,1.98803497 Z" id="Path" fill-rule="nonzero"></path>
                    <path d="M3.65144588,0.210236042 C3.61438862,0.0621669589 3.46237989,-0.0280815919 3.312261,0.00790461342 C1.67500375,0.403186796 0.377588714,1.70427007 0.00693391765,3.32275976 C-0.0271653376,3.47155665 0.0678195758,3.6192214 0.219006635,3.65278157 C0.239630522,3.65731017 0.260336576,3.65957447 0.280878296,3.65957447 C0.409058629,3.65957447 0.524749596,3.57247976 0.554165339,3.44414244 C0.878231514,2.02822678 2.01344913,0.889930548 3.44586435,0.544220374 C3.59614757,0.507829829 3.68833881,0.358305125 3.65144588,0.210236042 Z" id="Path" fill-rule="nonzero"></path>
                </g>
                <g id="satellite-tv" transform="translate(24.787234, 1.829787)" fill-rule="nonzero">
                    <path d="M16.1386103,10.6509748 C15.9564532,10.6510634 15.8090052,10.7998478 15.8090931,10.9833145 C15.8094446,11.7228068 15.6072089,12.3018211 15.2080098,12.7044114 C14.5118938,13.4057221 13.2766436,13.5052513 11.7292749,12.9852812 C10.1045794,12.4392661 8.36099409,11.2828764 6.81977629,9.72907885 C5.27855849,8.17528126 4.13148719,6.41750871 3.58993667,4.77950778 C3.07400062,3.21911035 3.17289972,1.97364496 3.86840066,1.27246716 C4.56385768,0.571333664 5.79923959,0.471627334 7.34700379,0.99173028 C8.97174322,1.53774536 10.7153285,2.69413504 12.2565024,4.24793262 C13.4639412,5.46522688 14.4350064,6.81451797 15.0646918,8.14998925 C15.1428093,8.31573829 15.7380052,8.0304391 15.6598877,7.86473436 C14.9982611,6.46153718 13.9825573,5.0483738 12.7225715,3.77810364 C11.1103976,2.15277086 9.27529445,0.939374491 7.55539046,0.361423269 C5.7585552,-0.242440082 4.28363626,-0.0857713611 3.40237549,0.802638177 L3.09170668,1.11584274 C1.97341321,2.24326398 1.58032117,3.95271152 1.98488041,5.92929762 C2.37920265,7.85556545 3.48936803,9.81682574 5.11103195,11.4517261 C7.45561266,13.8153995 9.74211047,14.4733018 11.2473889,14.6089308 C11.4660565,14.6286417 11.6837136,14.6382979 11.8986906,14.6382979 C13.3305966,14.6382979 14.6455899,14.2110799 15.3632344,13.4875779 L15.6735077,13.1747276 C16.1938813,12.6500624 16.4685229,11.8923209 16.4680856,10.9830487 C16.4680856,10.799582 16.3205477,10.6509748 16.1386103,10.6509748 Z M2.61799277,3.31677914 C2.65274585,3.83280702 2.76763751,4.39348349 2.96468879,4.98959535 C3.53800476,6.7235376 4.74153334,8.57357505 6.35370718,10.1988635 C7.96588101,11.8241963 9.80094027,13.0375927 11.5208443,13.6155882 C11.9495242,13.7596331 12.3596632,13.8600481 12.7480102,13.9179407 C12.3089615,13.9782251 11.8246152,13.993861 11.306043,13.9471306 C9.90946127,13.8212464 7.78183468,13.2046263 5.57705713,10.9818971 C3.1783038,8.56356456 2.08694287,5.51939873 2.61799277,3.31677914 Z M12.0886144,3.99225631 C11.2551963,3.39921146 10.6109215,2.18750679 12.2777577,3.37359649 C13.3889818,4.16432295 14.1593521,4.96358774 14.5888687,5.77139086 L14.5888687,5.77139086 L13.7810655,6.20090739 C13.2083768,5.12383657 12.6442264,4.38761954 12.0886144,3.99225631 Z" id="Shape"></path>
                    <path d="M15.0957447,8.23404255 C15.4007092,8.84397163 15.5531915,9.75886525 15.5531915,10.9787234 L16.4680851,10.9787234 C16.4680851,10.0638298 16.1631206,8.9964539 15.5531915,7.77659574 C14.6382979,5.94680851 14.6382979,7.31914894 15.0957447,8.23404255 Z" id="Path-3"></path>
                </g>
            </g>
        </g>
    </g>
</svg>