<?xml version="1.0" encoding="UTF-8"?>
<svg width="27px" height="24px" viewBox="0 0 27 24" version="1.1" xmlns="http://www.w3.org/2000/svg" xmlns:xlink="http://www.w3.org/1999/xlink">
    <!-- Generator: Sketch 63.1 (92452) - https://sketch.com -->
    <title>ico_cyfrowe_dodatki</title>
    <desc>Created with Sketch.</desc>
    <defs>
        <path d="M16.6303686,2.5356918 L16.8818174,23.2552829 L25,23 L28,23 C27.9499179,10.0042324 27.7832513,3.33756572 27.5,3 C27.2167487,2.66243428 23.5935383,2.50766488 16.6303686,2.5356918 Z" id="path-1"></path>
    </defs>
    <g id="Page-1" stroke="none" stroke-width="1" fill="none" fill-rule="evenodd">
        <g id="cyfrowe_dodatki_ico" transform="translate(-1021.000000, -562.000000)">
            <g id="ico_cyfrowe_dodatki" transform="translate(1021.000000, 562.000000)">
                <mask id="mask-2" fill="white">
                    <use xlink:href="#path-1"></use>
                </mask>
                <use id="Path-2" fill-opacity="0" fill="#F7F7F7" xlink:href="#path-1"></use>
                <rect id="Rectangle" stroke="#000000" mask="url(#mask-2)" x="14.5" y="4.5" width="12" height="17" rx="2"></rect>
                <path d="M20.3511905,13.3791209 L20.3511905,12.845696 L18.9180403,12.845696 L19.6758242,12.0467033 C19.8833944,11.8192918 20.0299145,11.620116 20.1153846,11.4491758 C20.2008547,11.2782357 20.2435897,11.110348 20.2435897,10.9455128 C20.2435897,10.6448413 20.1485806,10.4120879 19.9585623,10.2472527 C19.768544,10.0824176 19.5018315,10 19.1584249,10 C18.9340659,10 18.7333639,10.0476954 18.5563187,10.1430861 C18.3792735,10.2384768 18.2422924,10.370116 18.1453755,10.5380037 C18.0484585,10.7058913 18,10.8913309 18,11.0943223 L18,11.0943223 L18.6639194,11.0943223 C18.6639194,10.9264347 18.707036,10.7909799 18.7932692,10.6879579 C18.8795024,10.5849359 18.9974054,10.5334249 19.146978,10.5334249 C19.2858669,10.5334249 19.3927045,10.5757784 19.4674908,10.6604853 C19.5422772,10.7451923 19.5796703,10.861569 19.5796703,11.0096154 C19.5796703,11.1179792 19.544185,11.2324481 19.4732143,11.353022 C19.4022436,11.4735958 19.292735,11.6147741 19.1446886,11.7765568 L19.1446886,11.7765568 L18.0663919,12.9258242 L18.0663919,13.3791209 L20.3511905,13.3791209 Z M21.8759158,13.4249084 C22.2437424,13.4249084 22.5230464,13.3028083 22.7138278,13.0586081 C22.9046093,12.8144078 23,12.4618437 23,12.0009158 L23,12.0009158 L23,11.3873626 C22.9954212,10.9401709 22.896978,10.5971459 22.7046703,10.3582875 C22.5123626,10.1194292 22.2345849,10 21.871337,10 C21.5080891,10 21.2299298,10.1205739 21.036859,10.3617216 C20.8437882,10.6028694 20.7472527,10.9561966 20.7472527,11.4217033 L20.7472527,11.4217033 L20.7472527,12.0352564 C20.7518315,12.4824481 20.8502747,12.8258547 21.0425824,13.0654762 C21.2348901,13.3050977 21.5126679,13.4249084 21.8759158,13.4249084 Z M21.8759158,12.8914835 C21.7126068,12.8914835 21.5939408,12.8254731 21.5199176,12.6934524 C21.4458944,12.5614316 21.4088828,12.3595849 21.4088828,12.0879121 L21.4088828,12.0879121 L21.4088828,11.2774725 C21.4134615,11.0225885 21.4527625,10.8352411 21.5267857,10.7154304 C21.6008089,10.5956197 21.7156593,10.5357143 21.871337,10.5357143 C22.0315934,10.5357143 22.1494963,10.5986722 22.2250458,10.7245879 C22.3005952,10.8505037 22.33837,11.0515873 22.33837,11.3278388 L22.33837,11.3278388 L22.33837,12.1199634 C22.3353175,12.3809524 22.2979243,12.5747863 22.2261905,12.7014652 C22.1544567,12.8281441 22.0376984,12.8914835 21.8759158,12.8914835 Z" id="20" fill="#000000" fill-rule="nonzero" mask="url(#mask-2)"></path>
                <path d="M19.9286432,16.333853 C19.9286432,16.333853 19.9286432,16.333853 19.9286432,16.333853 C19.9286432,16.333853 19.9286432,16.333853 19.9286432,16.333853 C19.134078,15.5392878 18.9315418,15.7106646 18.9315418,15.7106646 L18.9315418,15.7106646 C18.4953099,16.1313168 18.2304548,16.7233458 18.2304548,17.3776936 C18.2304548,17.9074037 18.4018316,18.4059545 18.7134258,18.7954472 C18.7134258,18.7954472 18.7290056,18.7954472 18.7290056,18.7954472 C18.7290056,18.7954472 18.7290056,18.7954472 18.7290056,18.7798675 C18.542049,18.2345776 19.4612519,16.8947226 19.9286432,16.333853 Z" id="Path" fill="#000000" fill-rule="nonzero" mask="url(#mask-2)"></path>
                <path d="M22.2032809,15.7106646 L22.2032809,15.7106646 C22.2032809,15.7106646 22.0007447,15.5392878 21.2061795,16.3182733 C21.2061795,16.3182733 21.2061795,16.3182733 21.2061795,16.3182733 C21.2061795,16.3182733 21.2061795,16.3182733 21.2061795,16.3182733 C21.6735708,16.8791429 22.5927737,18.2189979 22.4058172,18.7642878 C22.4058172,18.7642878 22.4058172,18.7798675 22.4058172,18.7798675 C22.4058172,18.7798675 22.4213969,18.7798675 22.4213969,18.7798675 C22.7174114,18.3903748 22.9043679,17.891824 22.9043679,17.3621139 C22.9043679,16.7233458 22.6395128,16.1313168 22.2032809,15.7106646 Z" id="Path" fill="#000000" fill-rule="nonzero" mask="url(#mask-2)"></path>
                <path d="M20.5674114,15.7262443 C20.5674114,15.7262443 20.5674114,15.7262443 20.5674114,15.7262443 C20.5674114,15.7262443 20.5674114,15.7262443 20.5674114,15.7262443 C20.6453099,15.6950849 21.3308172,15.2900124 21.7826287,15.3990704 C21.7826287,15.3990704 21.7982085,15.3990704 21.7982085,15.3990704 C21.7982085,15.3990704 21.7982085,15.3834907 21.7982085,15.3834907 C21.4242954,15.1653748 21.0348027,15.0407371 20.5674114,15.0407371 C20.1000201,15.0407371 19.7105273,15.1653748 19.352194,15.3834907 C19.352194,15.3834907 19.352194,15.3834907 19.352194,15.3990704 C19.352194,15.3990704 19.352194,15.3990704 19.3677737,15.3990704 C19.7572664,15.3055921 20.3960345,15.6327661 20.5674114,15.7262443 Z" id="Path" fill="#000000" fill-rule="nonzero" mask="url(#mask-2)"></path>
                <path d="M20.5674114,16.925882 C20.5674114,16.9103023 20.5674114,16.9103023 20.5674114,16.925882 C20.5674114,16.9103023 20.5674114,16.9103023 20.5674114,16.925882 C19.8507447,17.4555921 18.651107,18.7798675 19.0250201,19.1382008 C19.4456722,19.4965342 19.9753824,19.7146501 20.5674114,19.7146501 C21.1594403,19.7146501 21.6891505,19.4965342 22.1098027,19.1382008 L22.1098027,19.1382008 C22.468136,18.7642878 21.2684983,17.4555921 20.5674114,16.925882 Z" id="Path" fill="#000000" fill-rule="nonzero" mask="url(#mask-2)"></path>
                <path d="M20.5,6 C20.7761424,6 21,6.33578644 21,6.75 C21,6.83811452 20.9898698,6.92267999 20.971261,7.00121893 L22.5,7 C22.7761424,7 23,7.22385763 23,7.5 C23,7.77614237 22.7761424,8 22.5,8 L18.5,8 C18.2238576,8 18,7.77614237 18,7.5 C18,7.22385763 18.2238576,7 18.5,7 L20.028739,7.00121893 C20.0101302,6.92267999 20,6.83811452 20,6.75 C20,6.33578644 20.2238576,6 20.5,6 Z" id="Path" fill="#000000" mask="url(#mask-2)"></path>
                <rect id="Rectangle" stroke="#000000" x="0.5" y="1.45072687" width="15" height="22" rx="2"></rect>
                <path d="M6.35893883,12.6236765 C6.6364233,12.6236765 6.87715486,12.5671689 7.08113351,12.4541537 C7.28511215,12.3411385 7.44177143,12.1821821 7.55111134,11.9772847 C7.66045124,11.7723872 7.7151212,11.5403844 7.7151212,11.2812764 C7.7151212,10.8549427 7.60670011,10.5232477 7.38985795,10.2861914 C7.17301578,10.0491351 6.87347957,9.93060701 6.49124931,9.93060701 C6.27808243,9.93060701 6.07686025,9.98114226 5.88758277,10.0822128 L5.88758277,10.0822128 L5.98681562,9.21943821 L7.58281072,9.21943821 L7.58281072,8.55512936 L5.33353265,8.55512936 L5.10198932,10.5949158 L5.73597701,10.7520345 L5.81315813,10.6803664 C5.93076744,10.5811335 6.08421083,10.5315171 6.27348832,10.5315171 C6.47930461,10.5315171 6.63826095,10.5921594 6.75035732,10.713444 C6.86245369,10.8347286 6.91850188,11.0093049 6.91850188,11.2371729 C6.91850188,11.4742292 6.86980428,11.6575343 6.77240907,11.7870884 C6.67501386,11.9166424 6.53627162,11.9814194 6.35618236,11.9814194 C6.19446956,11.9814194 6.06353732,11.9350188 5.96338564,11.8422177 C5.86323396,11.7494166 5.80488872,11.6194032 5.78834991,11.4521775 L5.78834991,11.4521775 L5,11.4521775 C5.00735058,11.6800455 5.07120876,11.8831053 5.19157454,12.0613569 C5.31194032,12.2396086 5.47595018,12.3778914 5.68360412,12.4762054 C5.89125806,12.5745194 6.11636963,12.6236765 6.35893883,12.6236765 Z M9.9465741,12.6236765 C10.3894467,12.6236765 10.7257358,12.4766648 10.9554415,12.1826415 C11.1851472,11.8886183 11.3,11.4641222 11.3,10.9091532 L11.3,10.9091532 L11.3,10.1704197 C11.2944871,9.63198962 11.1759589,9.21897879 10.9444156,8.93138728 C10.7128723,8.64379576 10.3784208,8.5 9.94106117,8.5 C9.50370154,8.5 9.16879065,8.64517399 8.9363285,8.93552198 C8.70386635,9.22586996 8.58763527,9.65128489 8.58763527,10.2117668 L8.58763527,10.2117668 L8.58763527,10.9505002 C8.59314821,11.4889304 8.71167634,11.9024006 8.94321967,12.1909109 C9.174763,12.4794213 9.50921448,12.6236765 9.9465741,12.6236765 Z M9.9465741,11.9814194 C9.74994604,11.9814194 9.6070691,11.9019412 9.5179433,11.7429849 C9.42881749,11.5840285 9.38425459,11.3409999 9.38425459,11.013899 L9.38425459,11.013899 L9.38425459,10.0381093 C9.38976752,9.73122247 9.43708689,9.50565149 9.5262127,9.36139632 C9.61533851,9.21714115 9.75362133,9.14501356 9.94106117,9.14501356 C10.1340139,9.14501356 10.2759721,9.22081644 10.3669355,9.37242219 C10.457899,9.52402794 10.5033807,9.76613774 10.5033807,10.0987516 L10.5033807,10.0987516 L10.5033807,11.0524896 C10.4997054,11.3667269 10.4546831,11.6001079 10.3683137,11.7526325 C10.2819444,11.9051571 10.1413645,11.9814194 9.9465741,11.9814194 Z" id="50" fill="#000000" fill-rule="nonzero"></path>
                <path d="M12.1754955,19.9422786 C12.005786,20.1563891 11.5899977,20.3091277 11.5899977,20.3091277 C11.5899977,20.3091277 8.49694147,21.4201333 8.49694147,21.4201333 C8.49694147,21.4201333 8.49694147,20.6007915 8.49694147,20.6007915 C8.49694147,20.6007915 10.7732206,19.7897375 10.7732206,19.7897375 C11.0315344,19.6971868 11.071199,19.5663524 10.8612329,19.4976792 C10.6516613,19.4288085 10.272183,19.4485425 10.0136718,19.5414881 C10.0136718,19.5414881 8.49694147,20.0756786 8.49694147,20.0756786 C8.49694147,20.0756786 8.49694147,19.2253545 8.49694147,19.2253545 C8.49694147,19.2253545 8.58436184,19.1957539 8.58436184,19.1957539 C8.58436184,19.1957539 9.02264671,19.0406473 9.6389294,18.9723689 C10.2552121,18.904485 11.0098272,18.9816437 11.6022324,19.2062128 C12.2698224,19.4171658 12.3450077,19.7281687 12.1754955,19.9422786 Z M8.79136831,18.5471082 C8.79136831,18.5471082 8.79136831,16.4517869 8.79136831,16.4517869 C8.79136831,16.2057081 8.74598064,15.9791656 8.51509671,15.9150311 C8.33828317,15.8583954 8.22856364,16.0225795 8.22856364,16.268461 C8.22856364,16.268461 8.22856364,21.5156445 8.22856364,21.5156445 C8.22856364,21.5156445 6.81346232,21.0665062 6.81346232,21.0665062 C6.81346232,21.0665062 6.81346232,14.8101427 6.81346232,14.8101427 C7.41514188,14.9218354 8.29171121,15.1858719 8.7629516,15.3447281 C9.96137761,15.7561749 10.3676938,16.2682639 10.3676938,17.4220917 C10.3676938,18.5467136 9.67346324,18.9729608 8.79136831,18.5471082 L8.79136831,18.5471082 Z M4.2169056,20.5151473 C3.53155517,20.3221522 3.41749455,19.9199799 3.72987857,19.6883066 C4.01858225,19.4743937 4.50955597,19.3133668 4.50955597,19.3133668 C4.50955597,19.3133668 6.53857203,18.5919036 6.53857203,18.5919036 C6.53857203,18.5919036 6.53857203,19.4144032 6.53857203,19.4144032 C6.53857203,19.4144032 5.07847772,19.9369509 5.07847772,19.9369509 C4.82055865,20.0295016 4.78089394,20.1605334 4.99046555,20.2292066 C5.20023449,20.2978794 5.57991037,20.2783433 5.83822414,20.1855952 C5.83822414,20.1855952 6.53857203,19.9314252 6.53857203,19.9314252 C6.53857203,19.9314252 6.53857203,20.667294 6.53857203,20.667294 C6.49417149,20.6751874 6.44463987,20.6830807 6.39885773,20.690777 C5.69831239,20.8052324 4.95218224,20.757477 4.2169056,20.5151473 L4.2169056,20.5151473 Z M11.7247785,20.8409501 C11.8133828,20.8409501 11.8964613,20.8752869 11.959017,20.9386319 C12.0215731,21.0009901 12.0561069,21.0842666 12.0561069,21.1726733 C12.0561069,21.2614746 12.0215731,21.3443561 11.959017,21.4067148 C11.8964613,21.4696649 11.8133828,21.5040017 11.7247785,21.5040017 C11.6361743,21.5040017 11.5532927,21.4696649 11.4905396,21.4067148 C11.427984,21.3443561 11.3936476,21.2614746 11.3936476,21.1726733 C11.3936476,20.9899392 11.5420444,20.8409501 11.7247785,20.8409501 Z M11.4492963,21.1726733 C11.4492963,21.2462798 11.47791,21.315545 11.5300072,21.3672472 C11.5819065,21.4197389 11.651369,21.4481551 11.7247785,21.4481551 C11.8769248,21.4481551 12.0002603,21.3246226 12.0002603,21.1726733 C12.0002603,21.0988694 11.971844,21.0296043 11.9195499,20.9777046 C11.8676502,20.9252129 11.7981876,20.8969937 11.7247785,20.8969937 C11.651369,20.8969937 11.5819065,20.9252129 11.5300072,20.9777046 C11.47791,21.0296043 11.4492963,21.0988694 11.4492963,21.1726733 L11.4492963,21.1726733 Z M11.8248281,20.9940836 C11.8611381,21.0100677 11.8794904,21.0408521 11.8794904,21.084661 C11.8794904,21.1071576 11.8747541,21.1261018 11.865085,21.1409021 C11.8581781,21.151558 11.8483111,21.1602412 11.8372602,21.1677396 C11.8459429,21.1728708 11.8536392,21.1789879 11.8593623,21.1860923 C11.8672552,21.1963538 11.8717941,21.2127324 11.8723864,21.2350315 C11.8723864,21.2350315 11.8741635,21.282195 11.8741635,21.282195 C11.8747559,21.2948246 11.8755457,21.3044941 11.8775202,21.3104142 C11.8794948,21.3190969 11.8832429,21.3246226 11.8879787,21.3263988 C11.8879787,21.3263988 11.8929124,21.3287682 11.8929124,21.3287682 C11.8929124,21.3287682 11.8929124,21.3340964 11.8929124,21.3340964 C11.8929124,21.3340964 11.8929124,21.3421872 11.8929124,21.3421872 C11.8929124,21.3421872 11.8929124,21.3502802 11.8929124,21.3502802 C11.8929124,21.3502802 11.8848216,21.3502802 11.8848216,21.3502802 C11.8848216,21.3502802 11.8262124,21.3502802 11.8262124,21.3502802 C11.8262124,21.3502802 11.8214766,21.3502802 11.8214766,21.3502802 C11.8214766,21.3502802 11.8191072,21.3461359 11.8191072,21.3461359 C11.8171326,21.3421912 11.8157548,21.3376506 11.8143713,21.3317305 C11.8133841,21.3264023 11.8123968,21.3171277 11.8118044,21.3029193 C11.8118044,21.3029193 11.8088426,21.2443101 11.8088426,21.2443101 C11.8080528,21.2239846 11.8011463,21.211355 11.7881222,21.2046455 C11.7800314,21.2008983 11.7666125,21.1991203 11.7484577,21.1991203 C11.7484577,21.1991203 11.6480132,21.1991203 11.6480132,21.1991203 C11.6480132,21.1991203 11.6480132,21.3421894 11.6480132,21.3421894 C11.6480132,21.3421894 11.6480132,21.3502802 11.6480132,21.3502802 C11.6480132,21.3502802 11.639725,21.3502802 11.639725,21.3502802 C11.639725,21.3502802 11.5919692,21.3502802 11.5919692,21.3502802 C11.5919692,21.3502802 11.5838788,21.3502802 11.5838788,21.3502802 C11.5838788,21.3502802 11.5838788,21.3421894 11.5838788,21.3421894 C11.5838788,21.3421894 11.5838788,20.9895487 11.5838788,20.9895487 C11.5838788,20.9895487 11.5838788,20.9814579 11.5838788,20.9814579 C11.5838788,20.9814579 11.5919692,20.9814579 11.5919692,20.9814579 C11.5919692,20.9814579 11.7551667,20.9814579 11.7551667,20.9814579 C11.783189,20.9814579 11.8066719,20.9856001 11.8248267,20.9940871 L11.8248281,20.9940836 Z M11.6480145,21.1470842 C11.6480145,21.1470842 11.7502347,21.1470842 11.7502347,21.1470842 C11.7707577,21.1470842 11.7871367,21.1431739 11.7987795,21.1351548 C11.8094359,21.127133 11.8145666,21.1125296 11.8145666,21.0913446 C11.8145666,21.0683082 11.8072652,21.0532932 11.791873,21.0452719 C11.7833877,21.0409545 11.7715471,21.0384844 11.7565493,21.0384844 C11.7565493,21.0384844 11.6480145,21.0384844 11.6480145,21.0384844 C11.6480145,21.0384844 11.6480145,21.1470842 11.6480145,21.1470842 Z" id="path-1" fill="#000000"></path>
                <path d="M4.5,6 C4.22385763,6 4,5.77614237 4,5.5 C4,5.22385763 4.22385763,5 4.5,5 L7,5 C7,4.44771525 7.44771525,4 8,4 C8.51283584,4 8.93550716,4.38604019 8.99327227,4.88337887 L9,5 L11.5,5 C11.7761424,5 12,5.22385763 12,5.5 C12,5.77614237 11.7761424,6 11.5,6 L4.5,6 Z" id="Path" fill="#000000"></path>
            </g>
        </g>
    </g>
</svg>