<svg xmlns="http://www.w3.org/2000/svg" xmlns:xlink="http://www.w3.org/1999/xlink" viewBox="0 -78 511.998 511"><path d="M465.145 163.883a7.501 7.501 0 1 0-13.859 5.742l39.078 94.316c.7 1.7.156 3.13-.238 3.816s-1.312 1.87-3.13 2.13c-16.164 2.313-31.645 7.27-46.008 14.73-15.023 7.805-28.434 18.13-39.9 30.723H267.2a7.5 7.5 0 0 0-7.5 7.5c0 4.145 3.36 7.504 7.5 7.504h128.14c-2.652 5.57-8.34 9.434-14.9 9.434H31.512c-6.57 0-12.254-3.863-14.906-9.434h218.598c4.145 0 7.504-3.36 7.504-7.504a7.5 7.5 0 0 0-7.504-7.5H20.363l27.145-48.035a120.73 120.73 0 0 0 9.973.43 113.74 113.74 0 0 0 19.45-1.652c16.602-2.87 29.93-8.97 41.953-19.184a7.5 7.5 0 0 0-9.719-11.433c-9.9 8.406-20.945 13.438-34.793 15.836-6.062 1.05-12.3 1.523-18.62 1.418l2.156-3.816c47.348-83.793 132.8-139.38 228.55-148.695l101.828-9.898c8.336-.8 16.387 1.016 23.246 4.914a7.31 7.31 0 0 0 1.305.773c5.484 3.406 10.13 8.176 13.426 14.016.012.02.02.035.03.055.027.047.05.094.078.14-25.656-.06-51.355.8-76.586 2.52-42.277 2.887-74.086 7.527-100.098 14.602-23.95 6.508-43.922 15.422-62.848 28.055-26.152 17.434-40.96 36.523-54.027 53.363l-6.742 8.598c-2.6 3.234-2.07 7.957 1.164 10.547a7.5 7.5 0 0 0 10.543-1.164l6.9-8.78c12.363-15.937 26.38-34 50.5-50.082 17.777-11.867 35.805-19.902 58.457-26.055 25.035-6.8 55.914-11.293 97.184-14.1 27.035-1.86 54.63-2.668 82.1-2.437l6.93 16.723a7.51 7.51 0 0 0 9.805 4.06 7.5 7.5 0 0 0 4.059-9.801l-7.785-18.785 11.922-1.867c8.547-1.336 14.95-7.988 16.4-16.06l15.148-4.543C502.914 90.934 512 78.72 512 64.594c0-17.496-14.23-31.727-31.723-31.727h-92.023c-9.22 0-16.72-7.504-16.72-16.73V8a7.5 7.5 0 0 0-7.5-7.5c-4.145 0-7.504 3.36-7.504 7.5v8.137c0 17.496 14.23 31.73 31.723 31.73h92.023c9.22 0 16.72 7.504 16.72 16.727a16.62 16.62 0 0 1-11.918 16.023l-13.82 4.145c-4.137-6.3-11.703-9.98-19.62-8.742L417.5 81.368c-9.152-4.832-19.73-7.05-30.656-5.988L285 85.278C233.5 90.3 184.82 108.05 142.9 136v-9.848c0-4.937-2.766-9.336-7.223-11.47-4.45-2.133-9.602-1.54-13.437 1.543l-7.566 6.055a30.75 30.75 0 0 0-11.582 24.105v21.145a309.89 309.89 0 0 0-58.246 73.992L.977 319.148c-.707 1.25-1.027 2.695-.97 4.125 0 17.37 14.133 31.504 31.504 31.504h348.93c16.516 0 30.094-12.773 31.395-28.96 10.355-11.45 22.477-20.824 36.066-27.883 12.863-6.684 26.73-11.12 41.215-13.2a19.17 19.17 0 0 0 14.043-9.555 19.22 19.22 0 0 0 1.063-16.996zM453.957 90.84a4.79 4.79 0 0 1 3.57.863 4.71 4.71 0 0 1 1.9 3.137c.012.063.023.12.03.184l.023.12a1.44 1.44 0 0 0 .02.137 4.81 4.81 0 0 1-4.004 5.484l-15.848 2.48c-1.812-3.312-3.93-6.38-6.312-9.18zm-335.863 55.543a15.81 15.81 0 0 1 5.957-12.395l3.848-3.078v15.746a317.11 317.11 0 0 0-9.805 7.727zM405.84 196.53v-1.258c0-23.44-19.07-42.512-42.508-42.512H262.656c-23.44 0-42.512 19.07-42.512 42.512v1.258c0 23.438 19.07 42.508 42.512 42.508h100.676c23.438 0 42.508-19.07 42.508-42.508zm-119.258 27.504v-5.73a4.08 4.08 0 0 1 4.078-4.074h44.363a4.08 4.08 0 0 1 4.074 4.074v5.73zm104.254-27.504c0 15.164-12.336 27.504-27.504 27.504h-9.23v-5.73c0-10.52-8.56-19.078-19.078-19.078H290.66c-10.523 0-19.082 8.56-19.082 19.078v5.73h-8.926c-15.168 0-27.504-12.34-27.504-27.504v-1.258c0-15.168 12.336-27.508 27.504-27.508h100.68c15.164 0 27.504 12.34 27.504 27.508zm0 0"/><use xlink:href="#B"/><use xlink:href="#B" x="32.063"/><path d="M342.53 285.676c0 4.215-3.418 7.633-7.633 7.633s-7.637-3.418-7.637-7.633 3.418-7.633 7.637-7.633 7.633 3.414 7.633 7.633zm0 0"/><use xlink:href="#B" x="231.559"/><defs ><path id="B" d="M143.035 285.676c0 4.215-3.418 7.633-7.637 7.633s-7.633-3.418-7.633-7.633 3.418-7.633 7.633-7.633 7.637 3.414 7.637 7.633zm0 0"/></defs></svg>