<svg xmlns="http://www.w3.org/2000/svg" height="661.333" viewBox="0 0 496 496" width="661.333"><path d="M472 142.887v-17.6c0-11.6-8.687-21.45-20.2-22.883l-49.855-6.23c-13.57-1.742-25.945 9.2-25.945 22.88v2.7l-19.672-4.137-.184-2.64c-2.4-34.28-28.906-61.703-62.137-66.25L290.52 38.3C282.895 15.383 261.543 0 237.406 0h-42.812c-24.145 0-45.496 15.383-53.12 38.3l-3.488 10.445C105.736 53.153 79.886 79.13 76.21 112H0v19.07l69.36 77.066-13.246 189.96a47.56 47.56 0 0 0-.113 3.246c0 11.734 4.4 22.45 11.566 30.656H64c-22.055 0-40 17.945-40 40v24h384v-24c0-22.055-17.945-40-40-40h-3.566C371.6 423.793 376 413.078 376 401.344a47.25 47.25 0 0 0-.113-3.246l-.023-.355 93.2-32.215A40.01 40.01 0 0 0 496 327.727V179.44c0-16.035-9.742-30.273-24-36.555zm-80-23.824c0-4.184 3.617-7.56 7.938-7.008l49.87 6.234a7.07 7.07 0 0 1 6.191 7.008v13.27l-64-13.445zm68.938 36.898c11.047 2.32 19.063 12.2 19.063 23.48V200h-32v-2.527c0-7.633-5.434-14.234-12.922-15.703l-75.3-14.8-2.3-32.754zM448 264h32v32h-32zm0-16v-32h32v32zm-87.078-64.496L432 197.473V313.49l-60.56 20.863zM224 304v-16h16v-16h-16v-16h16v-16h-16v-16h16v-16h-16v-16h16v-16h-16v-16h-16v16h-16v16h16v16h-16v16h16v16h-16v16h16v16h-16v16h16v16h-16v16h16v16h-32V168c0-13.23 10.77-24 24-24h32c13.23 0 24 10.77 24 24v168h-32v-16h16v-16zm8-176h-32c-22.055 0-40 17.945-40 40v168H76.488l9.3-133.2.168-.152-.145-.16 6.023-86.383c.098-1.395.3-2.746.488-4.105H339.68c.2 1.36.4 2.72.488 4.105L355.512 336H272V168c0-22.055-17.945-40-40-40zm-75.352-84.656C162.105 26.992 177.352 16 194.594 16h42.813c17.242 0 32.496 10.992 37.945 27.352l1.55 4.648H155.098zM147.688 64h136.625c22.094 0 41.48 13.047 50.543 32H97.145c9.063-18.953 28.45-32 50.543-32zM18.77 128h56.184L70.9 185.945zM392 472v8H40v-8c0-13.23 10.77-24 24-24h304c13.23 0 24 10.77 24 24zm-289.344-40C85.754 432 72 418.246 72 401.344c0-.7.023-1.422.078-2.137L75.375 352h281.258l3.297 47.215a32.38 32.38 0 0 1 .07 2.129C360 418.246 346.246 432 329.344 432zm361.176-81.594l-89.12 30.8-2.117-30.336 64.62-22.262c6.45-2.227 10.785-8.305 10.785-15.13V312h32v15.727a24.01 24.01 0 0 1-16.168 22.68zM160 416h112v-48H160zm16-32h80v16h-80zm0 0"/></svg>