<svg xmlns="http://www.w3.org/2000/svg" height="596" viewBox="0 -32 447.974 447" width="596"><path d="M141.762 312.488a74.9 74.9 0 0 0-69.762-56c-41.207 0-72 38.016-72 72a8 8 0 1 0 16 0c1.523-30.277 25.727-54.48 56-56 30.273 1.52 54.477 25.723 56 56v13.75l-8.184-2.04c.086-1.23.184-2.465.184-3.71.055-24.645-18.53-45.344-43.04-47.926s-47.004 13.78-52.086 37.895 8.887 48.168 32.352 55.7 48.828-3.898 58.727-26.47l18.102 4.527c.637.172 1.29.262 1.945.273h152c2.918-.004 5.605-1.594 7.008-4.152l76.887-139.8 8.457 50.703c-34.22 9.707-56.223 42.95-51.793 78.242a8.01 8.01 0 0 0 7.93 7.008 8.73 8.73 0 0 0 1.008-.066 8 8 0 0 0 6.938-8.926 56.87 56.87 0 0 1-.434-7.008 55.79 55.79 0 0 1 39-53.336l1.336 8c-23.508 8.184-36.824 33.016-30.637 57.125s29.816 39.46 54.36 35.316 41.82-26.402 39.75-51.207-22.805-43.887-47.695-43.898l-16.227-97.37-32-184c-.664-3.832-3.992-6.633-7.887-6.63h-56a8 8 0 1 0 0 16h49.273l30.398 174.598-66.8 121.402zM87.305 332.07a16 16 0 0 0-15.687-11.551c-7.242.14-13.484 5.13-15.22 12.16s1.47 14.352 7.813 17.848 14.242 2.293 19.262-2.93l16.527 4.1a31.79 31.79 0 0 1-39.574 14.078c-14.855-5.93-22.984-21.98-18.984-37.465s18.89-25.6 34.762-23.582S103.977 320.21 104 336.207zm195.97 12.418H144v-16h148.07zm106.574-20.266c-5.582 4.613-7.367 12.402-4.355 18.988a16.01 16.01 0 0 0 17.215 9.121c7.14-1.207 12.582-7.06 13.266-14.27s-3.562-13.977-10.348-16.504l-2.8-16.8c15.9 1.54 28.203 14.664 28.695 30.64s-10.965 29.836-26.75 32.352-30.984-7.086-35.484-22.426a31.77 31.77 0 0 1 17.738-38.047zm0 0"/></svg>