<svg xmlns="http://www.w3.org/2000/svg" viewBox="0 0 512 512"><path d="M437.333 64H352a10.66 10.66 0 0 0-10.667 10.667v7.548c-7.564-4.48-11.762-12.253-11.792-12.32A10.67 10.67 0 0 0 320 64H192a10.67 10.67 0 0 0-9.542 5.896c-3.194 6.384-7.656 10.034-11.792 12.23v-7.46A10.66 10.66 0 0 0 160 64H74.667C33.5 64 0 97.5 0 138.667v234.667C0 414.5 33.5 448 74.667 448h362.666C478.5 448 512 414.5 512 373.333V138.667C512 97.5 478.5 64 437.333 64zm-288 362.667H74.667c-29.417 0-53.333-23.927-53.333-53.333V138.667c0-29.406 23.917-53.333 53.333-53.333h74.667v341.333zm192 0H170.667V104.923c8.137-2.22 19.237-7.34 27.458-19.6h116c4.6 6.45 13.628 16.2 27.208 19.83v321.505zm149.334-53.334c0 29.406-23.917 53.333-53.333 53.333h-74.667V85.333h74.667c29.417 0 53.333 23.927 53.333 53.333v234.667zm-448-160c0 23.53 19.146 42.667 42.667 42.667S128 236.865 128 213.333s-19.146-42.667-42.667-42.667-42.666 19.136-42.666 42.667zM85.333 192c11.77 0 21.333 9.573 21.333 21.333s-9.563 21.333-21.333 21.333S64 225.093 64 213.333 73.563 192 85.333 192z"/><circle cx="85.333" cy="288" r="10.667"/><circle cx="85.333" cy="330.667" r="10.667"/><circle cx="106.667" cy="309.333" r="10.667"/><circle cx="64" cy="309.333" r="10.667"/><path d="M426.667 256C403.146 256 384 275.135 384 298.667s19.146 42.667 42.667 42.667 42.667-19.135 42.667-42.667S450.188 256 426.667 256zm0 64c-11.77 0-21.333-9.573-21.333-21.333s9.563-21.333 21.333-21.333S448 286.906 448 298.667 438.438 320 426.667 320z"/><circle cx="426.667" cy="224" r="10.667"/><circle cx="426.667" cy="181.333" r="10.667"/><circle cx="405.333" cy="202.667" r="10.667"/><circle cx="448" cy="202.667" r="10.667"/><path d="M96 128h21.333a10.66 10.66 0 1 0 0-21.334H96A10.66 10.66 0 1 0 96 128zm298.667 0A10.66 10.66 0 1 0 416 128a10.66 10.66 0 1 0 0-21.334 10.66 10.66 0 1 0-21.334.001 10.66 10.66 0 1 0 .001 21.333z"/></svg>