<svg xmlns="http://www.w3.org/2000/svg" xmlns:xlink="http://www.w3.org/1999/xlink" viewBox="0 0 409.6 409.6"><path d="M404.155 28.278h-50.13V17.966A17.99 17.99 0 0 0 336.059 0h-12.54a5.12 5.12 0 1 0 0 10.24h12.54c4.26 0 7.726 3.466 7.726 7.726v10.312h-38.292v-17.9a5.12 5.12 0 1 0-10.24 0v17.9H256.96V17.966c0-4.26 3.466-7.726 7.726-7.726h12.54a5.12 5.12 0 1 0 0-10.24h-12.54a17.99 17.99 0 0 0-17.966 17.966v10.312h-87.3V17.966A17.99 17.99 0 0 0 141.443 0h-12.54a5.12 5.12 0 1 0 0 10.24h12.54c4.26 0 7.726 3.466 7.726 7.726v10.312h-38.292v-17.9a5.12 5.12 0 0 0-10.24 0v17.9H62.344V17.966c0-4.26 3.466-7.726 7.726-7.726H82.6a5.12 5.12 0 1 0 0-10.24H70.07a17.99 17.99 0 0 0-17.966 17.966v10.312H5.445a5.12 5.12 0 0 0-5.12 5.12v45.23a5.12 5.12 0 0 0 5.12 5.12h6.216V404.48c0 2.826 2.294 5.12 5.12 5.12h376.04a5.12 5.12 0 0 0 5.12-5.12V83.753h6.216a5.12 5.12 0 0 0 5.12-5.12V33.398a5.12 5.12 0 0 0-5.12-5.12zM21.9 399.36V154.88h365.8v244.48H21.9zm365.8-254.72H21.9V83.753h365.8v60.887zm11.34-71.132H10.57v-35h388.47v35zM124.02 96.896a17.39 17.39 0 0 0-17.367 17.367 17.39 17.39 0 0 0 17.367 17.367c9.58 0 17.372-7.788 17.372-17.367s-7.787-17.367-17.372-17.367zm0 24.5a7.14 7.14 0 0 1-7.127-7.127 7.14 7.14 0 0 1 7.127-7.127c3.932 0 7.132 3.2 7.132 7.127s-3.2 7.127-7.132 7.127zm53.85-24.5a17.39 17.39 0 0 0-17.367 17.367 17.39 17.39 0 0 0 17.367 17.367c9.58 0 17.372-7.788 17.372-17.367s-7.787-17.367-17.372-17.367zm0 24.5a7.14 7.14 0 0 1-7.127-7.127 7.14 7.14 0 0 1 7.127-7.127c3.932 0 7.132 3.2 7.132 7.127a7.14 7.14 0 0 1-7.132 7.127z"/><use xlink:href="#B"/><use xlink:href="#B" x="53.85"/><path d="M345.06 190.188a5.12 5.12 0 0 0-5.12 5.12v4.7c0 4.198-2.73 7.73-6.497 9.02V185.6a5.12 5.12 0 0 0-5.12-5.12H81.283a5.12 5.12 0 0 0-5.12 5.12v23.772c-4.316-.927-7.573-4.767-7.573-9.36v-1.183a5.12 5.12 0 1 0-10.24 0v1.183c.005 10.24 7.84 18.596 17.812 19.62v134.292a5.12 5.12 0 0 0 5.12 5.12h247.04a5.12 5.12 0 0 0 5.12-5.12v-134.4c9.457-1.495 16.737-9.636 16.737-19.507v-4.7a5.12 5.12 0 0 0-5.119-5.12zM323.203 348.8h-236.8V219.832h236.8V348.8zm0-139.208h-236.8V190.72h236.8v18.872z"/><defs ><path id="B" d="M231.73 96.896a17.39 17.39 0 0 0-17.367 17.367 17.39 17.39 0 0 0 17.367 17.367c9.58 0 17.372-7.788 17.372-17.367s-7.788-17.367-17.372-17.367zm0 24.49a7.14 7.14 0 0 1-7.127-7.127 7.14 7.14 0 0 1 7.127-7.127c3.932 0 7.132 3.2 7.132 7.127s-3.2 7.127-7.132 7.127z"/></defs></svg>