<svg xmlns="http://www.w3.org/2000/svg" viewBox="0 0 512.001 512.001"><path d="M142.712 41.06a7.6 7.6 0 0 0-7.6 7.6v47.635a7.6 7.6 0 1 0 15.2 0V48.66a7.6 7.6 0 0 0-7.6-7.6zM509.76 445.553v.042l-.065-8.24a312.74 312.74 0 0 0-9.953-72.302c-1.054-4.063-5.203-6.5-9.267-5.45s-6.503 5.204-5.45 9.267c5.494 21.17 8.62 42.855 9.36 64.673-7.493 4.773-16.864 10.215-30.85 13.87-11.052 2.9-23.133 4.174-35.976 3.842l-7.87-27.022c-2.673-9.18-8.64-16.806-16.372-21.734 9.163-7.5 15.025-18.876 15.025-31.606 0-2.062-.157-4.087-.453-6.067 4.1 1.15 8.413 1.777 12.874 1.777 19.845 0 36.897-12.17 44.097-29.437l1.2 3.15c1.135 3.067 4.04 4.965 7.13 4.965a7.59 7.59 0 0 0 2.638-.475c3.937-1.457 5.947-5.83 4.5-9.767-5.5-14.833-12.167-29.367-19.842-43.197l-3.788-6.826a38.89 38.89 0 0 0-33.986-20.008h-9.018a16.27 16.27 0 0 0-11.587 4.8c-.22.22-.526.347-.838.347h-183.9c-.312 0-.618-.127-.837-.346a16.28 16.28 0 0 0-11.588-4.8h-9.018a38.89 38.89 0 0 0-33.985 20.007l-3.8 6.827c-24.77 44.63-38.2 94.696-39.22 145.607-.2 4.65-.1 9.355.027 14.007l.282 11.244H107.2V177.837h59.9v68.794a7.6 7.6 0 1 0 15.2 0V24.392C182.3 10.942 171.357 0 157.907 0H43.803C30.353 0 19.4 10.942 19.4 24.392v444.104L3.043 500.978A7.6 7.6 0 0 0 9.831 512h162.273a7.8 7.8 0 0 0 .841-.049c.676.03 1.354.05 2.035.05 20.158 0 38.174-13.518 43.8-32.872l14.748-50.643c2.888-9.92 12.12-16.847 22.452-16.847h126.652c10.33 0 19.564 6.928 22.453 16.848l14.748 50.642c5.636 19.355 23.65 32.873 43.8 32.873h.002a45.39 45.39 0 0 0 45.62-44.487l.402-16.056.083-5.765.003-.602c.008-1.37 0 .012-.002.462zm-78.997-159.26c17.95 0 32.554 14.604 32.554 32.554S448.714 351.4 430.764 351.4s-32.553-14.604-32.553-32.554 14.603-32.554 32.553-32.554zm-143.187-.935h66.4v13.233a10.18 10.18 0 0 1-10.165 10.165h-46.08a10.18 10.18 0 0 1-10.165-10.165v-13.233zm-105.67 18.98a31.65 31.65 0 0 1 14.92-13.185c3.87-1.642 7.986-2.474 12.235-2.474 17.292 0 31.36 14.068 31.36 31.36s-14.068 31.36-31.36 31.36-31.36-14.07-31.36-31.36c-.001-5.526 1.454-10.955 4.206-15.702zM34.613 24.392c0-5.067 4.123-9.2 9.2-9.2h48.18v21.295a7.6 7.6 0 1 0 15.2 0V15.203h50.724a9.2 9.2 0 0 1 9.189 9.189v138.243h-59.913V72.477a7.6 7.6 0 1 0-15.2 0v90.157h-57.37V24.392zm0 153.445H91.98v284.865H34.613V177.837zm-12.44 318.96l9.52-18.893h99.134c1.814 6.988 5.273 13.444 10.162 18.893H22.173zm196.768-72.563l-7.87 27.025a156.22 156.22 0 0 1-5.287.046h-.07c-4.165 0-7.56 3.358-7.6 7.53a7.6 7.6 0 0 0 7.53 7.67l.985.006-2.436 8.364c-3.76 12.906-15.772 21.92-29.214 21.92-16.64 0-30-13.03-30.418-29.665l-.4-15.904c7.018 3.92 15.763 7.933 27.095 10.895 4.063 1.06 8.215-1.37 9.276-5.432s-1.37-8.215-5.432-9.276c-14-3.656-23.36-9.098-30.854-13.872a297.95 297.95 0 0 1 20.558-99.05c6.096 18.62 23.625 32.1 44.256 32.1 4.02 0 7.92-.512 11.642-1.474-.268 1.884-.415 3.807-.415 5.764 0 12.73 5.862 24.116 15.025 31.606-7.733 4.928-13.7 12.554-16.373 21.733zm43.97-27.8H259.3c-11.683-.82-21.227-9.503-23.356-20.78 4.266 3.754 9.855 6.04 15.97 6.04 13.348 0 24.208-10.86 24.208-24.208a24.12 24.12 0 0 0-1.47-8.313c7.238 4.53 12.066 12.572 12.066 21.722 0 13.515-10.524 24.6-23.806 25.54zm-20.003-38.95a9.02 9.02 0 0 1 9.006-9.005 9.02 9.02 0 0 1 9.006 9.005 9.02 9.02 0 0 1-9.006 9.006 9.02 9.02 0 0 1-9.006-9.006zm102.82 38.95l-52.82.001c5.632-6.998 9.013-15.88 9.013-25.54 0-22.505-18.3-40.815-40.815-40.815a40.93 40.93 0 0 0-6.712.561c.797-3.408 1.232-6.953 1.232-10.6 0-13.765-6-26.15-15.536-34.682h32.286v13.233c0 13.988 11.38 25.368 25.368 25.368h46.08c13.988 0 25.368-11.38 25.368-25.368V285.36h27.57c-8.496 8.626-13.752 20.454-13.752 33.5a47.65 47.65 0 0 0 1.487 11.838 40.82 40.82 0 0 0-6.967-.607c-22.505 0-40.815 18.3-40.815 40.815 0 9.66 3.38 18.543 9.013 25.54zm51.067-38.95a9.02 9.02 0 0 1-9.005 9.006 9.02 9.02 0 0 1-9.006-9.006 9.02 9.02 0 0 1 9.006-9.005c1.076 0 2.104.2 3.06.547a25.86 25.86 0 0 1 4.348 3.351 8.95 8.95 0 0 1 1.596 5.107zm-17.46 38.95h-3.6c-13.282-.93-23.807-12.026-23.807-25.54 0-9.727 5.45-18.204 13.457-22.54-1.153 2.82-1.793 5.9-1.793 9.13 0 13.348 10.86 24.208 24.208 24.208 5.515 0 10.6-1.857 14.676-4.974-2.512 10.756-11.817 18.924-23.13 19.716zm114.737 70.698c-.417 16.633-13.777 29.663-30.415 29.665-13.442-.001-25.454-9.015-29.212-21.92l-2.436-8.364c12.5-.04 24.35-1.5 35.372-4.4 11.33-2.96 20.073-6.972 27.1-10.892l-.398 15.9z"/><circle cx="429.57" cy="305.18" r="7.601"/><circle cx="429.57" cy="334.9" r="7.601"/><circle cx="414.37" cy="319.7" r="7.601"/><circle cx="444.77" cy="319.7" r="7.601"/><circle cx="209.06" cy="305.25" r="7.601"/><circle cx="209.06" cy="334.98" r="7.601"/><circle cx="193.86" cy="319.78" r="7.601"/><circle cx="224.26" cy="319.78" r="7.601"/></svg>