<svg width="34" height="30" viewBox="0 0 34 30" fill="none" xmlns="http://www.w3.org/2000/svg">
<path fill-rule="evenodd" clip-rule="evenodd" d="M12.4309 9.90961C12.0039 7.3862 11.7082 4.62814 12.1378 2.06743C11.8289 2.2005 11.4539 2.30491 11.0027 2.34798L10.9995 2.39969C10.8458 4.9324 10.4728 10.9026 9.26158 24.8913L9.26151 24.9207C9.26041 25.3078 9.25878 25.8845 9.76991 26.186C9.91924 26.2741 10.208 26.3455 10.6448 26.3854C10.9426 26.4125 11.2712 26.4225 11.6114 26.4269L11.6783 27.4277C11.3008 27.4238 10.9116 27.4139 10.554 27.3812C10.102 27.34 9.61753 27.2571 9.26186 27.0473C8.51187 26.6049 8.31893 25.8703 8.27253 25.3694H7.10406C6.82792 25.3694 6.60406 25.1455 6.60406 24.8694C6.60406 24.5933 6.82792 24.3694 7.10406 24.3694H8.29876L10.0008 2.34464C10.0037 2.16279 9.95838 1.89676 9.83366 1.69209C9.72447 1.5129 9.55352 1.36941 9.21507 1.36941H9.21232H9.20957H9.20682H9.20407H9.20132H9.19856H9.1958H9.19304H9.19027H9.18751H9.18474H9.18197H9.17919H9.17642H9.17364H9.17086H9.16808H9.16529H9.16251H9.15972H9.15693H9.15413H9.15134H9.14854H9.14574H9.14293H9.14013H9.13732H9.13451H9.1317H9.12889H9.12607H9.12325H9.12043H9.11761H9.11479H9.11196H9.10913H9.1063H9.10347H9.10063H9.09779H9.09495H9.09211H9.08927H9.08642H9.08358H9.08072H9.07787H9.07502H9.07216H9.0693H9.06644H9.06358H9.06072H9.05785H9.05498H9.05211H9.04924H9.04636H9.04348H9.0406H9.03772H9.03484H9.03196H9.02907H9.02618H9.02329H9.02039H9.0175H9.0146H9.0117H9.0088H9.0059H9.003H9.00009H8.99718H8.99427H8.99136H8.98844H8.98553H8.98261H8.97969H8.97676H8.97384H8.97091H8.96799H8.96506H8.96213H8.95919H8.95626H8.95332H8.95038H8.94744H8.9445H8.94155H8.93861H8.93566H8.93271H8.92976H8.9268H8.92385H8.92089H8.91793H8.91497H8.91201H8.90904H8.90608H8.90311H8.90014H8.89717H8.8942H8.89122H8.88824H8.88527H8.88229H8.8793H8.87632H8.87334H8.87035H8.86736H8.86437H8.86138H8.85838H8.85539H8.85239H8.84939H8.84639H8.84339H8.84039H8.83738H8.83438H8.83137H8.82836H8.82535H8.82233H8.81932H8.8163H8.81328H8.81026H8.80724H8.80422H8.8012H8.79817H8.79514H8.79211H8.78908H8.78605H8.78302H8.77998H8.77695H8.77391H8.77087H8.76783H8.76478H8.76174H8.75869H8.75565H8.7526H8.74955H8.7465H8.74344H8.74039H8.73733H8.73427H8.73122H8.72816H8.72509H8.72203H8.71897H8.7159H8.71283H8.70976H8.70669H8.70362H8.70055H8.69747H8.6944H8.69132H8.68824H8.68516H8.68208H8.679H8.67592H8.67283H8.66974H8.66666H8.66357H8.66048H8.65738H8.65429H8.6512H8.6481H8.645H8.64191H8.63881H8.63571H8.6326H8.6295H8.6264H8.62329H8.62018H8.61707H8.61397H8.61085H8.60774H8.60463H8.60152H8.5984H8.59528H8.59216H8.58905H8.58593H8.5828H8.57968H8.57656H8.57343H8.57031H8.56718H8.56405H8.56092H8.55779H8.55466H8.55153H8.54839H8.54526H8.54212H8.53898H8.53585H8.53271H8.52957H8.52642H8.52328H8.52014H8.51699H8.51385H8.5107H8.50755H8.5044H8.50125H8.4981H8.49495H8.4918H8.48864H8.48549H8.48233H8.47918H8.47602H8.47286H8.4697H8.46654H8.46338H8.46021H8.45705H8.45389H8.45072H8.44755H8.44439H8.44122H8.43805H8.43488H8.43171H8.42854H8.42536H8.42219H8.41901H8.41584H8.41266H8.40949H8.40631H8.40313H8.39995H8.39677H8.39359H8.3904H8.38722H8.38404H8.38085H8.37767H8.37448H8.37129H8.36811H8.36492H8.36173H8.35854H8.35535H8.35215H8.34896H8.34577H8.34258H8.33938H8.33618H8.33299H8.32979H8.32659H8.3234H8.3202H8.317H8.3138H8.3106H8.30739H8.30419H8.30099H8.29778H8.29458H8.29137H8.28817H8.28496H8.28175H8.27855H8.27534H8.27213H8.26892H8.26571H8.2625H8.25929H8.25608H8.25286H8.24965H8.24644H8.24322H8.24001H8.23679H8.23357H8.23036H8.22714H8.22392H8.22071H8.21749H8.21427H8.21105H8.20783H8.20461H8.20139H8.19816H8.19494H8.19172H8.1885H8.18527H8.18205H8.17882H8.1756H8.17237H8.16915H8.16592H8.16269H8.15947H8.15624H8.15301H8.14978H8.14655H8.14332H8.1401H8.13687H8.13363H8.1304H8.12717H8.12394H8.12071H8.11748H8.11424H8.11101H8.10778H8.10454H8.10131H8.09808H8.09484H8.09161H8.08837H8.08514H8.0819H8.07867H8.07543H8.07219H8.06896H8.06572H8.06248H8.05924H8.05601H8.05277H8.04953H8.04629H8.04305H8.03981H8.03657H8.03333H8.0301H8.02685H8.02362H8.02037H8.01713H8.01389H8.01065H8.00741H8.00417H8.00093H7.99769H7.99445H7.99121H7.98796H7.98472H7.98148H7.97824H7.975H7.97175H7.96851H7.96527H7.96203H7.95878H7.95554H7.9523H7.94906H7.94581H7.94257H7.93933H7.93608H7.93284H7.9296H7.92636H7.92311H7.91987H7.91663H7.91338H7.91014H7.9069H7.90365H7.90041H7.89717H7.89393H7.89068H7.88744H7.8842H7.88095H7.87771H7.87447H7.87123H7.86798H7.86474H7.8615H7.85826H7.85501H7.85177H7.84853H7.84529H7.84205H7.83881H7.83557H7.83232H7.82908H7.82584H7.8226H7.81936H7.81612H7.81288H7.80964H7.8064H7.80316H7.79992H7.79668H7.79344H7.7902H7.78696H7.78373H7.78049H7.77725H7.77401H7.77078H7.76754H7.7643H7.76106H7.75783H7.75459H7.75136H7.74812H7.74489H7.74165H7.73842H7.73518H7.73195H7.72871H7.72548H7.72225H7.71901H7.71578H7.71255H7.70932H7.70609H7.70286H7.69963H7.6964H7.69317H7.68994H7.68671H7.68348H7.68025H7.67702H7.6738H7.67057H7.66734H7.66412H7.66089H7.65766H7.65444H7.65122H7.64799H7.64477H7.64155H7.63832H7.6351H7.63188H7.62866H7.62544C7.3493 1.36941 7.12544 1.14555 7.12544 0.869413C7.12544 0.59327 7.3493 0.369413 7.62544 0.369413H7.62866H7.63188H7.6351H7.63832H7.64155H7.64477H7.64799H7.65122H7.65444H7.65766H7.66089H7.66412H7.66734H7.67057H7.6738H7.67702H7.68025H7.68348H7.68671H7.68994H7.69317H7.6964H7.69963H7.70286H7.70609H7.70932H7.71255H7.71578H7.71901H7.72225H7.72548H7.72871H7.73195H7.73518H7.73842H7.74165H7.74489H7.74812H7.75136H7.75459H7.75783H7.76106H7.7643H7.76754H7.77078H7.77401H7.77725H7.78049H7.78373H7.78696H7.7902H7.79344H7.79668H7.79992H7.80316H7.8064H7.80964H7.81288H7.81612H7.81936H7.8226H7.82584H7.82908H7.83232H7.83557H7.83881H7.84205H7.84529H7.84853H7.85177H7.85501H7.85826H7.8615H7.86474H7.86798H7.87123H7.87447H7.87771H7.88095H7.8842H7.88744H7.89068H7.89393H7.89717H7.90041H7.90365H7.9069H7.91014H7.91338H7.91663H7.91987H7.92311H7.92636H7.9296H7.93284H7.93608H7.93933H7.94257H7.94581H7.94906H7.9523H7.95554H7.95878H7.96203H7.96527H7.96851H7.97175H7.975H7.97824H7.98148H7.98472H7.98796H7.99121H7.99445H7.99769H8.00093H8.00417H8.00741H8.01065H8.01389H8.01713H8.02037H8.02362H8.02685H8.0301H8.03333H8.03657H8.03981H8.04305H8.04629H8.04953H8.05277H8.05601H8.05924H8.06248H8.06572H8.06896H8.07219H8.07543H8.07867H8.0819H8.08514H8.08837H8.09161H8.09484H8.09808H8.10131H8.10454H8.10778H8.11101H8.11424H8.11748H8.12071H8.12394H8.12717H8.1304H8.13363H8.13687H8.1401H8.14332H8.14655H8.14978H8.15301H8.15624H8.15947H8.16269H8.16592H8.16915H8.17237H8.1756H8.17882H8.18205H8.18527H8.1885H8.19172H8.19494H8.19816H8.20139H8.20461H8.20783H8.21105H8.21427H8.21749H8.22071H8.22392H8.22714H8.23036H8.23357H8.23679H8.24001H8.24322H8.24644H8.24965H8.25286H8.25608H8.25929H8.2625H8.26571H8.26892H8.27213H8.27534H8.27855H8.28175H8.28496H8.28817H8.29137H8.29458H8.29778H8.30099H8.30419H8.30739H8.3106H8.3138H8.317H8.3202H8.3234H8.32659H8.32979H8.33299H8.33618H8.33938H8.34258H8.34577H8.34896H8.35215H8.35535H8.35854H8.36173H8.36492H8.36811H8.37129H8.37448H8.37767H8.38085H8.38404H8.38722H8.3904H8.39359H8.39677H8.39995H8.40313H8.40631H8.40949H8.41266H8.41584H8.41901H8.42219H8.42536H8.42854H8.43171H8.43488H8.43805H8.44122H8.44439H8.44755H8.45072H8.45389H8.45705H8.46021H8.46338H8.46654H8.4697H8.47286H8.47602H8.47918H8.48233H8.48549H8.48864H8.4918H8.49495H8.4981H8.50125H8.5044H8.50755H8.5107H8.51385H8.51699H8.52014H8.52328H8.52642H8.52957H8.53271H8.53585H8.53898H8.54212H8.54526H8.54839H8.55153H8.55466H8.55779H8.56092H8.56405H8.56718H8.57031H8.57343H8.57656H8.57968H8.5828H8.58593H8.58905H8.59216H8.59528H8.5984H8.60152H8.60463H8.60774H8.61085H8.61397H8.61707H8.62018H8.62329H8.6264H8.6295H8.6326H8.63571H8.63881H8.64191H8.645H8.6481H8.6512H8.65429H8.65738H8.66048H8.66357H8.66666H8.66974H8.67283H8.67592H8.679H8.68208H8.68516H8.68824H8.69132H8.6944H8.69747H8.70055H8.70362H8.70669H8.70976H8.71283H8.7159H8.71897H8.72203H8.72509H8.72816H8.73122H8.73427H8.73733H8.74039H8.74344H8.7465H8.74955H8.7526H8.75565H8.75869H8.76174H8.76478H8.76783H8.77087H8.77391H8.77695H8.77998H8.78302H8.78605H8.78908H8.79211H8.79514H8.79817H8.8012H8.80422H8.80724H8.81026H8.81328H8.8163H8.81932H8.82233H8.82535H8.82836H8.83137H8.83438H8.83738H8.84039H8.84339H8.84639H8.84939H8.85239H8.85539H8.85838H8.86138H8.86437H8.86736H8.87035H8.87334H8.87632H8.8793H8.88229H8.88527H8.88824H8.89122H8.8942H8.89717H8.90014H8.90311H8.90608H8.90904H8.91201H8.91497H8.91793H8.92089H8.92385H8.9268H8.92976H8.93271H8.93566H8.93861H8.94155H8.9445H8.94744H8.95038H8.95332H8.95626H8.95919H8.96213H8.96506H8.96799H8.97091H8.97384H8.97676H8.97969H8.98261H8.98553H8.98844H8.99136H8.99427H8.99718H9.00009H9.003H9.0059H9.0088H9.0117H9.0146H9.0175H9.02039H9.02329H9.02618H9.02907H9.03196H9.03484H9.03772H9.0406H9.04348H9.04636H9.04924H9.05211H9.05498H9.05785H9.06072H9.06358H9.06644H9.0693H9.07216H9.07502H9.07787H9.08072H9.08358H9.08642H9.08927H9.09211H9.09495H9.09779H9.10063H9.10347H9.1063H9.10913H9.11196H9.11479H9.11761H9.12043H9.12325H9.12607H9.12889H9.1317H9.13451H9.13732H9.14013H9.14293H9.14574H9.14854H9.15134H9.15413H9.15693H9.15972H9.16251H9.16529H9.16808H9.17086H9.17364H9.17642H9.17919H9.18197H9.18474H9.18751H9.19027H9.19304H9.1958H9.19856H9.20132H9.20407H9.20682H9.20957H9.21232H9.21507C9.93744 0.369413 10.4159 0.725923 10.6876 1.17173C10.7255 1.23397 10.7593 1.29759 10.7893 1.36183C11.5169 1.31641 11.9494 1.0756 12.1908 0.883934C12.328 0.774997 12.4135 0.673772 12.4615 0.612345C12.4726 0.59811 12.4816 0.586148 12.4911 0.573523L12.4955 0.567783L12.4963 0.566655C12.5015 0.55958 12.5265 0.525943 12.5526 0.498238C12.5614 0.488858 12.5812 0.468265 12.6091 0.44607L12.6103 0.445128C12.6269 0.431863 12.7074 0.367562 12.8315 0.344622C12.9078 0.330519 13.0189 0.328973 13.1355 0.383721C13.2533 0.438967 13.3246 0.527074 13.3636 0.599295C13.4263 0.715381 13.4244 0.823384 13.424 0.845181L13.424 0.846759C13.4231 0.905341 13.4116 0.953723 13.4094 0.962675L13.4092 0.963679C13.4053 0.98053 13.401 0.996041 13.3981 1.00608C12.6351 3.6913 12.9179 6.79404 13.4169 9.74277C13.5751 10.6777 13.7515 11.5795 13.9208 12.4451L13.9208 12.4451L13.9208 12.4452C14.019 12.9471 14.1148 13.4369 14.2033 13.9138C14.3813 14.8732 14.5289 15.7775 14.5917 16.5798L13.6137 16.9507C13.5739 16.1513 13.4229 15.1897 13.2201 14.0962C13.1353 13.6392 13.0412 13.158 12.9437 12.6596L12.9437 12.6593L12.9437 12.6593C12.7724 11.7831 12.5907 10.8539 12.4309 9.90961Z" fill="black"/>
<path d="M5.27638 24.8655C4.16448 10.8655 3.63017 4.89483 3.4894 2.36548M5.27638 24.8655L3.4894 2.36548M5.27638 24.8655H6.79662M5.27638 24.8655C5.27638 25.0643 5.12576 26.1888 4.73272 26.5978C4.33969 27.0068 2.60488 26.8655 2.15982 26.8655C1.51884 26.8655 2.08384 22.8655 2.23586 19.8655C2.38789 16.8655 2.47911 6.46548 1.01967 0.865485C0.954402 0.615085 1.62779 1.86548 3.45207 1.86548C3.4664 2.00682 3.4787 2.17313 3.4894 2.36548M3.4894 2.36548C3.47696 1.86548 3.69532 0.865485 4.66828 0.865485C5.09782 0.865485 5.62217 0.865485 6.12623 0.865485" stroke="black" stroke-linecap="round"/>
<path d="M11.9546 6.14377C11.9688 5.86799 12.2038 5.65591 12.4796 5.67007C12.7554 5.68424 12.9675 5.91928 12.9533 6.19506L11.9546 6.14377ZM9.92783 16.289C9.89843 16.5636 9.652 16.7623 9.37743 16.7329C9.10286 16.7035 8.90411 16.4571 8.93352 16.1825L9.92783 16.289ZM12.9533 6.19506C12.8161 8.8659 11.8724 10.3918 11.0231 12.0904L10.1287 11.6432C11.0031 9.89426 11.8303 8.56524 11.9546 6.14377L12.9533 6.19506ZM11.0231 12.0904C10.6219 12.8928 10.3459 13.9337 10.17 14.7975C10.083 15.2248 10.0222 15.5998 9.98319 15.8676C9.96372 16.0013 9.94974 16.1079 9.9407 16.1805C9.93617 16.2168 9.93289 16.2446 9.93077 16.263C9.92971 16.2722 9.92894 16.279 9.92845 16.2834C9.92821 16.2856 9.92804 16.2871 9.92793 16.2881C9.92788 16.2885 9.92785 16.2889 9.92783 16.289C9.92782 16.2891 9.92782 16.2891 9.92782 16.2891C9.92782 16.2891 9.92782 16.2891 9.92782 16.2891C9.92783 16.2891 9.92783 16.289 9.43068 16.2358C8.93352 16.1825 8.93353 16.1824 8.93353 16.1824C8.93354 16.1823 8.93355 16.1822 8.93356 16.1822C8.93358 16.182 8.9336 16.1818 8.93362 16.1815C8.93368 16.1811 8.93375 16.1804 8.93383 16.1796C8.93401 16.178 8.93426 16.1757 8.93458 16.1729C8.93521 16.1671 8.93614 16.1589 8.93737 16.1483C8.93982 16.1271 8.94346 16.0963 8.94837 16.0569C8.95818 15.9781 8.97307 15.8647 8.99362 15.7235C9.03469 15.4414 9.09858 15.0474 9.19012 14.5979C9.37132 13.7082 9.66797 12.5646 10.1287 11.6432L11.0231 12.0904Z" fill="black"/>
<path d="M2.45112 7.0382C2.43696 6.76242 2.20192 6.55034 1.92614 6.5645C1.65036 6.57866 1.43828 6.81371 1.45244 7.08949L2.45112 7.0382ZM4.09019 16.2649C4.15238 16.534 4.4209 16.7017 4.68995 16.6395C4.959 16.5773 5.12669 16.3088 5.0645 16.0397L4.09019 16.2649ZM1.45244 7.08949C1.51794 8.36475 1.59675 9.17758 1.77866 9.89638C1.96198 10.6207 2.24458 11.2274 2.67611 12.0904L3.57053 11.6432C3.14016 10.7825 2.90238 10.2607 2.7481 9.65104C2.59241 9.03585 2.5164 8.30909 2.45112 7.0382L1.45244 7.08949ZM2.67611 12.0904C3.08752 12.9132 3.44126 13.9518 3.69448 14.7991C3.82021 15.2199 3.91949 15.5878 3.98725 15.8501C4.0211 15.9812 4.04704 16.0858 4.06441 16.1572C4.0731 16.1928 4.07965 16.2202 4.08397 16.2385C4.08613 16.2476 4.08774 16.2544 4.08878 16.2589C4.0893 16.2611 4.08968 16.2627 4.08991 16.2637C4.09003 16.2642 4.09011 16.2646 4.09016 16.2648C4.09018 16.2649 4.0902 16.2649 4.0902 16.265C4.09021 16.265 4.0902 16.265 4.09021 16.265C4.0902 16.265 4.09019 16.2649 4.57735 16.1523C5.0645 16.0397 5.06449 16.0397 5.06448 16.0396C5.06447 16.0396 5.06445 16.0395 5.06444 16.0394C5.06441 16.0393 5.06437 16.0391 5.06432 16.0389C5.06422 16.0385 5.06409 16.0379 5.06392 16.0372C5.06358 16.0357 5.0631 16.0337 5.06247 16.031C5.06122 16.0256 5.05939 16.0179 5.05701 16.0078C5.05224 15.9877 5.04522 15.9583 5.03603 15.9206C5.01766 15.8451 4.9906 15.7361 4.95548 15.6001C4.88528 15.3283 4.78265 14.948 4.65261 14.5128C4.39429 13.6484 4.02102 12.5442 3.57053 11.6432L2.67611 12.0904Z" fill="black"/>
<line x1="5.78192" y1="24.8632" x2="7.96623" y2="24.8632" stroke="black"/>
<line x1="5.78192" y1="0.861145" x2="7.96623" y2="0.861145" stroke="black"/>
<rect x="6.54315" y="11.8323" width="1" height="3" rx="0.5" fill="black"/>
<rect x="6.66815" y="15.7368" width="0.75" height="1.49901" rx="0.375" fill="black"/>
<rect x="6.66815" y="21.4482" width="0.75" height="1.49566" rx="0.375" fill="black"/>
<path fill-rule="evenodd" clip-rule="evenodd" d="M17.586 16.7645C18.9464 16.5828 20.6369 16.5153 22.4328 16.5153C22.709 16.5153 22.9328 16.7391 22.9328 17.0153C22.9328 17.2914 22.709 17.5153 22.4328 17.5153C20.6539 17.5153 19.0143 17.5826 17.7184 17.7557C17.07 17.8423 16.5216 17.9537 16.0908 18.0906C15.6495 18.2309 15.3822 18.3826 15.2464 18.5184C15.1962 18.5685 15.108 18.6943 14.9932 18.9275C14.8836 19.15 14.7665 19.4353 14.6464 19.7705C14.4066 20.4401 14.1657 21.279 13.9562 22.1501C13.7469 23.0204 13.5712 23.9133 13.4597 24.6892C13.3462 25.4792 13.3061 26.1042 13.3457 26.4611C13.434 27.2554 13.6604 27.7421 13.8835 27.9817C13.9908 28.0969 14.0876 28.1456 14.1632 28.1628C14.2358 28.1794 14.3229 28.1749 14.4313 28.1249C14.4297 28.1256 14.4305 28.125 14.4337 28.1225C14.4476 28.1116 14.5073 28.0648 14.6175 27.9365C14.738 27.7962 14.88 27.6058 15.0431 27.3741C15.1699 27.194 15.3164 26.9781 15.4722 26.7486C15.6908 26.4266 15.9275 26.0779 16.1532 25.7638C16.5517 25.2094 16.9935 24.6484 17.4378 24.2708C17.8476 23.9224 18.4692 23.559 19.0981 23.9034C20.0515 24.4254 20.7282 24.37 21.2 24.2202C21.4496 24.141 21.6584 24.0299 21.8504 23.9237C21.8613 23.9177 21.8724 23.9115 21.8837 23.9053C21.9648 23.8603 22.0551 23.8102 22.1363 23.772C22.2174 23.7338 22.3657 23.6686 22.535 23.6686H22.8439V24.6686H22.5801C22.5751 24.6708 22.5691 24.6735 22.5621 24.6767C22.5133 24.6997 22.4552 24.7319 22.3674 24.7805C22.3568 24.7864 22.3458 24.7925 22.3344 24.7988C22.135 24.9091 21.853 25.0621 21.5026 25.1733C20.7745 25.4045 19.8146 25.4358 18.6178 24.7805C18.5959 24.7685 18.4642 24.7107 18.0855 25.0327C17.7412 25.3254 17.3591 25.7994 16.9653 26.3474C16.7348 26.6681 16.5251 26.9778 16.3214 27.2784C16.1665 27.5071 16.0151 27.7306 15.8608 27.9497C15.693 28.1881 15.5287 28.4103 15.3761 28.5881C15.2384 28.7483 15.0575 28.9373 14.8503 29.0328C14.5614 29.1662 14.2495 29.2081 13.9411 29.1378C13.6357 29.0683 13.3696 28.8971 13.1518 28.6633C12.7248 28.2048 12.4525 27.477 12.3519 26.5716C12.2971 26.0786 12.3553 25.3448 12.4699 24.547C12.5865 23.7352 12.7686 22.8113 12.9839 21.9162C13.199 21.0219 13.4496 20.1465 13.705 19.4333C13.8325 19.0771 13.964 18.7538 14.0961 18.4857C14.2229 18.2282 14.3694 17.9811 14.5392 17.8113C14.8433 17.5072 15.2916 17.2953 15.7879 17.1376C16.2949 16.9764 16.9061 16.8553 17.586 16.7645ZM22.6008 24.6605C22.6008 24.6605 22.6004 24.6606 22.5995 24.6609Z" fill="black"/>
<path fill-rule="evenodd" clip-rule="evenodd" d="M27.888 16.7645C26.5276 16.5828 24.8371 16.5153 23.0412 16.5153C22.765 16.5153 22.5412 16.7391 22.5412 17.0153C22.5412 17.2914 22.765 17.5153 23.0412 17.5153C24.8201 17.5153 26.4597 17.5826 27.7556 17.7557C28.404 17.8423 28.9524 17.9537 29.3832 18.0906C29.8245 18.2309 30.0918 18.3826 30.2276 18.5184C30.2778 18.5685 30.366 18.6943 30.4808 18.9275C30.5904 19.15 30.7075 19.4353 30.8276 19.7705C31.0674 20.4401 31.3083 21.279 31.5178 22.1501C31.7271 23.0204 31.9028 23.9133 32.0143 24.6892C32.1278 25.4792 32.1679 26.1042 32.1283 26.4611C32.04 27.2554 31.8136 27.7421 31.5905 27.9817C31.4832 28.0969 31.3864 28.1456 31.3108 28.1628C31.2382 28.1794 31.1511 28.1749 31.0427 28.1249C31.0443 28.1256 31.0435 28.125 31.0403 28.1225C31.0264 28.1116 30.9667 28.0648 30.8565 27.9365C30.736 27.7962 30.594 27.6058 30.4309 27.3741C30.3041 27.194 30.1576 26.9781 30.0018 26.7486C29.7832 26.4266 29.5465 26.0779 29.3208 25.7638C28.9223 25.2094 28.4805 24.6484 28.0362 24.2708C27.6264 23.9224 27.0048 23.559 26.3759 23.9034C25.4225 24.4254 24.7458 24.37 24.274 24.2202C24.0244 24.141 23.8156 24.0299 23.6236 23.9237C23.6127 23.9177 23.6016 23.9115 23.5903 23.9053C23.5092 23.8603 23.4189 23.8102 23.3377 23.772C23.2566 23.7338 23.1083 23.6686 22.939 23.6686H22.6301V24.6686H22.8939C22.8989 24.6708 22.9049 24.6735 22.9119 24.6767C22.9607 24.6997 23.0188 24.7319 23.1066 24.7805C23.1172 24.7864 23.1282 24.7925 23.1396 24.7988C23.339 24.9091 23.621 25.0621 23.9714 25.1733C24.6995 25.4045 25.6594 25.4358 26.8562 24.7805C26.8781 24.7685 27.0098 24.7107 27.3885 25.0327C27.7328 25.3254 28.1149 25.7994 28.5087 26.3474C28.7392 26.6681 28.9489 26.9778 29.1526 27.2784C29.3075 27.5071 29.4589 27.7306 29.6132 27.9497C29.781 28.1881 29.9453 28.4103 30.0979 28.5881C30.2356 28.7483 30.4165 28.9373 30.6237 29.0328C30.9126 29.1662 31.2245 29.2081 31.5329 29.1378C31.8383 29.0683 32.1044 28.8971 32.3222 28.6633C32.7492 28.2048 33.0215 27.477 33.1221 26.5716C33.1769 26.0786 33.1187 25.3448 33.0041 24.547C32.8875 23.7352 32.7054 22.8113 32.4901 21.9162C32.275 21.0219 32.0244 20.1465 31.769 19.4333C31.6415 19.0771 31.51 18.7538 31.3779 18.4857C31.2511 18.2282 31.1046 17.9811 30.9348 17.8113C30.6307 17.5072 30.1824 17.2953 29.6861 17.1376C29.1791 16.9764 28.5679 16.8553 27.888 16.7645ZM22.8732 24.6605C22.8732 24.6605 22.8736 24.6606 22.8745 24.6609Z" fill="black"/>
<path fill-rule="evenodd" clip-rule="evenodd" d="M17.8248 18.7838L16.8073 18.7838C16.6659 18.7838 16.8666 19.7507 16.8666 19.7507C16.8666 19.7507 17.0871 20.1235 17.3285 20.1235C17.57 20.1235 17.7739 19.7507 17.7739 19.7507C17.7739 19.7507 17.9466 18.7837 17.8248 18.7838ZM17.8248 22.2486H16.8073C16.6659 22.2486 16.8666 21.2816 16.8666 21.2816C16.8666 21.2816 17.0871 20.9089 17.3285 20.9089C17.57 20.9089 17.7739 21.2816 17.7739 21.2816C17.7739 21.2816 17.9466 22.2486 17.8248 22.2486ZM15.5801 21.0215L15.5801 20.004C15.5801 19.8822 16.5471 20.0549 16.5471 20.0549C16.5471 20.0549 16.9199 20.2588 16.9199 20.5003C16.9199 20.7417 16.5471 20.9622 16.5471 20.9622C16.5471 20.9622 15.5801 21.1629 15.5801 21.0215ZM19.045 20.004V21.0215C19.045 21.1629 18.078 20.9622 18.078 20.9622C18.078 20.9622 17.7053 20.7417 17.7053 20.5003C17.7053 20.2588 18.078 20.0549 18.078 20.0549C18.078 20.0549 19.045 19.8822 19.045 20.004Z" fill="black"/>
<circle cx="20.5669" cy="22.2486" r="1.16645" fill="black"/>
<circle cx="24.9703" cy="22.2486" r="1.16645" fill="black"/>
<path fill-rule="evenodd" clip-rule="evenodd" d="M28.8095 19.3639C28.8095 19.0435 28.5498 18.7838 28.2294 18.7838C27.909 18.7838 27.6492 19.0435 27.6492 19.3639C27.6492 19.6843 27.909 19.944 28.2294 19.944C28.5498 19.944 28.8095 19.6843 28.8095 19.3639ZM27.0722 21.1012C27.3926 21.1012 27.6523 20.8414 27.6523 20.5211C27.6523 20.2007 27.3926 19.9409 27.0722 19.9409C26.7518 19.9409 26.4921 20.2007 26.4921 20.5211C26.4921 20.8414 26.7518 21.1012 27.0722 21.1012ZM29.3865 21.1012C29.7069 21.1012 29.9667 20.8414 29.9667 20.5211C29.9667 20.2007 29.7069 19.9409 29.3865 19.9409C29.0662 19.9409 28.8064 20.2007 28.8064 20.5211C28.8064 20.8414 29.0662 21.1012 29.3865 21.1012ZM28.2294 21.0981C28.5498 21.0981 28.8095 21.3578 28.8095 21.6782C28.8095 21.9986 28.5498 22.2583 28.2294 22.2583C27.909 22.2583 27.6492 21.9986 27.6492 21.6782C27.6492 21.3578 27.909 21.0981 28.2294 21.0981Z" fill="black"/>
<path d="M20.079 17.4082V18.7576C20.079 19.2021 20.8418 19.2021 22.9303 19.2021" stroke="black"/>
<path d="M25.7148 17.4082V18.7576C25.7148 19.2021 24.9521 19.2021 22.8636 19.2021" stroke="black"/>
<path d="M18.4706 16.9855L18.3739 16.4345C18.342 16.253 17.9825 16.3161 16.9983 16.489" stroke="black"/>
<path d="M15.8146 17.4521L15.7179 16.9011C15.686 16.7196 16.0454 16.6564 17.0297 16.4835" stroke="black"/>
<path d="M27.0762 16.9418L27.1695 16.4107C27.2002 16.2358 27.5597 16.2989 28.5439 16.4718" stroke="black"/>
<path d="M29.7322 17.4083L29.8254 16.8772C29.8562 16.7023 29.4967 16.6392 28.5125 16.4663" stroke="black"/>
<line x1="22.2567" y1="16.9769" x2="23.2372" y2="16.9769" stroke="black"/>
</svg>
