<svg xmlns="http://www.w3.org/2000/svg" xmlns:xlink="http://www.w3.org/1999/xlink" viewBox="0 0 414.04 414.04"><path d="M379.1 113.927H102.997L376.934 41.84a7.5 7.5 0 0 0 5.344-9.162c-1.054-4.006-5.157-6.397-9.162-5.344l-329.06 86.592H34.93c-19.26 0-34.93 15.67-34.93 34.93V352.02c0 19.26 15.67 34.93 34.93 34.93H379.1c19.26 0 34.93-15.67 34.93-34.93V148.858c-.001-19.26-15.67-34.93-34.932-34.93zm19.93 238.096a19.95 19.95 0 0 1-19.93 19.93H34.93A19.95 19.95 0 0 1 15 352.023V148.858a19.95 19.95 0 0 1 19.93-19.93H379.1a19.95 19.95 0 0 1 19.93 19.93v203.165zM379.1 136.427H34.93c-6.854 0-12.43 5.576-12.43 12.43v203.165c0 6.854 5.576 12.43 12.43 12.43H379.1c6.854 0 12.43-5.576 12.43-12.43V148.858c0-6.854-5.576-12.43-12.43-12.43zm-344.18 10H379.1a2.44 2.44 0 0 1 2.43 2.43v48.566H32.5v-48.566c0-1.34 1.1-2.43 2.43-2.43zM379.1 354.453H34.93a2.44 2.44 0 0 1-2.43-2.43v-144.6h349.04v144.6c-.001 1.34-1.1 2.43-2.43 2.43z"/><use xlink:href="#B"/><use xlink:href="#B" x="286.486"/><path d="M108.318 187.423H305.72a5 5 0 0 0 5-5v-20.996a5 5 0 0 0-5-5H108.318a5 5 0 0 0-5 5v20.996a5 5 0 0 0 5 5zm143.924-10h-15.1v-10.996h15.1v10.996zm10-10.996h15.1v10.996h-15.1v-10.996zm-35.1 10.996h-15.1v-10.996h15.1v10.996zm-25.1 0h-15.1v-10.996h15.1v10.996zm-25.1 0h-15.1v-10.996h15.1v10.996zm-25.1 0h-15.1v-10.996h15.1v10.996zm148.924 0h-13.368v-10.996h13.368v10.996zm-187.404-10.996h13.37v10.996h-13.37v-10.996zm-25.018 79.348h130.14a5 5 0 1 0 0-10H88.304a5 5 0 1 0 0 10zm-18.98 15.86h168.1a5 5 0 1 0 0-10h-168.1a5 5 0 1 0 0 10zm176.1 5.86h-184.1a5 5 0 1 0 0 10h184.1a5 5 0 1 0 0-10zm0 15.85h-184.1a5 5 0 1 0 0 10h184.1a5 5 0 1 0 0-10zm-8 15.86H69.334a5 5 0 1 0 0 10h168.08a5 5 0 1 0 0-10zm-19 15.86h-130.1a5 5 0 1 0 0 10h130.1a5 5 0 1 0 0-10zm-90.406-85.143h50.713a5 5 0 1 0 0-10h-50.713a5 5 0 1 0 0 10zm46.76 101.096H131.97a5 5 0 1 0 0 10h42.807a5 5 0 1 0 0-10zm175.487-158.4a5 5 0 0 0 3.53-1.47c.93-.92 1.47-2.2 1.47-3.53a5.1 5.1 0 0 0-1.47-3.54 5.03 5.03 0 0 0-3.53-1.46c-1.32 0-2.6.53-3.54 1.46-.93.94-1.46 2.22-1.46 3.54s.53 2.6 1.46 3.53c.93.94 2.22 1.47 3.54 1.47zm-286.5 0c1.32 0 2.6-.53 3.54-1.46s1.46-2.22 1.46-3.54-.53-2.6-1.46-3.54c-.93-.93-2.22-1.46-3.54-1.46a5.03 5.03 0 0 0-3.53 1.46c-.93.94-1.47 2.22-1.47 3.54s.54 2.6 1.47 3.54a5.03 5.03 0 0 0 3.53 1.46z"/><defs ><path id="B" d="M63.777 193.425c11.854 0 21.5-9.645 21.5-21.5s-9.645-21.5-21.5-21.5-21.5 9.645-21.5 21.5 9.645 21.5 21.5 21.5zm0-33c6.34 0 11.5 5.158 11.5 11.5s-5.158 11.5-11.5 11.5-11.5-5.158-11.5-11.5 5.16-11.5 11.5-11.5z"/></defs></svg>