<svg xmlns="http://www.w3.org/2000/svg" viewBox="0 0 409.902 409.902"><path d="M127.393 99.533c-2.826 0-5.12 2.294-5.12 5.12v19.814c0 2.826 2.294 5.12 5.12 5.12s5.12-2.294 5.12-5.12v-19.814c0-2.826-2.294-5.12-5.12-5.12zm0 105.113c-2.826 0-5.12 2.294-5.12 5.12v19.814a5.12 5.12 0 0 0 5.12 5.12c2.826 0 5.12-2.294 5.12-5.12v-19.814c0-2.826-2.294-5.12-5.12-5.12zM307.254 0H102.648C91.866 0 83.1 8.776 83.1 19.558v340.664c0 8.197 5.08 15.206 12.252 18.115v26.45c-.005 2.826 2.3 5.115 5.115 5.115H309.44c2.826 0 5.12-2.294 5.12-5.12v-26.45c7.168-2.903 12.252-9.912 12.252-18.115V19.558C326.812 8.776 318.037 0 307.254 0zM93.33 19.558a9.33 9.33 0 0 1 9.318-9.318h204.605a9.33 9.33 0 0 1 9.318 9.318V161.54H93.33V19.558zm211 380.104H105.577v-19.88H304.32v19.88zm12.257-39.44a9.33 9.33 0 0 1-9.318 9.318h-204.6a9.33 9.33 0 0 1-9.318-9.318V171.78h223.247v188.442z"/></svg>