<svg xmlns="http://www.w3.org/2000/svg" viewBox="0 0 512 512"><path d="M458.667 301.24H53.333C23.936 301.24 0 325.176 0 354.573v42.667c0 29.397 23.936 53.333 53.333 53.333h405.333c29.397 0 53.333-23.915 53.333-53.333v-42.667c.001-29.397-23.935-53.333-53.332-53.333zm32 96c0 17.643-14.357 32-32 32H53.333c-17.643 0-32-14.357-32-32v-42.667c0-17.643 14.357-32 32-32h405.333c17.643 0 32 14.357 32 32v42.667z"/><path d="M373.333 151.907c-5.888 0-10.667 4.78-10.667 10.667v149.333c0 5.888 4.78 10.667 10.667 10.667A10.66 10.66 0 0 0 384 311.907V162.573c0-5.888-4.78-10.666-10.667-10.666z"/><circle cx="74.667" cy="375.907" r="10.667"/><circle cx="138.667" cy="375.907" r="10.667"/><circle cx="202.667" cy="375.907" r="10.667"/><circle cx="266.667" cy="375.907" r="10.667"/><path d="M437.333 365.24H330.667c-5.888 0-10.667 4.78-10.667 10.667s4.78 10.667 10.667 10.667h106.667c5.888 0 10.667-4.78 10.667-10.667s-4.78-10.667-10.668-10.667zm-96-202.667a31.84 31.84 0 0 1 9.365-22.635c4.16-4.16 4.16-10.923 0-15.083s-10.923-4.16-15.083 0C325.547 134.925 320 148.323 320 162.573a52.99 52.99 0 0 0 15.616 37.717c2.1 2.07 4.82 3.115 7.552 3.115s5.46-1.024 7.53-3.115c4.16-4.16 4.16-10.923 0-15.083-6.038-6.058-9.366-14.08-9.366-22.634zm69.717-37.717c-4.16-4.16-10.923-4.16-15.083 0s-4.16 10.923 0 15.083a31.84 31.84 0 0 1 9.365 22.635c0 8.555-3.328 16.597-9.387 22.635-4.16 4.16-4.16 10.923 0 15.083 2.1 2.07 4.82 3.115 7.552 3.115s5.46-1.024 7.552-3.115a52.99 52.99 0 0 0 15.616-37.717 52.99 52.99 0 0 0-15.615-37.72zm-90.538-15.06c4.16-4.16 4.16-10.923 0-15.083s-10.923-4.16-15.083 0c-37.42 37.44-37.42 98.325 0 135.765 2.1 2.07 4.82 3.115 7.552 3.115s5.46-1.045 7.53-3.115c4.16-4.16 4.16-10.923 0-15.083-29.1-29.12-29.1-76.48 0-105.6zm120.704-15.083c-4.16-4.16-10.923-4.16-15.083 0s-4.16 10.923 0 15.083c29.1 29.12 29.1 76.48 0 105.6-4.16 4.16-4.16 10.923 0 15.083 2.1 2.07 4.82 3.115 7.552 3.115s5.44-1.045 7.53-3.115c37.42-37.44 37.42-98.326 0-135.766zM290.347 79.63c4.16-4.16 4.16-10.923 0-15.083s-10.923-4.16-15.083 0c-54.06 54.06-54.06 142.037 0 196.096 2.1 2.07 4.82 3.115 7.552 3.115s5.46-1.045 7.53-3.115c4.16-4.16 4.16-10.923 0-15.083-45.76-45.738-45.76-120.17 0-165.93zM471.38 64.547c-4.16-4.16-10.923-4.16-15.083 0s-4.16 10.923 0 15.083c45.76 45.74 45.76 120.17 0 165.93-4.16 4.16-4.16 10.923 0 15.083 2.1 2.07 4.82 3.115 7.552 3.115s5.46-1.045 7.53-3.115c54.06-54.06 54.06-142.04 0-196.097z"/></svg>