<svg xmlns="http://www.w3.org/2000/svg" xmlns:xlink="http://www.w3.org/1999/xlink" viewBox="0 0 511 511"><path d="M471.5 32h-432C17.72 32 0 49.72 0 71.5v368C0 461.28 17.72 479 39.5 479h432c21.78 0 39.5-17.72 39.5-39.5v-368c0-21.78-17.72-39.5-39.5-39.5zM496 439.5c0 13.5-11 24.5-24.5 24.5h-432C26 464 15 453 15 439.5v-368C15 58 26 47 39.5 47h432C485 47 496 58 496 71.5v368zM439.5 144H317.174c3.948-8.312 3.505-18.23-1.7-26.4l-31.02-48.744a7.5 7.5 0 0 0-1.024-1.277c-15.4-15.4-40.46-15.4-55.86 0-7.543 7.542-11.382 17.402-11.536 27.3-.034.417-.042.84-.005 1.272l.008.086c.034 1.82.2 3.636.473 5.438L220.2 144H71.5C58.542 144 48 154.542 48 167.5v232c0 12.958 10.542 23.5 23.5 23.5h368c12.958 0 23.5-10.542 23.5-23.5v-232c0-12.958-10.542-23.5-23.5-23.5zm-184-73a24.32 24.32 0 0 1 16.77 6.64l30.548 48.004c3.15 4.95 2.452 11.302-1.725 15.48a12.34 12.34 0 0 1-15.45 1.696l-48.003-30.55c-3.23-3.435-5.36-7.647-6.214-12.204l-.42-4.82A24.33 24.33 0 0 1 255.5 71zm19.405 82.766l-9.5 109.145c-.45 5.182-4.713 9.1-9.915 9.1s-9.464-3.908-9.915-9.1l-11.764-135.3 41.085 26.144zM448 399.5a8.51 8.51 0 0 1-8.5 8.5h-368a8.51 8.51 0 0 1-8.5-8.5v-232a8.51 8.51 0 0 1 8.5-8.5h149.993l9.15 105.2c1.13 12.992 11.816 22.8 24.858 22.8s23.728-9.798 24.858-22.8l9.094-104.578c.96.103 1.924.17 2.887.17 2.24 0 4.472-.28 6.648-.83.174.012.348.026.525.026H439.5a8.51 8.51 0 0 1 8.5 8.5v232z"/><use xlink:href="#B"/><use xlink:href="#B" y="24"/><use xlink:href="#B" y="48"/><use xlink:href="#B" x="272"/><use xlink:href="#B" x="272" y="24"/><use xlink:href="#B" x="272" y="48"/><path d="M255.5 103a7.51 7.51 0 0 0 5.3-2.2 7.53 7.53 0 0 0 2.2-5.3 7.51 7.51 0 0 0-2.2-5.3 7.53 7.53 0 0 0-10.6 0 7.53 7.53 0 0 0 0 10.6 7.53 7.53 0 0 0 5.3 2.2z"/><defs ><path id="B" d="M71.5 79h96a7.5 7.5 0 1 0 0-15h-96a7.5 7.5 0 1 0 0 15z"/></defs></svg>