<svg xmlns="http://www.w3.org/2000/svg" viewBox="0 0 512 512"><path d="M256.002 418.133c-15.662 0-28.404 12.74-28.404 28.403s12.742 28.403 28.404 28.403 28.403-12.74 28.403-28.403-12.742-28.403-28.403-28.403zm0 37.136c-4.816 0-8.734-3.918-8.734-8.733s3.918-8.733 8.734-8.733 8.733 3.918 8.733 8.733a8.75 8.75 0 0 1-8.733 8.733zm46.585-414.822h-50.403c-5.734 0-10.382 4.648-10.382 10.382s4.65 10.382 10.382 10.382h50.403c5.734 0 10.382-4.648 10.382-10.382s-4.648-10.382-10.382-10.382z"/><circle cx="220.312" cy="51.085" r="10.899"/><path d="M377.1 0H134.9c-18.077 0-32.784 14.707-32.784 32.784v446.43c0 18.077 14.707 32.784 32.784 32.784h242.2c18.077 0 32.784-14.707 32.784-32.784V32.784C409.885 14.707 395.178 0 377.1 0zm10.928 479.216c0 6.026-4.902 10.928-10.928 10.928H134.9c-6.026 0-10.928-4.902-10.928-10.928V32.784c0-6.026 4.902-10.928 10.928-10.928h242.2c6.026 0 10.928 4.902 10.928 10.928v446.432zm-113.6-274.012c-4.27-4.266-11.186-4.266-15.456 0L206.468 257.7a10.93 10.93 0 0 0 .001 15.455c2.134 2.134 4.93 3.202 7.727 3.202s5.594-1.068 7.727-3.2l52.494-52.495c4.268-4.268 4.268-11.188.001-15.456zm31.114 30.422c-4.268-4.266-11.186-4.266-15.456 0l-20.912 20.912c-4.266 4.267-4.266 11.187.001 15.456a10.9 10.9 0 0 0 15.454 0l20.912-20.912a10.93 10.93 0 0 0 .001-15.456zm49.834-154.734h-198.73c-5.432 0-9.835 4.403-9.835 9.835v301.275c0 5.432 4.403 9.835 9.835 9.835h198.73c5.432 0 9.835-4.403 9.835-9.835V90.727a9.84 9.84 0 0 0-9.835-9.835zm-9.836 301.275H166.47V100.563h179.06v281.604z"/></svg>