<svg xmlns="http://www.w3.org/2000/svg" height="682.667" viewBox="-51 0 512 512" width="682.667"><path d="M128 392.535h153.602c32.973-.04 59.695-26.762 59.73-59.734V179.2c-.035-32.973-26.758-59.695-59.73-59.734H128c-32.973.04-59.695 26.762-59.734 59.734v153.6c.04 32.973 26.762 59.695 59.734 59.734zM85.332 179.2c.03-23.55 19.117-42.637 42.668-42.664h153.602c23.55.027 42.637 19.113 42.664 42.664v153.6c-.027 23.55-19.113 42.637-42.664 42.664H128c-23.55-.027-42.637-19.113-42.668-42.664zm-51.2 119.468V332.8c.074 45.3 32.46 84.102 77.023 92.27a272.93 272.93 0 0 0 13.004 69.387A25.6 25.6 0 0 0 148.48 512h112.64c11.047.016 20.86-7.06 24.336-17.543a272.93 272.93 0 0 0 13.004-69.387c44.555-8.172 76.934-46.973 77.004-92.27H384c14.137 0 25.602-11.46 25.602-25.602v-17.066c0-14.137-11.465-25.598-25.602-25.598h-8.535v-17.07H384c14.137 0 25.602-11.46 25.602-25.598V204.8c0-14.14-11.465-25.602-25.602-25.602h-8.535c-.07-45.3-32.46-84.102-77.02-92.27a272.93 272.93 0 0 0-13.004-69.387A25.61 25.61 0 0 0 261.121 0H148.48a25.6 25.6 0 0 0-24.32 17.543 272.93 272.93 0 0 0-13.004 69.387c-44.562 8.168-76.95 46.97-77.023 92.27v34.133h-8.53C11.46 213.332 0 224.793 0 238.934v34.133c0 14.14 11.46 25.602 25.602 25.602zm235.12 190.395c-1.156 3.512-4.437 5.883-8.133 5.87H148.48c-3.703.02-6.996-2.352-8.148-5.87a258.41 258.41 0 0 1-11.965-62.395h152.875a258.07 258.07 0 0 1-11.988 62.395zM384 281.602a8.54 8.54 0 0 1 8.535 8.531V307.2a8.54 8.54 0 0 1-8.535 8.535h-8.535v-34.133zm0-85.336a8.54 8.54 0 0 1 8.535 8.535v17.066a8.54 8.54 0 0 1-8.535 8.531h-8.535v-34.133zM140.348 22.938a8.53 8.53 0 0 1 8.133-5.87h112.64c3.703-.02 6.992 2.355 8.148 5.87a258.55 258.55 0 0 1 11.965 62.395H128.36a257.73 257.73 0 0 1 11.988-62.395zM51.2 179.2c.05-42.395 34.406-76.746 76.8-76.8h153.602c42.4.055 76.746 34.406 76.797 76.8v153.6c-.05 42.395-34.406 76.746-76.797 76.8H128c-42.395-.055-76.75-34.406-76.8-76.8zm-34.133 93.867v-34.133c0-4.715 3.82-8.535 8.535-8.535h8.53v51.203h-8.53c-4.715 0-8.535-3.82-8.535-8.535zM128 349.867h51.2c4.715 0 8.535-3.82 8.535-8.535a8.53 8.53 0 0 0-8.535-8.53H128a8.54 8.54 0 0 0-8.535 8.531 8.54 8.54 0 0 0 8.535 8.535zm59.734-179.2h34.133c4.7 0 8.53-3.82 8.53-8.535a8.53 8.53 0 0 0-8.53-8.53h-34.133c-4.715 0-8.535 3.82-8.535 8.53a8.54 8.54 0 0 0 8.535 8.535zm0 0"/><path d="M227.926 335.273c-3.348-3.344-8.773-3.344-12.117 0a8.57 8.57 0 0 0 0 12.117c.828.754 1.78 1.36 2.816 1.793a8.04 8.04 0 0 0 6.484 0 7.69 7.69 0 0 0 4.609-4.609 8.04 8.04 0 0 0 0-6.484 9.92 9.92 0 0 0-1.793-2.816zm34.134 0a8.57 8.57 0 0 0-14.337 3.845c-.794 2.958.055 6.1 2.22 8.273.828.754 1.78 1.36 2.816 1.793a8.04 8.04 0 0 0 6.484 0 7.69 7.69 0 0 0 4.609-4.609 8.04 8.04 0 0 0 0-6.484 9.92 9.92 0 0 0-1.793-2.816zm13.483 0c-3.3 3.367-3.3 8.754 0 12.117a9.85 9.85 0 0 0 2.813 1.793 8.05 8.05 0 0 0 6.488 0 7.67 7.67 0 0 0 4.605-4.609 8.01 8.01 0 0 0 0-6.484 9.91 9.91 0 0 0-1.789-2.816 8.94 8.94 0 0 0-12.117 0zm-121.94-53.67c-4.715 0-8.535 3.82-8.535 8.53a8.54 8.54 0 0 0 8.535 8.535h34.133c4.7 0 8.53-3.82 8.53-8.535a8.53 8.53 0 0 0-8.53-8.53H179.2v-85.336c0-3.758-2.46-7.078-6.06-8.168s-7.488.305-9.574 3.434L146.5 217.13c-2.617 3.922-1.56 9.223 2.363 11.836s9.223 1.56 11.836-2.363l1.434-2.176v57.176zm0 0"/><path d="M204.8 221.867c0 4.71 3.82 8.53 8.53 8.53s8.535-3.82 8.535-8.53a17.07 17.07 0 0 1 17.066-17.066c9.176.574 16.492 7.89 17.066 17.066 0 16.043-24.637 46.684-40.176 62.234-2.44 2.44-3.168 6.113-1.848 9.3s4.438 5.266 7.89 5.266h51.2c4.715 0 8.535-3.82 8.535-8.535s-3.82-8.53-8.535-8.53h-31.793c13.422-15.703 31.793-40.672 31.793-59.734-.45-18.664-15.473-33.684-34.133-34.133-18.852 0-34.133 15.28-34.133 34.133zm0 0"/></svg>