<svg xmlns="http://www.w3.org/2000/svg" viewBox="0 0 480 480"><path d="M407.367 110.274c-.362-3.265-2.685-5.977-5.856-6.836l-21.625-5.883-1.7-4.066 11.156-19.477c1.797-3.133 1.27-7.08-1.285-9.633L375.57 51.895c-2.55-2.562-6.502-3.1-9.633-1.285l-19.473 11.156-4.066-1.703-5.883-21.625a8 8 0 0 0-6.84-5.855 88.9 88.9 0 0 0-19.445 0 8 8 0 0 0-6.844 5.855l-5.883 21.625-4.066 1.703L273.964 50.6a7.97 7.97 0 0 0-9.633 1.285L251.847 64.38c-2.555 2.552-3.082 6.5-1.285 9.633l11.156 19.476a64.47 64.47 0 0 0-1.703 4.066l-21.625 5.88c-3.17.86-5.493 3.57-5.855 6.836-.715 6.466-.715 13 0 19.457.362 3.265 2.685 5.977 5.855 6.836l21.625 5.883c.516 1.363 1.086 2.723 1.703 4.066L250.562 166c-1.797 3.133-1.27 7.08 1.285 9.633l12.484 12.484a8 8 0 0 0 9.633 1.285l19.473-11.156a64.47 64.47 0 0 0 4.066 1.703l5.883 21.625a8 8 0 0 0 6.84 5.855c6.462.708 12.983.708 19.445 0a8 8 0 0 0 6.844-5.855l5.883-21.625c1.363-.516 2.723-1.086 4.066-1.703l19.473 11.156c3.134 1.792 7.08 1.266 9.633-1.285l12.488-12.484c2.555-2.552 3.082-6.5 1.285-9.633l-11.156-19.476c.617-1.344 1.184-2.7 1.7-4.066l21.625-5.883a8 8 0 0 0 5.856-6.836 88.48 88.48 0 0 0 0-19.453zm-15.512 12.34l-20.285 5.512c-2.683.728-4.795 2.797-5.578 5.465a47.65 47.65 0 0 1-3.902 9.348 8 8 0 0 0 .082 7.81l10.246 17.887-3.836 3.836-17.883-10.246a7.98 7.98 0 0 0-7.801-.086 47.81 47.81 0 0 1-9.355 3.906c-2.666.784-4.734 2.894-5.465 5.574l-5.52 20.285a72.08 72.08 0 0 1-5.219 0l-5.515-20.28c-.728-2.683-2.797-4.795-5.465-5.578a47.81 47.81 0 0 1-9.355-3.906 7.98 7.98 0 0 0-7.801.086L271.32 172.47l-3.836-3.836 10.246-17.887a8 8 0 0 0 .086-7.801 47.81 47.81 0 0 1-3.906-9.355c-.783-2.668-2.895-4.737-5.578-5.465l-20.285-5.516c-.062-1.738-.062-3.48 0-5.223l20.285-5.512c2.683-.728 4.795-2.797 5.578-5.465a47.81 47.81 0 0 1 3.906-9.355 8 8 0 0 0-.086-7.801l-10.246-17.886 3.836-3.836 17.883 10.246a8 8 0 0 0 7.801.086 47.81 47.81 0 0 1 9.355-3.906c2.668-.783 4.737-2.895 5.465-5.578l5.516-20.28a72.19 72.19 0 0 1 5.223 0l5.516 20.28c.728 2.683 2.797 4.795 5.465 5.578a47.81 47.81 0 0 1 9.355 3.906 8 8 0 0 0 7.801-.086l17.883-10.246 3.836 3.836-10.246 17.887a8 8 0 0 0-.082 7.81 47.65 47.65 0 0 1 3.902 9.348c.783 2.668 2.895 4.737 5.578 5.465l20.285 5.516c.062 1.736.062 3.477-.001 5.22zM320.047 88c-17.673 0-32 14.327-32 32 .02 17.665 14.335 31.98 32 32 17.673 0 32-14.327 32-32s-14.327-32-32-32zm0 48c-8.837 0-16-7.163-16-16a16.02 16.02 0 0 1 16-16c8.837 0 16 7.163 16 16s-7.164 16-16 16zM400 32h16v16h-16zm32 0h16v16h-16zM208 424H8a8 8 0 0 0-8 8v40a8 8 0 0 0 8 8h200a8 8 0 0 0 8-8v-40a8 8 0 0 0-8-8zm-8 40H16v-24h184v24zM472 0H168a8 8 0 0 0-8 8v181c-45.9-26.465-104.545-10.717-131 35.173s-10.717 104.545 35.173 131 104.545 10.717 131-35.173c8.417-14.596 12.84-31.15 12.827-48h88v48h-56a8 8 0 0 0-8 8v40a8 8 0 0 0 8 8h160a8 8 0 0 0 8-8v-40a8 8 0 0 0-8-8h-48v-48h120a8 8 0 0 0 8-8V8a8 8 0 0 0-8-8zM112 352c-44.183 0-80-35.817-80-80s35.817-80 80-80 80 35.817 80 80c-.05 44.162-35.838 79.95-80 80zm280-16v24H248v-24h144zm-80-16v-48h24v48h-24zm152-64H206.555c-.918-5.444-2.308-10.797-4.156-16H464v16zm0-32H195a96.52 96.52 0 0 0-19-23.35V16h288v208zm-352 16c-17.673 0-32 14.327-32 32s14.327 32 32 32 32-14.327 32-32c-.02-17.665-14.335-31.98-32-32zm0 48c-8.837 0-16-7.163-16-16s7.163-16 16-16 16 7.163 16 16a16.02 16.02 0 0 1-16 16zm-96 64h16v56H16zm168 0h16v56h-16zm-32 24h16v32h-16zm-104 0h16v32H48zm32 16h16v16H80zm40 0h16v16h-16zm348.285-2.9c-15.633-15.594-40.937-15.594-56.57 0L389.1 411.715c-15.578 15.663-15.5 41 .154 56.568 15.602 15.518 40.8 15.52 56.413.002l22.63-22.63c15.596-15.63 15.596-40.936-.001-56.566zm-18.012 6.7l-15.93 15.93-11.316-11.316a23.97 23.97 0 0 1 27.245-4.613zm-15.93 61.183c-9.36 9.385-24.558 9.404-33.943.043s-9.404-24.558-.043-33.943l11.358-11.358 33.943 33.943-11.315 11.315zm22.63-22.63l-.002.002-11.315-11.315 15.93-15.93a23.97 23.97 0 0 1-4.613 27.243z"/></svg>