<svg xmlns="http://www.w3.org/2000/svg" xmlns:xlink="http://www.w3.org/1999/xlink" viewBox="0 0 473 473"><use xlink:href="#B"/><path d="M55.003 74.28a5.03 5.03 0 0 0 3.53-1.46c.93-.94 1.47-2.23 1.47-3.54s-.54-2.6-1.47-3.54c-.93-.93-2.22-1.46-3.53-1.46-1.32 0-2.6.53-3.54 1.46s-1.46 2.22-1.46 3.54.53 2.6 1.46 3.54c.93.93 2.22 1.46 3.54 1.46z"/><use xlink:href="#B" y="52.484"/><path d="M55.003 126.76a5.03 5.03 0 0 0 3.53-1.46c.93-.93 1.47-2.22 1.47-3.54a5.04 5.04 0 0 0-1.47-3.53c-.93-.93-2.22-1.47-3.53-1.47-1.32 0-2.6.54-3.54 1.47a5.03 5.03 0 0 0-1.46 3.53c0 1.32.53 2.6 1.46 3.54s2.22 1.46 3.54 1.46z"/><use xlink:href="#B" y="104.968"/><path d="M55.003 179.25a5.04 5.04 0 0 0 5-5c0-1.32-.54-2.6-1.47-3.54s-2.22-1.46-3.53-1.46c-1.32 0-2.6.53-3.54 1.46s-1.46 2.22-1.46 3.54a5.03 5.03 0 0 0 1.46 3.53c.93.93 2.22 1.47 3.54 1.47z"/><use xlink:href="#B" y="157.452"/><path d="M55.003 231.73a5.03 5.03 0 0 0 3.53-1.46c.93-.94 1.47-2.22 1.47-3.54a5.04 5.04 0 0 0-5-5c-1.32 0-2.6.54-3.54 1.47-.93.92-1.46 2.2-1.46 3.53s.53 2.6 1.46 3.54 2.22 1.46 3.54 1.46zM102.5 432.7H79V270.037c9.895-1.542 17.5-10.097 17.5-20.418V45.998c0-11.408-9.28-20.7-20.7-20.7H34.2c-11.408 0-20.7 9.28-20.7 20.7v203.62c0 10.32 7.605 18.876 17.5 20.418V432.69H7.5a7.5 7.5 0 1 0 0 15h95a7.5 7.5 0 1 0 0-15.001zm-74-183.072V45.998a5.7 5.7 0 0 1 5.689-5.689H75.8a5.7 5.7 0 0 1 5.69 5.69v203.62a5.7 5.7 0 0 1-5.689 5.689H34.2a5.7 5.7 0 0 1-5.69-5.69zM46 432.7V270.3h18v162.383H46z"/><use xlink:href="#B" x="363"/><path d="M418.003 74.28a5 5 0 0 0 3.53-1.47 5.04 5.04 0 0 0 1.47-3.53c0-1.32-.54-2.6-1.47-3.54-.93-.93-2.21-1.46-3.53-1.46s-2.6.53-3.54 1.46c-.93.94-1.46 2.22-1.46 3.54a5.03 5.03 0 0 0 1.46 3.53c.93.94 2.22 1.47 3.54 1.47z"/><use xlink:href="#B" x="363" y="52.484"/><path d="M418.003 126.76a5.03 5.03 0 0 0 3.53-1.46c.93-.93 1.47-2.22 1.47-3.54a5.04 5.04 0 0 0-1.47-3.53c-.93-.93-2.21-1.47-3.53-1.47s-2.6.54-3.54 1.47a5.03 5.03 0 0 0-1.46 3.53c0 1.32.53 2.6 1.46 3.54s2.22 1.46 3.54 1.46z"/><use xlink:href="#B" x="363" y="104.968"/><path d="M418.003 179.25a5.04 5.04 0 0 0 5-5c0-1.32-.54-2.6-1.47-3.54s-2.21-1.46-3.53-1.46-2.6.53-3.54 1.46-1.46 2.22-1.46 3.54a5.03 5.03 0 0 0 1.46 3.53c.93.93 2.22 1.47 3.54 1.47z"/><use xlink:href="#B" x="363" y="157.452"/><path d="M418.003 231.73a5.03 5.03 0 0 0 3.53-1.46c.93-.94 1.47-2.22 1.47-3.54a5.04 5.04 0 0 0-1.47-3.53c-.93-.93-2.2-1.47-3.53-1.47s-2.6.54-3.54 1.47a5.03 5.03 0 0 0-1.46 3.53c0 1.32.53 2.6 1.46 3.54s2.22 1.46 3.54 1.46zM465.5 432.7H442V270.037c9.895-1.542 17.5-10.097 17.5-20.418V45.998c0-11.408-9.28-20.7-20.7-20.7h-41.6c-11.408 0-20.7 9.28-20.7 20.7v203.62c0 10.32 7.605 18.876 17.5 20.418V432.69h-23.5a7.5 7.5 0 1 0 0 15h95a7.5 7.5 0 1 0 0-15zm-74-183.072V45.998a5.7 5.7 0 0 1 5.689-5.689h41.62a5.7 5.7 0 0 1 5.69 5.69v203.62a5.7 5.7 0 0 1-5.689 5.689H397.2a5.7 5.7 0 0 1-5.69-5.69zM409 432.7V270.3h18v162.383h-18zm-71.086-68H316.7V238.893a19.61 19.61 0 0 0-19.584-19.584H175.893a19.61 19.61 0 0 0-19.584 19.584v125.8h-21.223c-11.47 0-20.8 9.33-20.8 20.8v41.398c0 11.47 9.33 20.8 20.8 20.8h202.828c11.47 0 20.8-9.33 20.8-20.8v-41.398a20.83 20.83 0 0 0-20.801-20.802zM171.3 238.893a4.59 4.59 0 0 1 4.584-4.584H297.11a4.59 4.59 0 0 1 4.584 4.584v125.8H171.3v-125.8zM343.715 426.9a5.81 5.81 0 0 1-5.801 5.801H135.086a5.81 5.81 0 0 1-5.801-5.801v-41.398a5.81 5.81 0 0 1 5.801-5.801h202.828a5.81 5.81 0 0 1 5.801 5.801V426.9zm-28.49-42.7c-12.13 0-22 9.87-22 22s9.87 22 22 22 22-9.87 22-22-9.87-22-22-22zm0 34c-6.617 0-12-5.383-12-12s5.383-12 12-12 12 5.383 12 12-5.383 12-12 12zm-.003-17c-1.32 0-2.6.54-3.53 1.47s-1.47 2.2-1.47 3.53.54 2.6 1.47 3.54 2.22 1.46 3.53 1.46c1.32 0 2.6-.53 3.54-1.46.93-.93 1.46-2.22 1.46-3.54a5.03 5.03 0 0 0-1.46-3.53c-.93-.93-2.22-1.47-3.54-1.47zm-157.45-17c-12.13 0-22 9.87-22 22s9.87 22 22 22 22-9.87 22-22-9.87-22-22-22zm0 34c-6.617 0-12-5.383-12-12s5.383-12 12-12 12 5.383 12 12-5.382 12-12 12zm-.001-17a5.05 5.05 0 0 0-3.54 1.47c-.93.92-1.46 2.2-1.46 3.53s.53 2.6 1.46 3.54a5.04 5.04 0 0 0 3.54 1.46c1.32 0 2.6-.53 3.54-1.46s1.46-2.22 1.46-3.54a5.05 5.05 0 0 0-1.46-3.53c-.93-.93-2.22-1.47-3.54-1.47zm129.074-127.702l1.23-1.23a17.1 17.1 0 0 0 5.042-12.167 17.09 17.09 0 0 0-5.043-12.167c-3.253-3.253-7.57-5.04-12.166-5.04a17.09 17.09 0 0 0-12.166 5.039l-1.23 1.23c-7.797-4.045-16.64-6.346-26.012-6.346a56.32 56.32 0 0 0-26.009 6.344l-1.23-1.23c-6.712-6.712-17.633-6.7-24.343 0s-6.712 17.632 0 24.344l1.23 1.23a56.32 56.32 0 0 0-6.34 26.003 56.37 56.37 0 0 0 6.342 26.006l-1.233 1.233c-6.712 6.712-6.712 17.632 0 24.344 3.355 3.356 7.764 5.033 12.17 5.033s8.816-1.678 12.173-5.034l1.233-1.233c7.795 4.043 16.634 6.342 26.005 6.342a56.26 56.26 0 0 0 26-6.344l1.234 1.234a17.1 17.1 0 0 0 12.167 5.042 17.09 17.09 0 0 0 12.166-5.042c6.7-6.7 6.7-17.624 0-24.333l-1.232-1.232c4.046-7.798 6.348-16.64 6.348-26.016a56.3 56.3 0 0 0-6.346-26.012zm-5.843-18.492a7.16 7.16 0 0 1 2.114 5.095c0 1.767-.64 3.433-1.8 4.75-2.945-3.8-6.36-7.213-10.158-10.158 2.828-2.484 7.147-2.386 9.845.313zm-89.014-.001c2.702-2.702 7.026-2.8 9.855-.313a57.17 57.17 0 0 0-10.168 10.169 7.22 7.22 0 0 1 .313-9.856zm-.001 89.016c-1.36-1.36-2.1-3.172-2.1-5.1a7.16 7.16 0 0 1 1.8-4.76 57.14 57.14 0 0 0 10.169 10.169c-2.83 2.493-7.158 2.394-9.86-.3zm-2.18-44.5c0-25.746 20.945-46.7 46.7-46.7s46.7 20.946 46.7 46.7-20.945 46.7-46.7 46.7-46.7-20.945-46.7-46.7zm91.196 44.5c-1.362 1.363-3.172 2.113-5.095 2.113a7.15 7.15 0 0 1-4.755-1.804 57.23 57.23 0 0 0 10.16-10.158 7.21 7.21 0 0 1-.309 9.849zM236.5 259.44c-22.1 0-40.06 17.97-40.06 40.06s17.97 40.06 40.06 40.06 40.06-17.97 40.06-40.06-17.97-40.06-40.06-40.06zm0 70.118c-16.575 0-30.06-13.484-30.06-30.06s13.484-30.06 30.06-30.06 30.06 13.484 30.06 30.06-13.485 30.06-30.06 30.06zm0-48.558c-10.195 0-18.5 8.294-18.5 18.5a18.52 18.52 0 0 0 18.5 18.5c10.205 0 18.5-8.294 18.5-18.5s-8.294-18.5-18.5-18.5zm0 26.98a8.5 8.5 0 0 1-8.49-8.49c0-4.68 3.8-8.5 8.5-8.5a8.5 8.5 0 0 1 8.489 8.49 8.5 8.5 0 0 1-8.489 8.49zm36.5 80.7h-73a5 5 0 0 0-5 5v25a5 5 0 0 0 5 5h73a5 5 0 0 0 5-5v-25a5 5 0 0 0-5-5zm-5 25h-63v-15h63v15z"/><defs ><path id="B" d="M55 91.278c12.13 0 22-9.87 22-22s-9.87-22-22-22-22 9.87-22 22 9.87 22 22 22zm0-34c6.617 0 12 5.383 12 12s-5.383 12-12 12-12-5.383-12-12 5.383-12 12-12z"/></defs></svg>