<svg xmlns="http://www.w3.org/2000/svg" viewBox="0 0 443.979 443.979"><path d="M372.72 0H71.26C56.78 0 45 11.78 45 26.26v391.457c0 14.48 11.78 26.26 26.26 26.26h301.46c14.48 0 26.26-11.78 26.26-26.26V26.26C398.98 11.78 387.2 0 372.72 0zm11.26 417.718c0 6.2-5.052 11.26-11.26 11.26H71.26c-6.2 0-11.26-5.052-11.26-11.26V26.26C60 20.05 65.052 15 71.26 15h301.46c6.2 0 11.26 5.052 11.26 11.26v391.457zm-14.998-369.8H74.997a5 5 0 0 0-5 5V391.07a5 5 0 0 0 5 5h293.985a5 5 0 0 0 5-5V52.908a5 5 0 0 0-5-5zm-5 338.163H79.997V57.908h283.985V386.07zm-142 20.407a7.55 7.55 0 0 0-5.31 2.2 7.56 7.56 0 0 0 0 10.6 7.55 7.55 0 0 0 5.31 2.2 7.53 7.53 0 0 0 5.3-12.8c-1.4-1.4-3.33-2.2-5.3-2.2zm0-369.23a5.03 5.03 0 0 0 3.53-1.46c.93-.93 1.47-2.22 1.47-3.54s-.54-2.6-1.47-3.54a5.03 5.03 0 0 0-3.53-1.46c-1.32 0-2.6.53-3.54 1.46s-1.46 2.22-1.46 3.54.53 2.6 1.46 3.54 2.22 1.46 3.54 1.46z"/></svg>