<svg xmlns="http://www.w3.org/2000/svg" height="661.333" viewBox="0 0 496 496" width="661.333"><path d="M472 416c-2.816 0-5.488.574-8 1.473V360c0-10.414-6.7-19.215-16-22.527V216c0-17.602-6.367-33.72-16.887-46.238C460.473 157.496 480 128.855 480 96V80c0-44.113-35.887-80-80-80s-80 35.887-80 80v32h-12.328L277.36 58.113C257.2 22.266 219.13 0 178 0 115.145 0 64 51.145 64 114v30H48v177.473c-9.3 3.313-16 12.113-16 22.527v24H16a16.02 16.02 0 0 0-16 16v32a16.02 16.02 0 0 0 16 16h1.762l7.992 32h124.492l7.992-32H160a16.02 16.02 0 0 0 16-16v-32a16.02 16.02 0 0 0-16-16h-16v-24c0-10.414-6.7-19.215-16-22.527V144h-16v-30c0-36.4 29.6-66 66.008-66 23.8 0 45.848 12.887 57.52 33.64l40.55 72.047C254.55 166.152 240 189.383 240 216v121.473c-9.3 3.313-16 12.113-16 22.527v57.473c-2.512-.898-5.184-1.473-8-1.473-13.23 0-24 10.77-24 24v32c0 13.23 10.77 24 24 24s24-10.77 24-24v-5.336C257.742 471.426 296.313 480 344 480s86.258-8.574 104-13.336V472c0 13.23 10.77 24 24 24s24-10.77 24-24v-32c0-13.23-10.77-24-24-24zM336 80c0-35.3 28.7-64 64-64s64 28.7 64 64v16c0 28.863-18.855 53.6-46.246 61.457-9.746-6.97-21.258-11.594-33.754-12.984V144h16c26.473 0 48-21.527 48-48V80c0-26.473-21.527-48-48-48s-48 21.527-48 48v32h-16zm32 32V80c0-17.648 14.352-32 32-32s32 14.352 32 32v16c0 17.648-14.352 32-32 32h-16v-16zm0 16v16h-48v-16zm-256 32v160H64V160zm25.754 288H38.246l-4.008-16h107.516zm22.262-32H16v-32h144zM48 368v-24a8.01 8.01 0 0 1 8-8h64a8.01 8.01 0 0 1 8 8v24zM249.48 73.8C234.97 48.016 207.586 32 178.008 32 132.793 32 96 68.785 96 114v30H80v-30c0-54.04 43.97-98 98.008-98 35.352 0 68.082 19.145 85.418 49.953L304 138.1v6.383c-4.55.504-8.984 1.414-13.238 2.727zM312 160h64c30.87 0 56 25.13 56 56v120h-16V224c0-26.473-21.527-48-48-48h-48c-26.473 0-48 21.527-48 48v112h-16V216c0-30.87 25.13-56 56-56zm91.055 208h-118.1l-8-16h134.1zM400 336h-16v-48h-80v48h-16V224c0-17.648 14.352-32 32-32h48c17.648 0 32 14.352 32 32zm-32 0h-48v-32h48zM224 472a8.01 8.01 0 0 1-8 8 8.01 8.01 0 0 1-8-8v-32a8.01 8.01 0 0 1 8-8 8.01 8.01 0 0 1 8 8zm16-32v-80a8.01 8.01 0 0 1 8-8h11.055L272 377.887v79.465c-14.695-2.687-25.824-5.56-32-7.305zm48 19.945V384h112v75.953c-16.215 2.313-35.246 4.047-56 4.047-20.727 0-39.77-1.742-56-4.055zm128-2.578v-79.48L428.945 352H440a8.01 8.01 0 0 1 8 8v90.055c-6.168 1.746-17.3 4.625-32 7.313zM480 472a8.01 8.01 0 0 1-8 8 8.01 8.01 0 0 1-8-8v-32a8.01 8.01 0 0 1 8-8 8.01 8.01 0 0 1 8 8zm-136-72c-13.23 0-24 10.77-24 24s10.77 24 24 24 24-10.77 24-24-10.77-24-24-24zm0 32a8.01 8.01 0 0 1-8-8 8.01 8.01 0 0 1 8-8 8.01 8.01 0 0 1 8 8 8.01 8.01 0 0 1-8 8zm0 0"/><path d="M344 208c-17.648 0-32 14.352-32 32s14.352 32 32 32 32-14.352 32-32-14.352-32-32-32zm0 48a16.02 16.02 0 0 1-16-16 16.02 16.02 0 0 1 16-16 16.02 16.02 0 0 1 16 16 16.02 16.02 0 0 1-16 16zm0 0"/></svg>