<svg xmlns="http://www.w3.org/2000/svg" height="661.333" viewBox="0 0 496.005 496" width="661.333"><path d="M488.004 261.523V96.004c0-19.32-13.766-35.48-32-39.195V16.004a16.02 16.02 0 0 0-16-16h-32a16.02 16.02 0 0 0-16 16V56.8c-18.23 3.715-32 19.883-32 39.195v63.277c-16.566-9.656-35.695-15.277-56-15.277-45.758 0-85.848 27.23-103.113 68.125-20.484-26.758-52.652-44.125-88.887-44.125-61.758 0-112 50.238-112 112 0 11.2 1.633 22.16 4.848 32.7-1.453.633-2.742 1.633-3.613 3.016-1.465 2.32-1.64 5.23-.465 7.7l80 168c1.336 2.785 4.145 4.563 7.23 4.563h232c3.1 0 5.898-1.777 7.227-4.562l5.324-11.184c8.785 9.64 21.402 15.746 35.45 15.746h80c26.473 0 48-21.53 48-48v-160a47.69 47.69 0 0 0-8-26.48zm-16-15.023c-7.07-4.105-15.254-6.496-24-6.496h-24v-120h48zm-32-230.496v40h-32v-40zm-64 80c0-13.234 10.77-24 24-24h48c13.234 0 24 10.766 24 24v8h-56a8 8 0 0 0-8 8V214.7c-6.9-17.258-18.03-32.336-32-44.12zm-72 64c46.97 0 86.96 34.504 94.64 80h-30.64c-26.473 0-48 21.527-48 48v24H219.332a111.63 111.63 0 0 0 4.672-32c0-18.203-4.457-35.344-12.2-50.555 11.754-41.094 48.984-69.445 92.2-69.445zm32 240c13.234 0 24 10.766 24 24s-10.766 24-24 24zm-224-216c52.938 0 96 43.063 96 96 0 11.03-1.953 21.75-5.582 32H21.6c-3.633-10.25-5.586-20.97-5.586-32 0-52.937 43.066-96 96-96zm208 144v16H28.293l-7.617-16zm-5.055 152H93.06l-57.14-120h284.086v88c0 5.512.984 10.8 2.695 15.72zm165.055-32c0 17.645-14.352 32-32 32h-80c-11.97 0-22.297-6.672-27.785-16.426 20.06-2.145 35.785-18.97 35.785-39.574 0-22.06-17.945-40-40-40v-96c0-17.648 14.352-32 32-32h80c17.648 0 32 14.352 32 32zm-48-128c0-17.648-14.352-32-32-32s-32 14.352-32 32 14.352 32 32 32 32-14.355 32-32zm-48 0a16.02 16.02 0 0 1 16-16 16.02 16.02 0 0 1 16 16 16.02 16.02 0 0 1-16 16 16.02 16.02 0 0 1-16-16zm0 0"/><path d="M432.004 384.004c-17.648 0-32 14.352-32 32s14.352 32 32 32 32-14.355 32-32-14.352-32-32-32zm0 48a16.02 16.02 0 0 1-16-16 16.02 16.02 0 0 1 16-16 16.02 16.02 0 0 1 16 16 16.02 16.02 0 0 1-16 16zm-384-336c26.473 0 48-21.53 48-48s-21.527-48-48-48-48 21.527-48 48 21.527 48 48 48zm0-80c17.648 0 32 14.352 32 32s-14.352 32-32 32-32-14.355-32-32 14.352-32 32-32zm0 0"/><path d="M208.004 144.004c22.055 0 40-17.945 40-40s-17.945-40-40-40-40 17.94-40 40 17.945 40 40 40zm0-64c13.234 0 24 10.766 24 24s-10.766 24-24 24-24-10.77-24-24 10.77-24 24-24zm-192 40h16v16h-16zm0 0"/><path d="M16.004 152.004h16v16h-16zm16-16h16v16h-16zm0 0"/><path d="M.004 136.004h16v16h-16zm144-136h16v16h-16zm0 0"/><path d="M144.004 32.004h16v16h-16zm16-16h16v16h-16zm0 0"/><path d="M128.004 16.004h16v16h-16zm184 64h16v16h-16zm0 0"/><path d="M312.004 112.004h16v16h-16zm16-16h16v16h-16zm0 0"/><path d="M296.004 96.004h16v16h-16zm-120 184h16c0-44.113-35.887-80-80-80v16c35.3 0 64 28.7 64 64zm0 0"/></svg>