<svg xmlns="http://www.w3.org/2000/svg" viewBox="0 0 410.322 410.322"><path d="M355.246 0H55.076c-2.826 0-5.12 2.294-5.12 5.12v400.082c0 2.826 2.294 5.12 5.12 5.12h300.17c2.826 0 5.12-2.294 5.12-5.12V5.12c0-2.826-2.294-5.12-5.12-5.12zm-5.12 400.082H60.196V363.96h289.93v36.122zm0-46.362H60.196V58.88h289.93v294.84zm0-305.08H60.196v-38.4h289.93v38.4zm-144.968 60.672c-53.484 0-96.993 43.5-96.993 96.988s43.5 96.993 96.993 96.993 96.993-43.5 96.993-96.988-43.5-96.993-96.993-96.993zm0 183.736c-47.836 0-86.753-38.912-86.753-86.748s38.917-86.753 86.753-86.753 86.753 38.917 86.753 86.753-38.916 86.748-86.753 86.748zm0-211.896c-69.012 0-125.153 56.14-125.153 125.148s56.146 125.153 125.153 125.153c69.013 0 125.153-56.14 125.153-125.148S274.17 81.152 205.158 81.152zm0 240.06c-63.365 0-114.913-51.548-114.913-114.913S141.798 91.387 205.158 91.387 320.072 142.935 320.072 206.3s-51.55 114.913-114.914 114.913zm115.4-296.467h-19.763c-2.826 0-5.12 2.294-5.12 5.12s2.294 5.12 5.12 5.12h19.763c2.826 0 5.12-2.294 5.12-5.12s-2.294-5.12-5.12-5.12zm-47.758 0h-19.763c-2.826 0-5.12 2.294-5.12 5.12s2.294 5.12 5.12 5.12H272.8c2.826 0 5.12-2.294 5.12-5.12s-2.294-5.12-5.12-5.12zm-13.882 161.608c-2.826 0-5.12 2.294-5.12 5.12v29.655c0 2.826 2.294 5.12 5.12 5.12s5.12-2.294 5.12-5.12v-29.655a5.12 5.12 0 0 0-5.12-5.12z"/></svg>