<svg width="29" height="30" viewBox="0 0 29 30" fill="none" xmlns="http://www.w3.org/2000/svg">
<path fill-rule="evenodd" clip-rule="evenodd" d="M1.82898 1.25195H12.829V15.252H13.829V1.25195C13.829 0.699668 13.3813 0.251953 12.829 0.251953H1.82898C1.27669 0.251953 0.828979 0.699669 0.828979 1.25195V25.252C0.828979 25.8042 1.27669 26.252 1.82898 26.252H8.82898V25.252H1.82898L1.82898 1.25195Z" fill="black"/>
<rect x="2.32898" y="25.752" width="1" height="1" rx="0.5" stroke="black"/>
<mask id="path-3-inside-1" fill="white">
<path d="M3.82898 13.752C3.82898 13.4758 4.05284 13.252 4.32898 13.252V13.252C4.60512 13.252 4.82898 13.4758 4.82898 13.752V26.252H3.82898V13.752Z"/>
</mask>
<path d="M4.82898 26.252V27.252H5.82898V26.252H4.82898ZM3.82898 26.252H2.82898V27.252H3.82898V26.252ZM3.82898 13.752V26.252H5.82898V13.752H3.82898ZM4.82898 25.252H3.82898V27.252H4.82898V25.252ZM4.82898 26.252V13.752H2.82898V26.252H4.82898ZM4.32898 14.252C4.05284 14.252 3.82898 14.0281 3.82898 13.752H5.82898C5.82898 12.9235 5.15741 12.252 4.32898 12.252V14.252ZM4.32898 12.252C3.50055 12.252 2.82898 12.9235 2.82898 13.752H4.82898C4.82898 14.0281 4.60512 14.252 4.32898 14.252V12.252Z" fill="black" mask="url(#path-3-inside-1)"/>
<path d="M3.82898 11.752C3.82898 11.4758 4.05284 11.252 4.32898 11.252V11.252C4.60512 11.252 4.82898 11.4758 4.82898 11.752V11.752C4.82898 12.0281 4.60512 12.252 4.32898 12.252V12.252C4.05284 12.252 3.82898 12.0281 3.82898 11.752V11.752Z" fill="black"/>
<path d="M4.15113 3.08187V3.08187V3.08187C3.64113 2.57187 3.51113 2.68187 3.51113 2.68187V2.68187C3.23113 2.95187 3.06113 3.33187 3.06113 3.75187C3.06113 4.09187 3.17113 4.41187 3.37113 4.66187H3.38113C3.38113 4.66187 3.38113 4.66187 3.38113 4.65187C3.26113 4.30187 3.85113 3.44187 4.15113 3.08187Z" fill="black"/>
<path d="M5.61113 2.6819V2.6819C5.61113 2.6819 5.48113 2.5719 4.97113 3.0719V3.0719V3.0719C5.27113 3.4319 5.86113 4.29191 5.74113 4.64191V4.65191H5.75113C5.94113 4.40191 6.06113 4.08191 6.06113 3.7419C6.06113 3.3319 5.89113 2.9519 5.61113 2.6819Z" fill="black"/>
<path d="M4.5611 2.69195V2.69195V2.69195C4.6111 2.67195 5.0511 2.41195 5.3411 2.48195H5.3511V2.47195C5.1111 2.33195 4.8611 2.25195 4.5611 2.25195C4.2611 2.25195 4.0111 2.33195 3.7811 2.47195C3.7811 2.47195 3.7811 2.47195 3.7811 2.48195C3.7811 2.48195 3.7811 2.48195 3.7911 2.48195C4.0411 2.42195 4.4511 2.63195 4.5611 2.69195Z" fill="black"/>
<path d="M4.56115 3.46191C4.56115 3.45191 4.56115 3.45191 4.56115 3.46191C4.56115 3.45191 4.56115 3.45191 4.56115 3.46191C4.10114 3.80191 3.33114 4.65191 3.57114 4.88191C3.84114 5.11191 4.18114 5.25191 4.56115 5.25191C4.94115 5.25191 5.28115 5.11191 5.55115 4.88191V4.88191C5.78115 4.64191 5.01115 3.80191 4.56115 3.46191Z" fill="black"/>
<path fill-rule="evenodd" clip-rule="evenodd" d="M15.0601 17.2584C15.6634 17.2924 16.1252 17.4598 16.493 17.6937L16.7878 17.3425C16.7667 17.3034 16.7354 17.26 16.6893 17.2173C16.5777 17.114 16.3349 16.9755 15.829 16.9755C15.6177 16.9755 15.3152 17.0453 14.9697 17.177C14.9206 17.1957 14.8714 17.2154 14.8225 17.2359C14.901 17.2401 14.9804 17.2474 15.0601 17.2584ZM15.1159 18.2877C15.0661 18.2741 15.0148 18.2632 14.9623 18.2547C14.9191 18.2529 14.8747 18.252 14.829 18.252C13.3663 18.252 12.8417 18.8522 12.7778 18.9726C12.0379 20.5357 11.1362 22.8842 10.8099 24.8705C10.6452 25.8727 10.6381 26.7206 10.8237 27.3176C10.9141 27.6085 11.0441 27.8201 11.206 27.9668C11.3638 28.1099 11.5793 28.2162 11.8875 28.2554L11.8886 28.2555L11.891 28.2558L11.8875 28.2554L11.8891 28.2548C11.9024 28.2513 11.9968 28.2265 12.2025 27.9999C12.3825 27.8016 12.5661 27.5434 12.7811 27.2409L12.7813 27.2407L12.7814 27.2405L12.7815 27.2404L12.782 27.2396C12.8352 27.1647 12.8904 27.0872 12.9479 27.0071C13.2231 26.6241 13.5444 26.1969 13.9142 25.8658C14.2855 25.5333 14.7562 25.252 15.329 25.252H18.829H19.829H23.329C23.9018 25.252 24.3725 25.5333 24.7438 25.8658C25.1135 26.1969 25.4349 26.6241 25.7101 27.0071C25.7679 27.0876 25.8234 27.1656 25.8769 27.2409L25.8769 27.2409C26.0919 27.5434 26.2755 27.8016 26.4554 27.9999C26.6612 28.2265 26.7556 28.2513 26.7689 28.2548L26.7704 28.2554C27.0787 28.2162 27.2942 28.1099 27.452 27.9668C27.6138 27.8201 27.7439 27.6085 27.8343 27.3176C28.0199 26.7206 28.0127 25.8727 27.8481 24.8705C27.5217 22.8842 26.6201 20.5357 25.8802 18.9726C25.8163 18.8522 25.2916 18.252 23.829 18.252C23.7664 18.252 23.7063 18.2537 23.6486 18.2571C23.601 18.2652 23.5545 18.2753 23.5092 18.2877C23.1185 18.3949 22.8307 18.5289 22.6456 18.6319C22.5529 18.6834 22.486 18.7272 22.4448 18.7559C22.4242 18.7703 22.4101 18.7809 22.4024 18.7868L22.3962 18.7916L22.3381 18.8404C22.254 18.9277 22.1748 19.0216 22.0942 19.1212C22.0724 19.1481 22.0497 19.1765 22.0263 19.2059L22.0263 19.2059L22.0262 19.2059C21.9229 19.3353 21.8043 19.4838 21.6825 19.6055L21.6533 19.6348L21.6196 19.6588L21.329 19.252C21.6196 19.6588 21.6195 19.6589 21.6194 19.659L21.6191 19.6591L21.6186 19.6595L21.6173 19.6604L21.614 19.6627L21.6043 19.6695C21.5965 19.6749 21.586 19.682 21.5729 19.6907C21.5467 19.708 21.5101 19.7314 21.4643 19.7588C21.3731 19.8135 21.2437 19.8854 21.0859 19.9571C20.776 20.098 20.3273 20.252 19.829 20.252H18.829C18.3306 20.252 17.882 20.098 17.5721 19.9571C17.4142 19.8854 17.2848 19.8135 17.1936 19.7588C17.1479 19.7314 17.1113 19.708 17.0851 19.6907C17.072 19.682 17.0615 19.6749 17.0536 19.6695L17.0439 19.6627L17.0406 19.6604L17.0394 19.6595L17.0388 19.6591L17.0386 19.659C17.0385 19.6589 17.0384 19.6588 17.329 19.252L17.0384 19.6588L17.0047 19.6348L16.9754 19.6055C16.8537 19.4837 16.735 19.3352 16.6317 19.2059C16.6082 19.1765 16.5856 19.1481 16.5638 19.1212C16.5183 19.065 16.4733 19.0107 16.4276 18.9583L16.2289 18.7916L16.2227 18.7868C16.215 18.7809 16.2008 18.7703 16.1803 18.7559C16.1391 18.7272 16.0722 18.6834 15.9795 18.6319C15.7944 18.5289 15.5066 18.3949 15.1159 18.2877ZM12.713 17.4637C12.6791 17.5145 12.5993 17.6472 12.5843 17.8126C12.2287 18.0375 11.9972 18.2976 11.8818 18.5283L11.8817 18.5283L11.8771 18.5379C11.1176 20.1414 10.1713 22.5891 9.82311 24.7084C9.65026 25.7604 9.61364 26.7937 9.86871 27.6144C9.99862 28.0324 10.21 28.4137 10.5344 28.7078C10.8623 29.005 11.2771 29.1869 11.767 29.2481C12.2899 29.3135 12.6912 28.9493 12.9429 28.672C13.1672 28.4249 13.3961 28.1025 13.6137 27.796C13.6631 27.7263 13.712 27.6575 13.7601 27.5905C14.0349 27.208 14.301 26.8617 14.5813 26.6108C14.86 26.3612 15.1018 26.252 15.329 26.252H18.829H19.829H23.329C23.5562 26.252 23.798 26.3612 24.0767 26.6108C24.3569 26.8617 24.6231 27.208 24.8979 27.5905C24.946 27.6575 24.9948 27.7263 25.0443 27.796C25.2619 28.1025 25.4907 28.4249 25.715 28.672C25.9668 28.9493 26.3681 29.3135 26.891 29.2481C27.3809 29.1869 27.7956 29.005 28.1235 28.7078C28.448 28.4137 28.6593 28.0324 28.7893 27.6144C29.0443 26.7937 29.0077 25.7604 28.8349 24.7084C28.4867 22.5891 27.5404 20.1414 26.7808 18.5379L26.7763 18.5283L26.7762 18.5283C26.657 18.2901 26.4141 18.0205 26.0384 17.7907C26.0187 17.6355 25.9444 17.5123 25.9121 17.4637C25.8248 17.3328 25.6993 17.2139 25.5782 17.1144C25.4506 17.0097 25.2994 16.9035 25.1361 16.8015C24.8098 16.5976 24.4121 16.3953 24.0117 16.2427C23.6197 16.0932 23.1848 15.9755 22.7961 15.9755C22.102 15.9755 21.5948 16.1702 21.2564 16.4836C21.0929 16.635 20.9786 16.8054 20.9048 16.9755H19.829H18.7961H17.7203C17.6465 16.8054 17.5322 16.635 17.3687 16.4836C17.0303 16.1702 16.5231 15.9755 15.829 15.9755C15.4403 15.9755 15.0054 16.0932 14.6134 16.2427C14.213 16.3953 13.8153 16.5976 13.489 16.8015C13.3257 16.9035 13.1745 17.0097 13.0469 17.1144C12.9258 17.2139 12.8003 17.3328 12.713 17.4637ZM23.8026 17.2359C23.7152 17.2406 23.6267 17.2491 23.5379 17.2622C22.9523 17.3045 22.5027 17.4742 22.1436 17.7074L21.8373 17.3425C21.8584 17.3034 21.8897 17.26 21.9358 17.2173C22.0474 17.114 22.2902 16.9755 22.7961 16.9755C23.0074 16.9755 23.3099 17.0453 23.6554 17.177C23.7045 17.1957 23.7536 17.2154 23.8026 17.2359ZM21.063 17.9755L21.4059 18.3839C21.3748 18.4209 21.3452 18.4571 21.3169 18.492C21.2847 18.5318 21.2551 18.5688 21.2275 18.6033L21.2274 18.6033L21.2274 18.6034L21.2273 18.6035L21.2273 18.6035L21.2273 18.6035C21.1413 18.7108 21.0744 18.7943 21.007 18.8659C20.9924 18.8753 20.9732 18.8873 20.9498 18.9013C20.8848 18.9404 20.7892 18.9935 20.6721 19.0468C20.432 19.1559 20.1306 19.252 19.829 19.252H18.829C18.5273 19.252 18.226 19.1559 17.9859 19.0468C17.8688 18.9935 17.7732 18.9404 17.7081 18.9013C17.6848 18.8873 17.6656 18.8753 17.651 18.8659C17.5835 18.7943 17.5166 18.7108 17.4307 18.6035L17.4307 18.6035L17.4307 18.6035C17.403 18.5689 17.3733 18.5319 17.341 18.492C17.3078 18.451 17.2728 18.4082 17.2356 18.3643L17.5621 17.9755H18.7961H19.829H21.063ZM16.1945 20.8082C16.1945 21.6367 15.5229 22.3082 14.6945 22.3082C13.866 22.3082 13.1945 21.6367 13.1945 20.8082C13.1945 19.9798 13.866 19.3082 14.6945 19.3082C15.5229 19.3082 16.1945 19.9798 16.1945 20.8082ZM15.3484 20.8082C15.3484 21.1693 15.0556 21.4621 14.6945 21.4621C14.3333 21.4621 14.0406 21.1693 14.0406 20.8082C14.0406 20.4471 14.3333 20.1543 14.6945 20.1543C15.0556 20.1543 15.3484 20.4471 15.3484 20.8082ZM23.2846 24.2479C24.113 24.2479 24.7846 23.5764 24.7846 22.7479C24.7846 21.9195 24.113 21.2479 23.2846 21.2479C22.4562 21.2479 21.7846 21.9195 21.7846 22.7479C21.7846 23.5764 22.4562 24.2479 23.2846 24.2479ZM23.2846 23.4018C23.6458 23.4018 23.9385 23.109 23.9385 22.7479C23.9385 22.3868 23.6458 22.094 23.2846 22.094C22.9235 22.094 22.6307 22.3868 22.6307 22.7479C22.6307 23.109 22.9235 23.4018 23.2846 23.4018ZM17.825 24.2215V23.2191H16.8225V22.2191H17.825V21.2166H18.825V22.2191H19.8275V23.2191H18.825V24.2215H17.825Z" fill="black"/>
</svg>
