<svg xmlns="http://www.w3.org/2000/svg" xmlns:xlink="http://www.w3.org/1999/xlink" viewBox="0 0 215.052 215.052"><path d="M206.74 0h-75.093c-1.884 0-3.413 1.53-3.413 3.413v110.082h6.827V6.827h68.267V204.8h-55.892v6.827h59.305a3.41 3.41 0 0 0 3.413-3.413V3.413c0-1.884-1.53-3.413-3.414-3.413z"/><path d="M162.367 0c-1.884 0-3.413 1.53-3.413 3.413V81.92c0 1.884 1.53 3.413 3.413 3.413a3.41 3.41 0 0 0 3.413-3.413V3.413c0-1.884-1.53-3.413-3.413-3.413zm0 139.947c-1.884 0-3.413 1.53-3.413 3.413v64.853c0 1.884 1.53 3.413 3.413 3.413a3.41 3.41 0 0 0 3.413-3.413V143.36c0-1.884-1.53-3.413-3.413-3.413zm0-40.96c-1.884 0-3.413 1.53-3.413 3.413v20.48c0 1.884 1.53 3.413 3.413 3.413a3.41 3.41 0 0 0 3.413-3.413V102.4c0-1.884-1.53-3.413-3.413-3.413zm-10.474 60.15l-2.072-7.77c-6.18-23.33-10.644-40.187-22.468-43.687-4.67-1.382-14.385-4.262-24.866 1.958-8.24 4.9-35.84 4.886-44.08 0-10.484-6.22-20.2-3.34-24.888-1.952-11.802 3.494-16.266 20.35-22.446 43.68L9 159.135c-5.495 20.342-5.466 39.685.07 49.277 1.964 3.405 4.545 5.552 7.668 6.38a7.48 7.48 0 0 0 1.93.253c7.438 0 14.957-10.892 22.252-21.448 3.113-4.5 6.33-9.172 8.07-10.522 1.208-.937 5.845-3.096 22.596-2.865l20.87-.015c14.283.065 18.355 2.036 19.444 2.88h.002c1.74 1.35 4.958 6 8.07 10.522 7.926 11.474 16.123 23.366 24.18 21.197 3.123-.83 5.704-2.976 7.668-6.38 5.536-9.593 5.565-28.937.07-49.28zm-5.978 45.86c-1.026 1.775-2.207 2.852-3.5 3.198-3.422.858-12.803-12.68-16.8-18.48-3.872-5.608-6.932-10.04-9.504-12.035-2.34-1.816-7.335-4.24-23.617-4.313l-20.84.015c-14.083-.2-22.852 1.215-26.825 4.3-2.574 1.997-5.632 6.427-9.506 12.035-4.007 5.803-13.362 19.4-16.8 18.48-1.304-.346-2.485-1.423-3.5-3.198-3.833-6.637-5.13-22.842.608-44.083l2.08-7.8c5.4-20.38 9.665-36.477 17.8-38.888 2.17-.642 5.338-1.582 9.04-1.582a20.05 20.05 0 0 1 10.409 2.862c10.257 6.086 40.8 6.086 51.046 0 7.917-4.693 15.416-2.476 19.468-1.275 8.122 2.405 12.385 18.502 17.785 38.88l2.08 7.8c5.736 21.242 4.44 37.446.608 44.084zm-103.02-75.284h6.827v27.307h-6.827zm69.98-.005a15.38 15.38 0 0 0-15.36 15.36 15.38 15.38 0 0 0 15.36 15.36 15.38 15.38 0 0 0 15.36-15.36 15.38 15.38 0 0 0-15.36-15.36zm0 23.893c-4.705 0-8.533-3.828-8.533-8.533s3.828-8.533 8.533-8.533 8.533 3.828 8.533 8.533-3.828 8.533-8.533 8.533z"/><use xlink:href="#B"/><use xlink:href="#B" y="30.72"/><path d="M162.367 78.507c-7.528 0-13.653 6.125-13.653 13.653s6.125 13.653 13.653 13.653A13.67 13.67 0 0 0 176.02 92.16c0-7.528-6.125-13.653-13.653-13.653zm0 20.48c-3.765 0-6.827-3.062-6.827-6.827s3.062-6.827 6.827-6.827 6.827 3.062 6.827 6.827-3.062 6.827-6.827 6.827zm0 20.48c-7.528 0-13.653 6.125-13.653 13.653s6.125 13.653 13.653 13.653a13.67 13.67 0 0 0 13.653-13.653c0-7.528-6.125-13.653-13.653-13.653zm0 20.48c-3.765 0-6.827-3.062-6.827-6.827s3.062-6.827 6.827-6.827 6.827 3.062 6.827 6.827-3.062 6.827-6.827 6.827zm-129.712.005h27.307v6.827H32.655z"/><defs ><path id="B" d="M187.967 17.067c-6.586 0-11.947 5.36-11.947 11.947s5.36 11.947 11.947 11.947 11.947-5.36 11.947-11.947-5.36-11.947-11.947-11.947zm0 17.066a5.13 5.13 0 0 1-5.12-5.12 5.13 5.13 0 0 1 5.12-5.12c2.825 0 5.12 2.297 5.12 5.12a5.13 5.13 0 0 1-5.12 5.12z"/></defs></svg>