<?xml version="1.0" encoding="UTF-8"?>
<svg width="773px" height="664px" viewBox="0 0 773 664" version="1.1" xmlns="http://www.w3.org/2000/svg" xmlns:xlink="http://www.w3.org/1999/xlink">
    <!-- Generator: Sketch 63.1 (92452) - https://sketch.com -->
    <title>vacuum 2</title>
    <desc>Created with Sketch.</desc>
    <defs>
        <polygon id="path-1" points="0 0 315.941176 0 388.504902 147.126344 393 305.630303 267.897106 478 0 478"></polygon>
    </defs>
    <g id="Page-1" stroke="none" stroke-width="1" fill="none" fill-rule="evenodd">
        <g id="Group-4-Copy-2">
            <g id="Group-3" transform="translate(389.000000, 216.000000)">
                <mask id="mask-2" fill="white">
                    <use xlink:href="#path-1"></use>
                </mask>
                <g id="Rectangle"></g>
                <g id="breathalyser" mask="url(#mask-2)" fill="#000000" fill-rule="nonzero">
                    <g transform="translate(89.901961, -191.456989)">
                        <path d="M573.193914,2.19506609 C465.10714,-11.5685541 363.512393,56.8512813 335.426476,162.321545 C333.583277,170.20929 335.122881,178.50992 339.671412,185.207703 C340.122495,185.908006 340.361574,186.724163 340.35978,187.557621 C340.353079,188.345985 340.10379,189.113086 339.645917,189.754284 L285.328575,266.6247 C279.736064,274.392427 278.950918,284.641832 283.294821,293.173568 C287.638725,301.705303 296.38161,307.085459 305.941375,307.1097 L310.92567,307.1097 C311.743128,309.534752 312.122986,312.086273 312.047455,314.644764 C312.146872,318.457723 311.425132,322.247383 309.931361,325.755789 C307.736132,330.778929 307.701554,336.485895 309.835753,341.535365 C311.969952,346.584834 316.084718,350.53151 321.212949,352.447793 C319.885415,355.194925 319.196785,358.207831 319.198835,361.259985 C319.077329,368.349615 322.826283,374.940863 328.976212,378.450146 C322.287947,387.330442 318.67591,398.155342 318.688933,409.280049 C318.67742,410.218978 318.728524,411.15763 318.841903,412.089734 C320.253908,439.176197 342.60622,460.402139 369.679162,460.365223 L423.07868,460.365223 C427.670151,460.365945 431.78181,463.213867 433.404201,467.517148 L433.518929,542.459099 C374.285635,554.688149 331.723894,606.848741 331.538471,667.438978 L331.538471,741.333682 C331.538471,755.440464 342.953022,766.87627 357.033585,766.87627 L713.863209,766.87627 C727.943772,766.87627 739.358324,755.440464 739.358324,741.333682 L739.358324,575.306866 C739.406854,561.742202 734.025289,548.724275 724.417905,539.166211 C714.810521,529.608147 701.7794,524.307909 688.240619,524.451575 L688.240619,396.368271 C688.36862,392.954197 689.94554,389.757312 692.574789,387.581621 C745.475607,339.144879 771.913267,268.1853 763.629673,196.867894 C752.911753,95.5754476 674.061706,14.9710391 573.193914,2.19506609 Z M497.256716,741.333682 L497.256716,696.634155 C497.256716,650.787116 534.354009,613.620749 580.115838,613.620749 C625.877667,613.620749 662.974961,650.787116 662.974961,696.634155 L662.974961,741.333682 L497.256716,741.333682 Z M705.832248,556.648006 C710.991553,561.471863 713.903256,568.236814 713.863617,575.306866 L713.863617,741.333682 L688.368095,741.333682 L688.368095,696.634155 C688.368095,636.680334 639.856251,588.078159 580.013858,588.078159 C520.171465,588.078159 471.65962,636.680334 471.65962,696.634155 L471.65962,741.333682 L356.931605,741.333682 L356.931605,667.426206 C357.051396,613.694137 398.600201,569.191044 452.104868,565.485741 L686.659922,549.828135 C687.24631,549.828135 687.832697,549.763898 688.419085,549.763898 C694.891337,549.728652 701.128164,552.194178 705.832248,556.648006 Z M675.799003,368.41191 C667.655611,375.430682 662.91894,385.61953 662.796495,396.381043 L662.796495,525.818103 L459.001296,539.432302 L458.912063,465.575911 C458.906584,464.525775 458.778233,463.479904 458.529636,462.459716 C458.338423,461.731752 458.032482,461.067645 457.803026,460.352452 L511.024077,460.352452 C537.564678,460.447073 561.84975,445.414004 573.640079,421.591576 C576.790605,415.282318 574.239453,407.608893 567.941921,404.4525 C561.644389,401.296108 553.985225,403.852011 550.834699,410.161268 C543.34622,425.32267 527.895855,434.8906 511.01133,434.822636 L369.679162,434.822636 C356.264076,434.841579 345.153432,424.393013 344.324271,410.978631 C344.326245,410.367568 344.283639,409.757177 344.196795,409.152336 C344.234716,400.637388 348.478446,392.693676 355.529373,387.939218 C359.903934,384.981883 362.007347,379.629775 360.81961,374.478274 C359.099076,367.762388 354.758893,362.019919 348.773168,358.5397 C350.833082,354.621956 351.536994,350.130088 350.774535,345.768406 C349.484862,338.026789 343.721692,331.795997 336.114844,329.919231 L335.541204,329.765975 C336.919369,324.823823 337.597372,319.712137 337.555318,314.580907 C337.565021,312.060247 337.394618,309.542125 337.045415,307.045844 L344.184047,307.045844 C351.224328,307.045844 356.931605,301.32794 356.931605,294.27455 C356.931605,287.22116 351.224328,281.503257 344.184047,281.503257 L316.917022,281.503257 L306.043356,281.503257 L360.500921,204.415729 C363.97733,199.473958 365.847041,193.577863 365.854895,187.532079 C365.853527,181.861117 364.24438,176.307193 361.214784,171.516876 C360.673107,170.723281 360.28402,169.835376 360.067504,168.898761 C384.363284,79.0055637 469.168219,19.2355814 561.826445,26.7003357 C654.484671,34.1650899 728.666925,106.743436 738.313024,199.371068 C745.791585,262.507655 722.533401,325.398879 675.799003,368.41191 L675.799003,368.41191 Z" id="Shape"></path>
                        <path d="M38.2426719,639.163334 L165.718245,639.163334 C186.839089,639.163334 203.960917,622.009624 203.960917,600.849453 L203.960917,409.280049 L254.951146,409.280049 C276.07199,409.280049 293.193818,392.12634 293.193818,370.966168 C293.193818,349.805997 276.07199,332.652288 254.951146,332.652288 L201.615366,332.652288 C196.232652,317.398882 181.866665,307.176768 165.718245,307.1097 L38.2426719,307.1097 C17.1218274,307.1097 0,324.26341 0,345.423581 L0,600.849453 C0,622.009624 17.1218274,639.163334 38.2426719,639.163334 Z M267.698704,370.966168 C267.698704,378.019558 261.991427,383.737462 254.951146,383.737462 L203.960917,383.737462 L203.960917,358.194875 L254.951146,358.194875 C261.991427,358.194875 267.698704,363.912778 267.698704,370.966168 Z M25.4951146,345.423581 C25.4951146,338.370191 31.2023904,332.652288 38.2426719,332.652288 L165.718245,332.652288 C172.758526,332.652288 178.465802,338.370191 178.465802,345.423581 L178.465802,600.849453 C178.465802,607.902843 172.758526,613.620747 165.718245,613.620747 L38.2426719,613.620747 C31.2023904,613.620747 25.4951146,607.902843 25.4951146,600.849453 L25.4951146,345.423581 Z" id="Shape"></path>
                        <path d="M76.4853439,447.59393 L127.475573,447.59393 C141.556136,447.59393 152.970688,436.158124 152.970688,422.051343 L152.970688,383.737462 C152.970688,369.630681 141.556136,358.194875 127.475573,358.194875 L76.4853439,358.194875 C62.4047809,358.194875 50.9902292,369.630681 50.9902292,383.737462 L50.9902292,422.051343 C50.9902292,436.158124 62.4047809,447.59393 76.4853439,447.59393 Z M76.4853439,383.737462 L127.475573,383.737462 L127.475573,422.051343 L76.4853439,422.051343 L76.4853439,383.737462 Z" id="Shape"></path>
                        <path d="M114.728016,473.136517 L89.2329012,473.136517 C82.1926197,473.136517 76.4853439,478.854421 76.4853439,485.907811 C76.4853439,492.961201 82.1926197,498.679104 89.2329012,498.679104 L114.728016,498.679104 C121.768297,498.679104 127.475573,492.961201 127.475573,485.907811 C127.475573,478.854421 121.768297,473.136517 114.728016,473.136517 Z" id="Path"></path>
                        <path d="M114.728016,524.221691 L89.2329012,524.221691 C82.1926197,524.221691 76.4853439,529.939595 76.4853439,536.992985 C76.4853439,544.046375 82.1926197,549.764279 89.2329012,549.764279 L114.728016,549.764279 C121.768297,549.764279 127.475573,544.046375 127.475573,536.992985 C127.475573,529.939595 121.768297,524.221691 114.728016,524.221691 Z" id="Path"></path>
                    </g>
                </g>
            </g>
            <g id="weight-(1)" fill="#000000" fill-rule="nonzero">
                <path d="M548.390797,0.0860366714 C578.58811,0.0860366714 603.145323,24.6323318 603.145323,54.8190794 L603.145323,54.8190794 L603.144389,298.977037 L575.767389,298.977037 L575.767418,54.8190794 C575.767418,39.8842591 563.726867,27.699084 548.842694,27.456874 L548.390797,27.4531994 L55.6039152,27.4531994 C40.5123169,27.4531994 28.2272939,39.7334023 28.2272939,54.8190794 L28.2272939,54.8190794 L28.2272939,547.412615 C28.2272939,562.498292 40.5123169,574.778495 55.6039152,574.778495 L55.6039152,574.778495 L447.437389,574.778037 L447.437389,602.145037 L55.6039152,602.145658 C25.707305,602.145658 1.34107228,578.086577 0.856737282,548.316469 L0.849389417,547.412615 L0.849389417,54.8190794 C0.849389417,24.6323318 25.4053191,0.0860366714 55.6039152,0.0860366714 L55.6039152,0.0860366714 Z" id="Combined-Shape"></path>
                <path d="M301.997356,82.1849593 C236.188491,82.1849593 174.309089,107.801106 127.776661,154.329388 C122.429153,159.674797 122.429153,168.333668 127.776661,173.677795 L205.201949,251.072706 C210.549457,256.418115 219.211727,256.418115 224.557951,251.072706 C267.254598,208.392811 336.740115,208.392811 379.435478,251.072706 C382.10859,253.744769 385.611997,255.081763 389.11412,255.081763 C392.616244,255.081763 396.118367,253.744769 398.792763,251.072706 L476.218052,173.677795 C481.565559,168.332385 481.565559,159.673514 476.218052,154.329388 C429.685624,107.801106 367.806221,82.1849593 301.997356,82.1849593 Z M388.632883,222.530502 C363.527701,201.978833 332.755471,191.703639 301.997356,191.703639 C289.070684,191.703639 276.231275,193.936987 263.721675,197.566016 L246.01343,158.617774 C242.911696,151.749686 234.811511,148.676107 227.886829,151.829219 C221.001929,154.956675 217.96821,163.066509 221.09561,169.948708 L238.24177,207.656486 C230.267349,211.852511 222.539321,216.652732 215.361829,222.530502 L157.103897,164.29671 C197.140264,128.886418 248.084675,109.550839 301.996073,109.550839 C355.907471,109.550839 406.851881,128.886418 446.888249,164.29671 L388.632883,222.530502 Z" id="Shape"></path>
            </g>
        </g>
    </g>
</svg>